<?xml version="1.0" encoding="UTF-8" standalone="no" ?>
<!DOCTYPE svg PUBLIC "-//W3C//DTD SVG 1.1//EN" "http://www.w3.org/Graphics/SVG/1.1/DTD/svg11.dtd">
<svg xmlns="http://www.w3.org/2000/svg" xmlns:xlink="http://www.w3.org/1999/xlink" version="1.1" width="1080" height="300" viewBox="0 0 1080 300" xml:space="preserve">
<desc>Created with Fabric.js 5.2.4</desc>
<defs>
</defs>
<rect x="0" y="0" width="100%" height="100%" fill="transparent"></rect>
<g transform="matrix(1 0 0 1 540 150)" id="1c507ba8-4382-4383-a0b1-561abf130728"  >
<rect style="stroke: none; stroke-width: 1; stroke-dasharray: none; stroke-linecap: butt; stroke-dashoffset: 0; stroke-linejoin: miter; stroke-miterlimit: 4; fill: rgb(255,255,255); fill-rule: nonzero; opacity: 1; visibility: hidden;" vector-effect="non-scaling-stroke"  x="-540" y="-150" rx="0" ry="0" width="1080" height="300" />
</g>
<g transform="matrix(0 0 0 0 0 0)" id="c2b8f9bf-11c4-4b8e-bb8a-98fbc85f1334"  >
</g>
<g transform="matrix(10.12 0 0 10.12 540 150)" id="c20fdb35-f952-4ae9-8a91-1e727769bfe9"  >
<path style="stroke: rgb(0,0,0); stroke-width: 0; stroke-dasharray: none; stroke-linecap: butt; stroke-dashoffset: 0; stroke-linejoin: miter; stroke-miterlimit: 4; fill: rgb(0,0,0); fill-rule: nonzero; opacity: 1;" vector-effect="non-scaling-stroke"  transform=" translate(-50.36, -25.1)" d="M 92.5 15.8 C 92.2 15.4 91.9 15.100000000000001 90.4 15 C 90 15 88.80000000000001 14.9 86.7 14.9 C 81.2 14.9 77.4 16.6 75.5 19.9 C 76 16.599999999999998 72.8 14.899999999999999 65.8 14.899999999999999 C 57.599999999999994 14.899999999999999 52.4 18.2 50.3 24.9 C 49.5 27.4 49.5 29.4 50.099999999999994 31 L 48.099999999999994 31 C 46.599999999999994 31.1 44.599999999999994 31.2 43.3 31.2 C 40.3 31.2 38.4 30.7 37.699999999999996 29.7 C 37.099999999999994 28.8 37.099999999999994 27.099999999999998 37.9 24.6 C 39.199999999999996 20.5 42.3 18.700000000000003 47.3 18.700000000000003 C 49.9 18.700000000000003 52.4 19.000000000000004 52.4 19.000000000000004 C 52.699999999999996 19.000000000000004 52.9 18.600000000000005 52.9 18.300000000000004 L 52.8 18.000000000000004 L 52.599999999999994 16.600000000000005 C 52.49999999999999 15.700000000000005 51.8 15.200000000000005 50.599999999999994 15.000000000000005 C 49.49999999999999 14.900000000000006 48.599999999999994 14.900000000000006 47.39999999999999 14.900000000000006 L 47.29999999999999 14.900000000000006 C 40.79999999999999 14.900000000000006 36.19999999999999 17.100000000000005 33.69999999999999 21.300000000000004 C 34.59999999999999 17.000000000000004 31.599999999999987 14.900000000000004 24.69999999999999 14.900000000000004 C 20.79999999999999 14.900000000000004 17.99999999999999 15.000000000000004 16.399999999999988 15.200000000000005 C 15.099999999999987 15.400000000000004 14.299999999999988 15.900000000000004 13.999999999999988 16.800000000000004 L 13.399999999999988 18.600000000000005 C 13.299999999999988 18.900000000000006 13.499999999999988 19.100000000000005 13.899999999999988 19.100000000000005 C 14.199999999999989 19.100000000000005 15.399999999999988 18.900000000000006 17.399999999999988 18.800000000000004 C 20.099999999999987 18.600000000000005 21.999999999999986 18.500000000000004 23.29999999999999 18.500000000000004 C 27.09999999999999 18.500000000000004 28.79999999999999 19.500000000000004 28.19999999999999 21.400000000000002 C 28.099999999999987 21.8 27.79999999999999 22.1 27.29999999999999 22.200000000000003 C 23.69999999999999 22.800000000000004 20.79999999999999 23.200000000000003 18.69999999999999 23.500000000000004 C 12.699999999999989 24.300000000000004 9.199999999999989 26.100000000000005 8.299999999999988 29.1 C 6.9999999999999885 33.2 10.199999999999989 35.2 17.899999999999988 35.2 C 21.69999999999999 35.2 24.999999999999986 35 27.599999999999987 34.5 C 29.099999999999987 34.2 29.899999999999988 33.9 30.19999999999999 32.9 L 31.599999999999987 28.299999999999997 C 31.499999999999986 32.9 34.59999999999999 35.199999999999996 41.19999999999999 35.199999999999996 C 43.999999999999986 35.199999999999996 46.69999999999999 35.099999999999994 47.999999999999986 34.9 C 49.29999999999998 34.7 49.999999999999986 34.4 50.29999999999998 33.4 L 50.59999999999998 32 C 51.99999999999998 34.2 55.09999999999998 35.3 59.79999999999998 35.3 C 64.79999999999998 35.3 67.69999999999999 35.199999999999996 68.49999999999999 34.9 C 69.19999999999999 34.699999999999996 69.59999999999998 34.3 69.79999999999998 33.8 C 69.79999999999998 33.699999999999996 69.79999999999998 33.599999999999994 69.89999999999998 33.5 L 70.49999999999997 31.6 C 70.59999999999997 31.3 70.39999999999998 31.1 69.99999999999997 31.1 L 66.79999999999997 31.3 C 64.69999999999997 31.400000000000002 62.99999999999997 31.5 61.79999999999997 31.5 C 59.49999999999997 31.5 57.99999999999997 31.3 57.099999999999966 31 C 55.79999999999997 30.5 55.19999999999997 29.6 55.29999999999997 28.1 L 65.39999999999996 26.8 C 69.89999999999996 26.2 72.99999999999996 24.8 74.49999999999996 22.6 L 70.99999999999996 34.3 C 70.89999999999996 34.5 70.99999999999996 34.699999999999996 71.09999999999995 34.8 C 71.19999999999995 34.9 71.39999999999995 35 71.79999999999995 35 L 75.99999999999996 35 C 76.69999999999996 35 76.99999999999996 34.6 77.09999999999995 34.3 L 80.79999999999995 21.4 C 81.29999999999995 19.7 82.79999999999995 18.9 85.59999999999995 18.9 C 88.09999999999995 18.9 89.89999999999995 18.9 91.09999999999995 19 L 91.19999999999995 19 C 91.39999999999995 19 91.79999999999994 18.9 92.09999999999995 18.4 L 92.69999999999995 16.599999999999998 C 92.69999999999995 16.299999999999997 92.69999999999995 15.999999999999998 92.49999999999994 15.799999999999997 z M 25.099999999999994 31.200000000000003 C 23.799999999999994 31.400000000000002 21.899999999999995 31.500000000000004 19.499999999999993 31.500000000000004 C 15.199999999999992 31.500000000000004 13.399999999999993 30.600000000000005 13.899999999999993 28.900000000000002 C 14.299999999999994 27.700000000000003 15.399999999999993 26.900000000000002 17.199999999999992 26.700000000000003 L 26.89999999999999 25.400000000000002 z M 69.8 20.800000000000004 C 69.39999999999999 22.100000000000005 67.5 23.000000000000004 64.1 23.500000000000004 L 55.99999999999999 24.600000000000005 L 56.199999999999996 23.900000000000006 C 56.9 21.700000000000006 57.8 20.300000000000004 58.99999999999999 19.500000000000007 C 60.19999999999999 18.70000000000001 62.199999999999996 18.300000000000008 65 18.300000000000008 C 68.7 18.40000000000001 70.3 19.200000000000006 69.8 20.800000000000008 z" stroke-linecap="round" />
</g>
</svg>