<?xml version="1.0" encoding="UTF-8" standalone="no" ?>
<!DOCTYPE svg PUBLIC "-//W3C//DTD SVG 1.1//EN" "http://www.w3.org/Graphics/SVG/1.1/DTD/svg11.dtd">
<svg xmlns="http://www.w3.org/2000/svg" xmlns:xlink="http://www.w3.org/1999/xlink" version="1.1" width="1080" height="300" viewBox="0 0 1080 300" xml:space="preserve">
<desc>Created with Fabric.js 5.2.4</desc>
<defs>
</defs>
<rect x="0" y="0" width="100%" height="100%" fill="transparent"></rect>
<g transform="matrix(1 0 0 1 540 150)" id="f9162a92-71b3-49d2-a35e-dbc886d1ee28"  >
<rect style="stroke: none; stroke-width: 1; stroke-dasharray: none; stroke-linecap: butt; stroke-dashoffset: 0; stroke-linejoin: miter; stroke-miterlimit: 4; fill: rgb(255,255,255); fill-rule: nonzero; opacity: 1; visibility: hidden;" vector-effect="non-scaling-stroke"  x="-540" y="-150" rx="0" ry="0" width="1080" height="300" />
</g>
<g transform="matrix(Infinity NaN NaN Infinity 0 0)" id="7659bb84-7f5a-4074-9a19-69c5e19a4caf"  >
</g>
<g transform="matrix(11.23 0 0 11.23 559 150)" id="63aed1d3-6f6b-48d6-8dbe-8d322c933683"  >
<path style="stroke: rgb(0,0,0); stroke-width: 0; stroke-dasharray: none; stroke-linecap: butt; stroke-dashoffset: 0; stroke-linejoin: miter; stroke-miterlimit: 4; fill: rgb(0,0,0); fill-rule: nonzero; opacity: 1;" vector-effect="non-scaling-stroke"  transform=" translate(-40.65, -12.11)" d="M 55.252 1.441 L 47.403000000000006 1.441 L 47.415000000000006 8.929 L 36.306000000000004 15.855 L 34.021 14.519 L 45.13 7.523 L 40.173 4.359 L 28.993000000000002 11.355 L 27.095000000000002 10.089 L 38.169000000000004 3.128 L 33.177 0 L 20.553 7.907 C 18.768 3.351 14.173000000000002 1.4420000000000002 8.554 1.4420000000000002 L 0 1.4420000000000002 L 0 23.041 L 10.503 23.041 C 15.475000000000001 23.041 19.314999999999998 20.467 20.742 16.281 L 33.353 24.223 L 47.411 15.390999999999998 L 47.404 23.04 L 62.193000000000005 23.04 L 62.193000000000005 16.107 L 55.25300000000001 16.107 L 55.25300000000001 1.441 z M 8.898 16.566 L 7.849 16.566 L 7.849 8.202 L 8.898 8.202 C 11.763 8.202 13.51 9.491 13.51 12.527999999999999 C 13.511 15.363 11.504999999999999 16.566 8.898 16.566 z M 71.776 1.441 L 63.92699999999999 1.441 L 63.92699999999999 23.041 L 78.716 23.041 L 78.716 16.108 L 71.776 16.108 z M 77.644 1.308 L 78.26100000000001 1.308 L 78.26100000000001 2.912 L 78.507 2.912 L 78.507 1.308 L 79.12400000000001 1.308 L 79.12400000000001 1.09 L 77.644 1.09 z M 80.951 1.09 L 80.43299999999999 2.63 L 80.428 2.63 L 79.908 1.0899999999999999 L 79.555 1.0899999999999999 L 79.555 2.912 L 79.79400000000001 2.912 L 79.79400000000001 1.836 C 79.79400000000001 1.7830000000000001 79.78900000000002 1.552 79.78900000000002 1.3840000000000001 L 79.79400000000001 1.3840000000000001 L 80.30700000000002 2.912 L 80.55100000000002 2.912 L 81.06400000000002 1.381 L 81.06900000000002 1.381 C 81.06900000000002 1.551 81.06400000000002 1.782 81.06400000000002 1.836 L 81.06400000000002 2.912 L 81.30300000000003 2.912 L 81.30300000000003 1.09 L 80.95100000000002 1.09 z" stroke-linecap="round" />
</g>
</svg>