<?xml version="1.0" encoding="UTF-8" standalone="no" ?>
<!DOCTYPE svg PUBLIC "-//W3C//DTD SVG 1.1//EN" "http://www.w3.org/Graphics/SVG/1.1/DTD/svg11.dtd">
<svg xmlns="http://www.w3.org/2000/svg" xmlns:xlink="http://www.w3.org/1999/xlink" version="1.1" width="1080" height="300" viewBox="0 0 1080 300" xml:space="preserve">
<desc>Created with Fabric.js 5.2.4</desc>
<defs>
</defs>
<rect x="0" y="0" width="100%" height="100%" fill="transparent"></rect>
<g transform="matrix(1 0 0 1 540 150)" id="f9162a92-71b3-49d2-a35e-dbc886d1ee28"  >
<rect style="stroke: none; stroke-width: 1; stroke-dasharray: none; stroke-linecap: butt; stroke-dashoffset: 0; stroke-linejoin: miter; stroke-miterlimit: 4; fill: rgb(255,255,255); fill-rule: nonzero; opacity: 1; visibility: hidden;" vector-effect="non-scaling-stroke"  x="-540" y="-150" rx="0" ry="0" width="1080" height="300" />
</g>
<g transform="matrix(0 0 0 0 0 0)" id="7659bb84-7f5a-4074-9a19-69c5e19a4caf"  >
</g>
<g transform="matrix(4.01 0 0 4.01 540 150)" id="8b02fa9e-b7dc-479d-b282-1bc7c2316290"  >
<path style="stroke: rgb(0,0,0); stroke-width: 0; stroke-dasharray: none; stroke-linecap: butt; stroke-dashoffset: 0; stroke-linejoin: miter; stroke-miterlimit: 4; fill: rgb(0,0,0); fill-rule: nonzero; opacity: 1;" vector-effect="non-scaling-stroke"  transform=" translate(-100.39, -33.33)" d="M 200.653 15.87 C 197.923 0.194 150.822 -4.698 95.446 4.943 C 72.19 8.994 51.191 14.969 34.838 21.691 C 37.35 21.746 39.213 22.322 40.345 23.451 C 41.23 24.337 41.677 25.553 41.677 27.068 L 41.677 28.623 L 36.247 28.623 L 36.247 27.25 C 36.247 26.106 35.561 25.397 34.346 25.397 C 33.324999999999996 25.397 32.696 25.857999999999997 32.492999999999995 26.766 C 32.42496511705986 27.12493948395094 32.43245763976446 27.494116511759266 32.51499999999999 27.849999999999998 C 33.096 30.224999999999998 41.15899999999999 31.7 42.035999999999994 36.083 C 42.150999999999996 36.647 42.306999999999995 37.854 42.06099999999999 39.580999999999996 C 41.55799999999999 43.116 38.45199999999999 44.48 34.49799999999999 44.48 C 28.978999999999992 44.48 26.73699999999999 41.866 26.73699999999999 38.262 L 26.740999999999993 36.557 L 32.56199999999999 36.557 L 32.56499999999999 38.681000000000004 C 32.56499999999999 39.87500000000001 33.43299999999999 40.534000000000006 34.61499999999999 40.534000000000006 C 35.734999999999985 40.534000000000006 36.38899999999999 40.083000000000006 36.61499999999999 39.16100000000001 C 36.719999999999985 38.73700000000001 36.76599999999999 38.11200000000001 36.57499999999999 37.63400000000001 C 35.49799999999999 34.93200000000001 27.968999999999987 33.67000000000001 27.041999999999987 29.30100000000001 C 26.834999999999987 28.31900000000001 26.817999999999987 27.483000000000008 26.989999999999988 26.42600000000001 C 27.078247602938518 25.90203619865765 27.240538032226112 25.393279271990526 27.471999999999987 24.915000000000013 C 9.333 33.398 -1.278 42.732 0.124 50.791 C 2.857 66.469 49.957 71.356 105.332 61.714999999999996 C 129.67399999999998 57.477999999999994 151.558 51.135 168.213 44.027 C 167.97199999999998 44.039 167.738 44.065 167.488 44.065 C 163.698 44.065 160.314 42.644999999999996 159.963 38.771 C 159.90099999999998 38.066 159.89 37.771 159.888 37.369 L 159.89000000000001 28.463 C 159.89000000000001 28.079 159.935 27.405 159.978 27.057000000000002 C 160.42700000000002 23.313000000000002 163.387 21.769000000000002 167.49 21.769000000000002 C 170.66500000000002 21.769000000000002 174.55800000000002 22.680000000000003 174.98600000000002 27.060000000000002 C 175.043 27.610000000000003 175.037 28.197000000000003 175.03600000000003 28.39 L 175.03600000000003 29.231 L 169.55200000000002 29.231 L 169.55200000000002 27.976000000000003 C 169.55200000000002 27.949 169.544 27.480000000000004 169.484 27.187 C 169.394 26.740000000000002 169.013 25.704 167.45100000000002 25.704 C 165.90800000000002 25.704 165.508 26.742 165.40800000000002 27.188000000000002 C 165.35100000000003 27.433000000000003 165.324 27.785000000000004 165.324 28.175 L 165.324 37.854 C 165.31900000000002 38.19 165.336 38.452999999999996 165.37 38.646 C 165.397 38.798 165.674 40.132 167.47 40.132 C 169.253 40.132 169.529 38.797999999999995 169.554 38.646 C 169.601 38.384 169.607 38.072 169.605 37.854 L 169.605 34.855 L 167.447 34.855 L 167.447 31.624999999999996 L 175.078 31.624999999999996 L 175.078 37.370999999999995 C 175.076 37.76199999999999 175.07 38.050999999999995 175.004 38.770999999999994 C 174.91199999999998 39.78699999999999 174.59199999999998 40.64699999999999 174.09 41.38199999999999 C 191.75300000000001 32.99499999999999 202.037 23.81199999999999 200.653 15.86999999999999 z M 57.065 43.653 L 54.287 24.776999999999997 L 54.187 24.776999999999997 L 51.337999999999994 43.653 L 45.48299999999999 43.653 L 49.42099999999999 22.336 L 58.97399999999999 22.336 L 62.88799999999999 43.653 L 57.06499999999999 43.653 z M 85.227 43.653 L 85.098 25.142 L 85.004 25.142 L 81.55900000000001 43.653 L 76.06400000000001 43.653 L 72.63600000000001 25.142 L 72.53800000000001 25.142 L 72.41300000000001 43.653 L 66.96800000000002 43.653 L 67.44000000000001 22.336 L 76.19800000000001 22.336 L 78.748 38.171 L 78.873 38.171 L 81.43 22.336 L 90.18400000000001 22.336 L 90.65400000000001 43.653 L 85.227 43.653 z M 110.868 39.522 C 110.282 43.650999999999996 106.237 44.373 103.378 44.373 C 98.631 44.373 95.695 42.343999999999994 95.695 38.214999999999996 L 95.698 36.531 L 101.449 36.531 L 101.453 38.629 C 101.453 39.768 102.256 40.464999999999996 103.49600000000001 40.464999999999996 C 104.602 40.464999999999996 105.25000000000001 40.020999999999994 105.47500000000001 39.108999999999995 C 105.57900000000001 38.684 105.62200000000001 38.06399999999999 105.438 37.596 C 104.378 34.94499999999999 96.908 33.645999999999994 96 29.345 C 95.792 28.369999999999997 95.777 27.541999999999998 95.948 26.496 C 96.58 22.596999999999998 100.32199999999999 21.787 103.33399999999999 21.787 C 106.02799999999999 21.787 107.98899999999999 22.375 109.16499999999999 23.551 C 110.04199999999999 24.429 110.48599999999999 25.634 110.48599999999999 27.133 L 110.48599999999999 28.671 L 105.10799999999999 28.671 L 105.10799999999999 27.314 C 105.10799999999999 26.152 104.38699999999999 25.48 103.228 25.48 C 102.19999999999999 25.48 101.57799999999999 25.937 101.374 26.836000000000002 C 101.30779002627756 27.1912345396433 101.31664647985156 27.55639293315581 101.39999999999999 27.908 C 101.97599999999998 30.272000000000002 109.96799999999999 31.717000000000002 110.84299999999999 36.059 C 110.95599999999999 36.613 111.11099999999999 37.802 110.868 39.522 z M 130.786 37.585 C 130.794 37.985 130.755 38.784 130.733 38.989000000000004 C 130.405 42.501000000000005 127.893 44.286 123.286 44.286 C 118.661 44.286 116.147 42.501000000000005 115.821 38.989000000000004 C 115.78405443170578 38.52326273107181 115.76637267760319 38.0561975283615 115.768 37.589000000000006 L 115.768 22.331 L 121.27 22.331 L 121.27 38.07 C 121.264 38.422 121.282 38.682 121.317 38.863 C 121.38499999999999 39.213 121.73299999999999 40.349 123.28599999999999 40.349 C 124.83399999999999 40.349 125.18199999999999 39.211999999999996 125.25499999999998 38.867 C 125.28599999999999 38.681 125.30499999999998 38.407999999999994 125.30499999999998 38.068999999999996 L 125.30499999999998 22.331 L 130.78599999999997 22.331 L 130.78599999999997 37.585 z M 154.49099999999999 43.436 L 146.83499999999998 43.436 L 141.69599999999997 26.551 L 141.60999999999996 26.551 L 141.89499999999995 43.436 L 136.55899999999994 43.436 L 136.55899999999994 22.336 L 144.53599999999994 22.336 L 149.28599999999994 38.556 L 149.39699999999993 38.556 L 149.11599999999993 22.336 L 154.49099999999993 22.336 L 154.49099999999993 43.436 z" stroke-linecap="round" />
</g>
</svg>