<?xml version="1.0" encoding="UTF-8" standalone="no" ?>
<!DOCTYPE svg PUBLIC "-//W3C//DTD SVG 1.1//EN" "http://www.w3.org/Graphics/SVG/1.1/DTD/svg11.dtd">
<svg xmlns="http://www.w3.org/2000/svg" xmlns:xlink="http://www.w3.org/1999/xlink" version="1.1" width="1080" height="300" viewBox="0 0 1080 300" xml:space="preserve">
<desc>Created with Fabric.js 5.2.4</desc>
<defs>
</defs>
<rect x="0" y="0" width="100%" height="100%" fill="transparent"></rect>
<g transform="matrix(1 0 0 1 540 150)" id="f9162a92-71b3-49d2-a35e-dbc886d1ee28"  >
<rect style="stroke: none; stroke-width: 1; stroke-dasharray: none; stroke-linecap: butt; stroke-dashoffset: 0; stroke-linejoin: miter; stroke-miterlimit: 4; fill: rgb(255,255,255); fill-rule: nonzero; opacity: 1; visibility: hidden;" vector-effect="non-scaling-stroke"  x="-540" y="-150" rx="0" ry="0" width="1080" height="300" />
</g>
<g transform="matrix(0 0 0 0 0 0)" id="7659bb84-7f5a-4074-9a19-69c5e19a4caf"  >
</g>
<g transform="matrix(0 0 0 0 0 0)"  >
<g style=""   >
</g>
</g>
<g transform="matrix(10.25 0 0 10.25 540 150)"  >
<path style="stroke: none; stroke-width: 1; stroke-dasharray: none; stroke-linecap: butt; stroke-dashoffset: 0; stroke-linejoin: miter; stroke-miterlimit: 4; fill: rgb(0,0,0); fill-rule: nonzero; opacity: 1;" vector-effect="non-scaling-stroke"  transform=" translate(-68.89, -7.44)" d="M 69.2664185 6.969883 L 66.9282227 6.969883 L 66.9282227 12.3148175 L 65.34082040000001 12.3148175 L 65.34082040000001 6.969883 L 64.22537240000001 6.969883 L 64.22537240000001 5.6870995 L 65.34082040000001 5.6870995 L 65.34082040000001 4.7677689 C 65.34082040000001 4.0622406 65.57678230000002 3.5063668000000003 66.02728280000001 3.0573922 C 66.4777528 2.6084175999999997 67.0569459 2.3946191 67.76483160000001 2.3946191 C 67.95788580000001 2.3946191 68.12951670000001 2.3946191 68.27966310000001 2.4160005 C 68.42980960000001 2.4373781 68.5585327 2.4587594 68.66580200000001 2.5015184 L 68.66580200000001 3.8484422 C 68.62289430000001 3.8270608 68.51562500000001 3.7843019 68.38693240000002 3.7415429000000002 C 68.25820930000002 3.6987840000000003 68.10806280000003 3.6774026 67.93643190000002 3.6774026 C 67.61468510000002 3.6774026 67.35726930000001 3.7843019 67.18563840000002 3.976719 C 67.01403810000002 4.1905175 66.92822260000001 4.4898339 66.92822260000001 4.8746682 L 66.92822260000001 5.665718200000001 L 69.2664184 5.665718200000001 L 69.2664184 4.169136 L 70.83236690000001 3.6987838 L 70.83236690000001 5.665718 L 72.4197692 5.665718 L 72.4197692 6.9485053 L 70.83236690000001 6.9485053 L 70.83236690000001 10.0485648 C 70.83236690000001 10.4547805 70.89672850000001 10.754096899999999 71.04687500000001 10.9037551 C 71.19705200000001 11.074792799999999 71.43301390000002 11.1603107 71.75479130000001 11.1603107 C 71.8405762 11.1603107 71.94784550000001 11.1389312 72.07653810000001 11.096172300000001 C 72.20526120000001 11.0534134 72.31253050000001 11.010654400000002 72.41976930000001 10.946514100000002 L 72.41976930000001 12.229299500000002 C 72.31253050000001 12.2934379 72.16235350000001 12.336196900000001 71.92639160000002 12.378955800000002 C 71.69042970000001 12.421716600000002 71.47592160000002 12.443096100000002 71.23995970000001 12.443096100000002 C 70.57495120000002 12.443096100000002 70.08157350000002 12.272058400000002 69.75979610000002 11.908601700000002 C 69.43804930000002 11.566526400000003 69.26641840000002 11.032033900000002 69.26641840000002 10.326501800000003 L 69.26641840000002 6.969883 z M 58.8839722 9.0437202 C 58.8839722 9.727868999999998 59.0341187 10.2623634 59.355896 10.6258182 C 59.6776733 10.989272999999999 60.1281433 11.1816921 60.7073364 11.1816921 C 61.28652950000001 11.1816921 61.715545600000006 10.989272999999999 62.0158691 10.6258182 C 62.3161926 10.2623634 62.466339100000006 9.727869 62.466339100000006 9.000957399999999 C 62.466339100000006 8.2954291 62.31619260000001 7.760932799999999 61.99441530000001 7.397479899999999 C 61.69409180000001 7.034023199999998 61.265075700000004 6.862983599999999 60.70733640000001 6.862983599999999 C 60.12814330000001 6.862983599999999 59.69912720000001 7.055400699999999 59.37734980000001 7.440238799999999 C 59.0555725 7.8036919 58.8839722 8.3381882 58.8839722 9.0437202 M 57.2536621 9.1078568 C 57.2536621 8.0174904 57.5539856 7.140922600000001 58.1760864 6.4995308000000005 C 58.7981567 5.8581352 59.656219500000006 5.5374413 60.771698 5.5374413 C 61.8013611 5.5374413 62.6165161 5.836757700000001 63.1956787 6.456768100000001 C 63.7748718 7.0767823000000005 64.0751953 7.910591200000001 64.0751953 8.958198600000001 C 64.0751953 10.027185500000002 63.77487180000001 10.882375800000002 63.1528015 11.523767500000002 C 62.530700700000004 12.165159300000001 61.6940918 12.485855100000002 60.621521 12.485855100000002 C 59.5918579 12.485855100000002 58.776702900000004 12.186538700000002 58.1760864 11.587905900000003 C 57.5754395 10.9678936 57.2536621 10.1340847 57.2536621 9.1078568 M 53.7356567 7.440239 C 53.7356567 7.6540337 53.7999878 7.8464547 53.9501648 7.9747315 C 54.1003113 8.103008299999999 54.400634800000006 8.2526665 54.8940125 8.4450875 C 55.5161133 8.7016411 55.9665833 8.97958 56.2025452 9.2788945 C 56.459961 9.5995904 56.5886841 9.9630471 56.5886841 10.4120217 C 56.5886841 11.032034 56.3527222 11.545147 55.8593445 11.9086018 C 55.3873902 12.293438 54.7224121 12.4858551 53.907257099999995 12.4858551 C 53.628387499999995 12.4858551 53.328064 12.4430962 52.984863299999994 12.3789558 C 52.641632099999995 12.3148174 52.362762499999995 12.2292995 52.126800599999996 12.1224002 L 52.126800599999996 10.5830592 C 52.405670199999996 10.7754763 52.7274476 10.946513999999999 53.0491944 11.053413299999999 C 53.3709717 11.160310699999998 53.671295199999996 11.224450999999998 53.9501649 11.224450999999998 C 54.293396099999995 11.224450999999998 54.572235199999994 11.181692099999998 54.722412199999994 11.074792799999999 C 54.894012499999995 10.967893499999999 54.97982799999999 10.8182353 54.97982799999999 10.5830592 C 54.97982799999999 10.3692607 54.89401259999999 10.176843499999999 54.722412199999994 10.0485648 C 54.55081189999999 9.8989066 54.207580699999994 9.727868899999999 53.735656799999994 9.535451799999999 C 53.156463699999996 9.3002738 52.74887089999999 9.022338799999998 52.51290899999999 8.7230224 C 52.276947099999994 8.423706000000001 52.14825449999999 8.0388717 52.14825449999999 7.5685157 C 52.14825449999999 6.9698829 52.38421639999999 6.4781493 52.85614019999999 6.093315 C 53.32806399999999 5.7084769 53.95016489999999 5.5160598 54.70095829999999 5.5160598 C 54.93692019999999 5.5160598 55.19433599999999 5.5374412 55.473205599999986 5.6015815 C 55.752075199999986 5.6443404 56.00949099999998 5.7298583 56.20254519999999 5.7939986 L 56.20254519999999 7.2691993 C 55.988037099999985 7.1409225 55.752075199999986 7.012641800000001 55.473205599999986 6.9057426 C 55.194335999999986 6.7988472 54.915466299999984 6.7560844 54.65805059999999 6.7560844 C 54.35772709999999 6.7560844 54.12176519999999 6.8202247 53.971618699999986 6.927124 C 53.8214417 7.0767822 53.7356567 7.2264404 53.7356567 7.440239 M 46.2276611 9.0437202 C 46.2276611 9.727868999999998 46.3778381 10.2623634 46.6996154 10.6258182 C 47.0213622 10.989272999999999 47.471862699999996 11.1816921 48.0510558 11.1816921 C 48.6302184 11.1816921 49.059265 10.989272999999999 49.359558 10.6258182 C 49.6598815 10.2623634 49.8100585 9.727869 49.8100585 9.000957399999999 C 49.8100585 8.2954291 49.6598815 7.760932799999999 49.3381347 7.397479899999999 C 49.0378112 7.034023199999998 48.6087646 6.862983599999999 48.0510558 6.862983599999999 C 47.4718627 6.862983599999999 47.0428161 7.055400699999999 46.7210692 7.440238799999999 C 46.3778381 7.8036919 46.2276611 8.3381882 46.2276611 9.0437202 M 44.5973816 9.1078568 C 44.5973816 8.0174904 44.897705099999996 7.140922600000001 45.5197754 6.4995308000000005 C 46.1418762 5.8581352 46.999908500000004 5.5374413 48.115387 5.5374413 C 49.1450501 5.5374413 49.960205099999996 5.836757700000001 50.5393982 6.456768100000001 C 51.1185913 7.0767823000000005 51.4189148 7.910591200000001 51.4189148 8.958198600000001 C 51.4189148 10.027185500000002 51.118591300000006 10.882375800000002 50.4964905 11.523767500000002 C 49.8744202 12.165159300000001 49.0378113 12.485855100000002 47.9652405 12.485855100000002 C 46.9355774 12.485855100000002 46.1204224 12.186538700000002 45.5197754 11.587905900000003 C 44.8977051 10.9678936 44.5973816 10.1340847 44.5973816 9.1078568 M 43.9109192 5.5802002 C 44.039642300000004 5.5802002 44.1468811 5.5802002 44.2541504 5.6015816 C 44.3614197 5.6229592 44.4472046 5.6443405 44.5115662 5.6657181 L 44.5115662 7.2478218000000005 C 44.425750799999996 7.1836815000000005 44.318512 7.1409225 44.146881099999995 7.0767822 C 43.996734599999996 7.0126419 43.8036804 6.9912643 43.5677185 6.9912643 C 43.1815796 6.9912643 42.8598022 7.1623001 42.6023865 7.4829979 C 42.344970700000005 7.8036919 42.1948242 8.2954292 42.1948242 8.979579900000001 L 42.1948242 12.3148174 L 40.6288757 12.3148174 L 40.6288757 5.687099400000001 L 42.1948242 5.687099400000001 L 42.1948242 6.734706800000001 L 42.2162781 6.734706800000001 C 42.366424599999995 6.371250100000001 42.5809326 6.093315000000001 42.8598023 5.879516500000001 C 43.1601257 5.6870995 43.5033569 5.5802002 43.9109192 5.5802002 M 37.9259949 11.1816921 C 38.1619568 11.1816921 38.4193726 11.1175518 38.698242199999996 11.0106544 C 38.977111799999996 10.9037551 39.23452759999999 10.7540969 39.47048949999999 10.5830593 L 39.47048949999999 12.0368805 C 39.213073699999995 12.1865387 38.934204099999995 12.293438 38.612457299999996 12.357576400000001 C 38.290679999999995 12.421716700000001 37.9474488 12.464475700000001 37.5613404 12.464475700000001 C 36.5745545 12.464475700000001 35.7808839 12.165159300000001 35.1802369 11.545147000000002 C 34.5581361 10.925134700000001 34.257812599999994 10.134084800000002 34.257812599999994 9.193376600000002 C 34.257812599999994 8.124389700000002 34.579589899999995 7.247821900000003 35.201690799999994 6.563667400000002 C 35.82376109999999 5.879516700000002 36.703277699999994 5.537441400000001 37.861663899999996 5.537441400000001 C 38.1619569 5.537441400000001 38.44082649999999 5.580200300000001 38.74115 5.644340700000002 C 39.041473499999995 5.729858600000002 39.277435399999995 5.815376500000002 39.449035699999996 5.900898200000002 L 39.449035699999996 7.39748 C 39.2130738 7.2264403999999995 38.95565799999999 7.0767822 38.71969609999999 6.9912643 C 38.462280299999996 6.884365 38.20486459999999 6.8416061 37.9474488 6.8416061 C 37.3253785 6.8416061 36.831970299999995 7.0340232 36.4458619 7.4402389 C 36.059723 7.8464545999999995 35.8666688 8.3809471 35.8666688 9.0650978 C 35.8666688 9.727869 36.038299699999996 10.2623634 36.402954199999996 10.6258182 C 36.8105164 10.9892731 37.3039246 11.1816921 37.9259949 11.1816921 M 33.1852417 12.3148174 L 31.619293199999998 12.3148174 L 31.619293199999998 5.687099400000001 L 33.1852417 5.687099400000001 L 33.1852417 12.3148174 z M 31.4476929 3.7843018 C 31.4476929 3.5277443 31.5335083 3.3139496 31.7265625 3.14291 C 31.9196167 2.9718704000000002 32.1341248 2.8863525 32.3915405 2.8863525 C 32.6704101 2.8863525 32.906372 2.9718704000000002 33.0780029 3.1642913 C 33.2496032 3.3353270999999998 33.3568725 3.5491256 33.3568725 3.8056831 C 33.3568725 4.0622406 33.2710571 4.2760353 33.0780029 4.4470749 C 32.8849487 4.6181107 32.6704101 4.7036324 32.3915405 4.7036324 C 32.1341247 4.7036324 31.898162799999998 4.6181107 31.726562499999996 4.4470749000000005 C 31.5335083 4.2332764 31.4476929 4.0194778 31.4476929 3.7843018 M 30.1177063 3.0787697 L 30.1177063 12.3148174 L 28.508850099999997 12.3148174 L 28.508850099999997 5.0670853 L 28.487396199999996 5.0670853 L 25.612914999999994 12.3148175 L 24.540374699999994 12.3148175 L 21.601532 5.0670853 L 21.580078099999998 5.0670853 L 21.580078099999998 12.3148175 L 20.099944999999998 12.3148175 L 20.099944999999998 3.0787697 L 22.4166869 3.0787697 L 25.0766295 9.9202862 L 25.1195372 9.9202862 L 27.9296873 3.0787696999999996 L 30.1177063 3.0787696999999996 z M 116.1376343 8.3381882 C 116.1376343 7.8250733 116.0089112 7.440238999999999 115.7729492 7.1623000999999995 C 115.53698729999999 6.884365099999999 115.1937561 6.7560844 114.76474 6.7560844 C 114.4000549 6.7560844 114.0568543 6.884365 113.75653080000001 7.1623000999999995 C 113.4562073 7.4402389 113.26315310000001 7.825073199999999 113.15588380000001 8.3381882 L 116.1376343 8.3381882 z M 117.1243896 10.6471977 L 117.1243896 11.9299831 C 116.8669738 12.101020799999999 116.5237426 12.2292995 116.1161804 12.3361969 C 115.7085876 12.4430962 115.2581177 12.485855099999998 114.7861938 12.485855099999998 C 113.77798460000001 12.485855099999998 112.98428340000001 12.186538699999998 112.4265441 11.587905899999999 C 111.86880479999999 10.9892731 111.5899352 10.155464199999999 111.5899352 9.0864792 C 111.5899352 8.060249299999999 111.8902587 7.2050591 112.4909057 6.5422896999999995 C 113.0915222 5.8795166 113.8637695 5.5374412 114.7647399 5.5374412 C 115.68713369999999 5.5374412 116.39505 5.8153762 116.9098815 6.3712501 C 117.424713 6.927124 117.6821288 7.6967964 117.6821288 8.701641 L 117.6821288 9.449932 L 113.1344298 9.449932 C 113.1987914 10.112705100000001 113.4132994 10.583059200000001 113.7779845 10.8396148 C 114.142639 11.0961723 114.5931395 11.2458305 115.1723021 11.2458305 C 115.5369872 11.2458305 115.9016722 11.181692100000001 116.24487289999999 11.0747928 C 116.5666504 10.9892731 116.8669739 10.8396149 117.1243896 10.6471977 M 109.2946472 11.1816921 C 109.5306091 11.1816921 109.7880249 11.1175518 110.0668945 11.0106544 C 110.3457641 10.9037551 110.6031799 10.7540969 110.83914180000001 10.5830593 L 110.83914180000001 12.0368805 C 110.581726 12.1865387 110.30285640000001 12.293438 109.9810791 12.357576400000001 C 109.65930180000001 12.421716700000001 109.3161011 12.464475700000001 108.9299622 12.464475700000001 C 107.9432068 12.464475700000001 107.1495057 12.165159300000001 106.54885870000001 11.545147000000002 C 105.9267884 10.925134700000001 105.62646490000002 10.134084800000002 105.62646490000002 9.193376600000002 C 105.62646490000002 8.124389700000002 105.94824220000001 7.247821900000003 106.57031260000002 6.563667400000002 C 107.19241340000002 5.879516700000002 108.07193000000002 5.537441400000001 109.23028570000002 5.537441400000001 C 109.53060920000003 5.537441400000001 109.80947880000002 5.580200300000001 110.10980230000003 5.644340700000002 C 110.41012580000003 5.729858600000002 110.64608770000002 5.815376500000002 110.81768800000003 5.900898200000002 L 110.81768800000003 7.39748 C 110.58172610000003 7.2264403999999995 110.32431030000004 7.0767822 110.08834840000003 6.9912643 C 109.83093260000003 6.884365 109.57351690000003 6.8416061 109.31610110000003 6.8416061 C 108.69400030000003 6.8416061 108.20062260000003 7.0340232 107.81448370000003 7.4402389 C 107.42837530000003 7.8464545999999995 107.23532110000002 8.3809471 107.23532110000002 9.0650978 C 107.23532110000002 9.727869 107.40692140000002 10.2623634 107.77160650000002 10.6258182 C 108.1791687 10.9892731 108.6725464 11.1816921 109.2946472 11.1816921 M 102.4516602 9.1506157 C 101.7652283 9.2361355 101.27185060000001 9.364414199999999 100.992981 9.5568314 C 100.7141114 9.749248600000001 100.5639344 9.9844265 100.5639344 10.3265019 C 100.5639344 10.6044388 100.6497498 10.8182355 100.8213502 10.9892731 C 100.9929811 11.1603108 101.228943 11.2244511 101.5721437 11.2244511 C 102.0655519 11.2244511 102.4516603 11.0747929 102.7305299 10.7754765 C 103.00939949999999 10.4761601 103.15954599999999 10.1127053 103.15954599999999 9.6423493 L 103.15954599999999 9.0650978 L 102.4516602 9.1506157 z M 104.6611633 8.1671486 L 104.6611633 10.754097000000002 C 104.6611633 11.3741093 104.7040405 11.908601800000001 104.7684021 12.3148174 L 103.2024536 12.3148174 L 103.1166687 11.6092872 L 103.09521480000001 11.6092872 C 102.90213010000001 11.865842800000001 102.6447143 12.0796413 102.3229675 12.2079181 C 102.00119020000001 12.3575763 101.59359740000001 12.4217166 101.12167360000001 12.4217166 C 100.54248050000001 12.4217166 100.04910280000001 12.2506789 99.6415405 11.8872222 C 99.2554016 11.5237674 99.04089350000001 11.0534133 99.04089350000001 10.4547805 C 99.04089350000001 9.8133887 99.29830930000001 9.3002738 99.79168700000001 8.9154395 C 100.30651850000001 8.5306052 101.10021970000001 8.2740477 102.1727905 8.1243895 L 103.1166687 8.0174902 C 103.1166687 7.589896999999999 103.0093994 7.269199199999999 102.8163452 7.076782 C 102.6018066 6.8843649 102.3015137 6.798846999999999 101.8939209 6.798846999999999 C 101.4434509 6.798846999999999 101.0144348 6.8629834999999995 100.6282959 6.9912640999999995 C 100.2207336 7.1195409 99.92041019999999 7.2905805 99.7059021 7.461616299999999 L 99.7059021 6.0291748 C 99.9204102 5.9222755 100.26361080000001 5.7939986999999995 100.7141113 5.6870994999999995 C 101.1645813 5.580200199999999 101.6365051 5.516059899999999 102.1513366 5.516059899999999 C 102.9879455 5.516059899999999 103.6100463 5.7512398 104.03906239999999 6.200214399999999 C 104.4466248 6.6705666 104.6611633 7.3119583 104.6611633 8.1671486 M 98.0112305 2.394619 C 98.2042847 2.394619 98.3759156 2.394619 98.526062 2.4160004 C 98.676239 2.4373780000000003 98.80493159999999 2.4587593 98.9122009 2.5015183000000003 L 98.9122009 3.8484421 C 98.8692932 3.8270607 98.7620239 3.7843018 98.63333130000001 3.7415428000000004 C 98.5046082 3.6987839000000005 98.35446170000002 3.6774025000000004 98.1828308 3.6774025000000004 C 97.861084 3.6774025000000004 97.6036682 3.7843018 97.4320373 3.9767189000000003 C 97.26043700000001 4.1905174 97.1746215 4.4898338 97.1746215 4.8746681 L 97.1746215 5.6657181 L 98.6547851 5.6657181 L 98.6547851 6.9485054 L 97.1746215 6.9485054 L 97.1746215 12.293438 L 95.5872192 12.293438 L 95.5872192 6.9485054 L 94.4717712 6.9485054 L 94.4717712 5.6657181 L 95.5872192 5.6657181 L 95.5872192 4.7463913 C 95.5872192 4.0408592 95.82318110000001 3.4849854000000002 96.2736816 3.0360107000000003 C 96.7241516 2.6084175 97.3033447 2.394619 98.0112305 2.394619 M 93.3992004 5.5802002 C 93.52789299999999 5.5802002 93.6351623 5.5802002 93.7424011 5.6015816 C 93.8496704 5.6229592 93.9354858 5.6443405 93.9998169 5.6657181 L 93.9998169 7.2478218000000005 C 93.914032 7.1836815000000005 93.8067627 7.1409225 93.6351624 7.0767822 C 93.4849854 7.0126419 93.2919312 6.9912643 93.0559693 6.9912643 C 92.6698609 6.9912643 92.3480836 7.1623001 92.0906678 7.4829979 C 91.833252 7.8036919 91.683075 8.2954292 91.683075 8.979579900000001 L 91.683075 12.3148174 L 90.1171265 12.3148174 L 90.1171265 5.687099400000001 L 91.683075 5.687099400000001 L 91.683075 6.734706800000001 L 91.7045289 6.734706800000001 C 91.8547059 6.371250100000001 92.069214 6.093315000000001 92.3480836 5.879516500000001 C 92.648407 5.6870995 92.9916077 5.5802002 93.3992004 5.5802002 M 88.701355 5.6870995 L 88.701355 12.3148175 L 87.11395270000001 12.3148175 L 87.11395270000001 11.438247800000001 L 87.09249880000002 11.438247800000001 C 86.87799070000001 11.737564200000001 86.59912110000002 11.9727422 86.25588990000001 12.1437799 C 85.91265870000001 12.3148176 85.52655030000001 12.4003374 85.09753420000001 12.4003374 C 84.32528690000001 12.4003374 83.74609380000001 12.1865389 83.33850100000001 11.737564299999999 C 82.93093870000001 11.309971099999999 82.7378845 10.6258185 82.7378845 9.7064898 L 82.7378845 5.6870995 L 84.3252868 5.6870995 L 84.3252868 9.5354519 C 84.3252868 10.0913239 84.4325256 10.518919 84.6684875 10.7968559 C 84.8829956 11.0747928 85.22622679999999 11.224451 85.6766967 11.224451 C 86.1271972 11.224451 86.4703979 11.0747928 86.74926749999999 10.7540969 C 87.00668329999999 10.433401 87.15686029999999 10.0271854 87.15686029999999 9.5354518 L 87.15686029999999 5.6870995 L 88.701355 5.6870995 z M 77.8040771 5.4091606 C 77.8040771 5.7512398 77.9327697 6.0291748 78.1687316 6.2643509 C 78.40469350000001 6.4995308000000005 78.8337401 6.7774658 79.4343566 7.0767822 C 80.2495116 7.504375400000001 80.8501586 7.9319725000000005 81.2148131 8.359565700000001 C 81.5794982 8.787162700000001 81.7510985 9.2788944 81.7510985 9.8347683 C 81.7510985 10.6471977 81.4508055 11.2885895 80.8501586 11.7589455 C 80.2495116 12.2292996 79.4987182 12.4644757 78.5763244 12.4644757 C 78.04003900000001 12.4644757 77.5680847 12.4003373 77.1176147 12.293438 C 76.6885986 12.1865387 76.3453674 12.0582619 76.1308593 11.9299832 L 76.1308593 10.176843700000001 C 76.40972889999999 10.4334012 76.7743835 10.6471978 77.224884 10.8182355 C 77.675354 10.9892732 78.1043701 11.074793 78.5334167 11.074793 C 79.0053405 11.074793 79.3700256 10.9892732 79.6488647 10.7968561 C 79.9277343 10.6258184 80.05645750000001 10.3478815 80.05645750000001 9.9844267 C 80.05645750000001 9.6637308 79.9277344 9.3857939 79.6488647 9.107857000000001 C 79.3914489 8.851299500000001 78.8980712 8.530605600000001 78.1901855 8.167148800000001 C 77.48229979999999 7.803692000000002 76.9674682 7.418857800000001 76.624237 6.991264600000001 C 76.28100579999999 6.5636676000000005 76.1094055 6.071934000000001 76.1094055 5.494682600000001 C 76.1094055 4.725010200000001 76.409729 4.104999800000001 77.010376 3.613266300000001 C 77.6109925 3.1215289000000013 78.36178589999999 2.886352800000001 79.28421019999999 2.886352800000001 C 79.69177249999998 2.886352800000001 80.0993652 2.929111700000001 80.48547359999999 2.9932521000000007 C 80.8716125 3.078770000000001 81.15048209999999 3.142910300000001 81.3435363 3.2284282000000006 L 81.3435363 4.917427400000001 C 81.08612049999999 4.725010300000001 80.785797 4.553974500000001 80.421112 4.447075200000001 C 80.0564575 4.340175900000001 79.69177239999999 4.276035600000001 79.32711789999999 4.276035600000001 C 78.87661739999999 4.276035600000001 78.51196289999999 4.382934900000001 78.23309319999998 4.575352000000001 C 77.9327698 4.8105316 77.8040771 5.0884666 77.8040771 5.4091606" stroke-linecap="round" />
</g>
</svg>