<?xml version="1.0" encoding="UTF-8" standalone="no" ?>
<!DOCTYPE svg PUBLIC "-//W3C//DTD SVG 1.1//EN" "http://www.w3.org/Graphics/SVG/1.1/DTD/svg11.dtd">
<svg xmlns="http://www.w3.org/2000/svg" xmlns:xlink="http://www.w3.org/1999/xlink" version="1.1" width="1080" height="300" viewBox="0 0 1080 300" xml:space="preserve">
<desc>Created with Fabric.js 5.2.4</desc>
<defs>
</defs>
<g transform="matrix(1 0 0 1 540 150)" id="f9162a92-71b3-49d2-a35e-dbc886d1ee28"  >
<rect style="stroke: none; stroke-width: 1; stroke-dasharray: none; stroke-linecap: butt; stroke-dashoffset: 0; stroke-linejoin: miter; stroke-miterlimit: 4; fill: rgb(255,255,255); fill-rule: nonzero; opacity: 1; visibility: hidden;" vector-effect="non-scaling-stroke"  x="-540" y="-150" rx="0" ry="0" width="1080" height="300" />
</g>
<g transform="matrix(Infinity NaN NaN Infinity 0 0)" id="7659bb84-7f5a-4074-9a19-69c5e19a4caf"  >
</g>
<g transform="matrix(1.93 0 0 1.93 540 150)" id="2dab33cb-c330-4099-ad20-a8f8696adb61"  >
<path style="stroke: rgb(0,0,0); stroke-width: 0; stroke-dasharray: none; stroke-linecap: butt; stroke-dashoffset: 0; stroke-linejoin: miter; stroke-miterlimit: 4; fill: rgb(0,0,0); fill-rule: nonzero; opacity: 1;" vector-effect="non-scaling-stroke"  transform=" translate(-268.55, -53.3)" d="M 514.3 13.5 C 514.3 7.4 519.1999999999999 2.4000000000000004 525.1999999999999 2.4000000000000004 C 528.0999999999999 2.4000000000000004 530.8 3.6000000000000005 532.9 5.6000000000000005 C 535 7.700000000000001 536.1 10.5 536.1 13.4 C 536.1 16.3 535 19.1 532.9 21.2 C 530.8 23.299999999999997 528.1 24.5 525.1999999999999 24.5 C 519.1999999999999 24.5 514.3 19.6 514.3 13.5 M 513.4 13.5 C 513.4 20.1 518.6999999999999 25.5 525.3 25.5 C 528.5 25.5 531.4 24.3 533.5999999999999 22 C 535.7999999999998 19.7 537.0999999999999 16.7 537.0999999999999 13.5 C 537.0999999999999 10.3 535.8999999999999 7.3 533.5999999999999 5 C 531.3 2.7 528.3999999999999 1.5 525.3 1.5 C 518.6999999999999 1.5 513.4 6.9 513.4 13.5 M 520.8 20.6 L 522.5 20.6 L 522.5 15 L 526.3 15 C 526.9 15 527.4 15 527.8 15.2 C 528.3 15.5 528.5999999999999 16.099999999999998 528.6999999999999 16.9 L 528.9 19.099999999999998 L 528.9 20.099999999999998 C 529 20.299999999999997 529 20.4 529.1 20.499999999999996 L 531.2 20.499999999999996 L 531.2 20.199999999999996 C 530.9000000000001 20.099999999999994 530.8000000000001 19.799999999999997 530.7 19.399999999999995 C 530.6 19.199999999999996 530.6 18.799999999999994 530.6 18.299999999999994 L 530.5 16.599999999999994 C 530.5 15.799999999999994 530.3 15.299999999999994 530.1 14.999999999999995 C 529.8000000000001 14.699999999999994 529.4 14.399999999999995 528.9 14.199999999999994 C 529.5 13.899999999999993 529.9 13.499999999999995 530.1999999999999 12.999999999999995 C 530.4999999999999 12.499999999999995 530.5999999999999 11.899999999999995 530.5999999999999 11.099999999999994 C 530.5999999999999 9.599999999999994 529.9999999999999 8.599999999999994 528.8999999999999 7.999999999999995 C 528.2999999999998 7.699999999999995 527.4999999999999 7.599999999999994 526.5999999999999 7.599999999999994 L 520.8999999999999 7.599999999999994 z M 522.4 13.500000000000002 L 522.4 9 L 526.4 9 C 527 9 527.5 9.1 527.8 9.3 C 528.4 9.600000000000001 528.6999999999999 10.3 528.6999999999999 11.200000000000001 C 528.6999999999999 12.100000000000001 528.4999999999999 12.700000000000001 527.9999999999999 13.000000000000002 C 527.5999999999999 13.300000000000002 526.9999999999999 13.500000000000002 526.1999999999999 13.500000000000002 z M 48.6 30 L 0 106.4 L 33.2 106.4 L 80 33.400000000000006 z M 248.7 28.3 L 248.7 0 L 154.2 0 C 141.29999999999998 0.8 135.7 7 131.5 11.4 C 127 16.1 124.5 26 124.5 26 L 124.5 0.2 L 74.2 0.2 C 70.4 0.2 66.8 1.8 64.10000000000001 5.6000000000000005 C 61.30000000000001 9.3 49.80000000000001 28.3 49.80000000000001 28.3 z M 505.7 28.3 L 505.7 0 L 404.6 0 C 391.8 0.8 386.1 7 381.90000000000003 11.4 C 377.40000000000003 16.1 374.90000000000003 26 374.90000000000003 26 L 374.90000000000003 28.3 z M 281.9 0.1 L 253.59999999999997 0.1 L 253.59999999999997 28.3 L 281.9 28.3 z M 374.59999999999997 0.1 L 346.4 0.1 L 346.4 28.3 L 374.59999999999997 28.3 z M 374.59999999999997 38.5 L 346.79999999999995 36.8 L 346.79999999999995 69.5 C 346.79999999999995 69.5 346.69999999999993 78.9 337.59999999999997 78.9 L 290 78.9 C 290 78.9 281.9 78.2 281.9 69.60000000000001 L 281.9 32.4 L 253.89999999999998 30.4 L 253.89999999999998 80.5 C 258.4 104.5 280.09999999999997 106.4 280.09999999999997 106.4 C 280.09999999999997 106.4 282.29999999999995 106.5 282.7 106.60000000000001 L 347.2 106.60000000000001 C 347.2 106.60000000000001 374.8 104.4 374.8 77.80000000000001 z M 95.7 106.4 L 227.89999999999998 106.4 C 250.89999999999998 101.80000000000001 253.29999999999998 80.80000000000001 253.29999999999998 80.80000000000001 C 254.39999999999998 74.60000000000001 253.79999999999998 69.50000000000001 253.79999999999998 69.50000000000001 C 253.1 65.30000000000001 245.1 46.70000000000002 227.89999999999998 45.100000000000016 C 217.59999999999997 44.100000000000016 125.89999999999998 36.80000000000001 125.89999999999998 36.80000000000001 C 127.69999999999997 46.000000000000014 131.79999999999998 50.70000000000001 134.59999999999997 53.30000000000001 C 140.99999999999997 59.40000000000001 151.09999999999997 61.20000000000001 151.09999999999997 61.20000000000001 L 221.79999999999995 67.10000000000001 C 223.99999999999994 67.2 228.09999999999997 67.80000000000001 227.99999999999994 73.2 C 227.99999999999994 73.9 227.39999999999995 78.60000000000001 222.19999999999993 78.60000000000001 L 123.29999999999993 78.60000000000001 L 123.29999999999993 36.60000000000001 L 95.79999999999993 34.60000000000001 C 95.69999999999993 34.60000000000001 95.69999999999993 106.4 95.69999999999993 106.4 z M 374.8 106.60000000000001 L 476 106.60000000000001 C 501.4 105.10000000000001 505 81 505 81 C 505.9 74.7 505.2 69.5 505.2 69.5 C 504.5 63.8 496.4 46.6 479.09999999999997 44.9 C 468.9 43.9 376.59999999999997 38.5 376.59999999999997 38.5 C 379.29999999999995 48 382.99999999999994 50.9 385.79999999999995 53.5 C 392.19999999999993 59.7 401.69999999999993 61.1 401.69999999999993 61.1 C 404.0999999999999 61.300000000000004 473.0999999999999 67.1 473.0999999999999 67.1 C 475.2999999999999 67.19999999999999 479.7999999999999 67.39999999999999 479.7999999999999 72.8 C 479.7999999999999 74.39999999999999 478.9999999999999 76.1 477.9999999999999 77 C 477.9999999999999 77 475.5999999999999 78.3 473.2999999999999 78.3 L 375.0999999999999 78.3 z" stroke-linecap="round" />
</g>
</svg>