<?xml version="1.0" encoding="UTF-8" standalone="no" ?>
<!DOCTYPE svg PUBLIC "-//W3C//DTD SVG 1.1//EN" "http://www.w3.org/Graphics/SVG/1.1/DTD/svg11.dtd">
<svg xmlns="http://www.w3.org/2000/svg" xmlns:xlink="http://www.w3.org/1999/xlink" version="1.1" width="1080" height="300" viewBox="0 0 1080 300" xml:space="preserve">
<desc>Created with Fabric.js 5.2.4</desc>
<defs>
</defs>
<rect x="0" y="0" width="100%" height="100%" fill="transparent"></rect>
<g transform="matrix(0 0 0 0 0 0)" id="c2b8f9bf-11c4-4b8e-bb8a-98fbc85f1334"  >
</g>
<g transform="matrix(1 0 0 1 540 150)" id="1c507ba8-4382-4383-a0b1-561abf130728"  >
<rect style="stroke: none; stroke-width: 1; stroke-dasharray: none; stroke-linecap: butt; stroke-dashoffset: 0; stroke-linejoin: miter; stroke-miterlimit: 4; fill: rgb(255,255,255); fill-rule: nonzero; opacity: 1; visibility: hidden;" vector-effect="non-scaling-stroke"  x="-540" y="-150" rx="0" ry="0" width="1080" height="300" />
</g>
<g transform="matrix(13.9 0 0 13.9 540 150)"  >
<path style="stroke: rgb(0,0,0); stroke-width: 0; stroke-dasharray: none; stroke-linecap: butt; stroke-dashoffset: 0; stroke-linejoin: miter; stroke-miterlimit: 4; fill: rgb(0,0,0); fill-rule: nonzero; opacity: 1;" vector-effect="non-scaling-stroke"  transform=" translate(-20.55, -9.99)" d="M 11.58 13.979 C 11.58514078484237 14.4420335229758 11.40347115120896 14.887602506260713 11.076036828734837 15.215036828734835 C 10.748602506260713 15.542471151208959 10.3030335229758 15.724140784842369 9.84 15.719 C 9.375803927304627 15.72806411078007 8.927942152756529 15.547655367814544 8.599643392470991 15.219356607529008 C 8.271344632185455 14.89105784724347 8.09093588921993 14.443196072695372 8.1 13.979 L 8.1 7.978999999999999 C 8.07 7.384999999999999 8.368 7.065999999999999 8.459999999999999 6.959999999999999 L 6.12 6.959999999999999 C 6.243 7.065999999999999 6.54 7.405999999999999 6.54 7.979999999999999 L 6.54 13.620999999999999 C 6.543 15.450999999999999 8.017 16.753999999999998 9.84 16.741 C 11.652 16.754 13.125 15.451 13.14 13.620999999999999 L 13.14 7.979 C 13.128 7.384 13.425 7.066 13.56 6.959 L 11.22 6.959 C 11.3 7.0649999999999995 11.597000000000001 7.404999999999999 11.58 7.978999999999999 L 11.58 13.979 z M 2.34 16.62 C 2.2479999999999998 16.501 1.9499999999999997 16.182000000000002 1.98 15.599 L 1.98 11.759 L 4.02 11.759 C 4.393999999999999 11.762 4.712999999999999 11.932 4.92 12.119 L 4.86 10.8 L 1.98 10.8 L 1.98 7.92 L 4.74 7.92 C 5.1160000000000005 7.895 5.4350000000000005 8.065 5.640000000000001 8.28 L 5.580000000000001 6.959999999999999 L 0 6.959999999999999 C 0.123 7.065999999999999 0.42 7.405999999999999 0.42 7.979999999999999 L 0.42 15.599999999999998 C 0.42 16.182999999999996 0.123 16.500999999999998 0 16.621 L 2.34 16.621 z M 13.74 19.979 C 13.85 19.901 15.040000000000001 18.561999999999998 15.06 17.639 L 15.06 7.978999999999999 C 15.051412619798858 7.598663944132966 14.901713047479527 7.235107839928874 14.64 6.959 L 16.98 6.959 C 16.868000000000002 7.0649999999999995 16.57 7.3839999999999995 16.56 7.978999999999999 L 16.56 16.319 C 16.57 18.349999999999998 15.634999999999998 19.922 13.739999999999998 19.979 z M 19.92 15.6 C 19.928 16.183 20.225 16.501 20.340000000000003 16.621 L 18 16.621 C 18.1 16.502 18.397 16.162 18.42 15.540999999999999 L 18.42 7.979 C 18.40892471761111 7.599485853906842 18.25955926063373 7.237096804716483 18 6.96 L 20.34 6.96 C 20.225 7.066 19.928 7.385 19.919999999999998 7.98 L 19.919999999999998 15.600000000000001 z M 23.04 6.96 L 25.38 6.96 M 17.4 1.02 C 17.973 0.267 18.637 0.028 19.38 0 C 20.807 0.028 21.951 1.172 21.96 2.58 C 21.951 3.9930000000000003 20.807000000000002 5.1370000000000005 19.380000000000003 5.16 C 18.846850879577143 5.132699178127693 18.329952083172927 4.967291563278343 17.880000000000003 4.68 C 17.377000000000002 4.362 16.910000000000004 3.7089999999999996 16.680000000000003 3.42 C 16.431036393963407 3.1127643727521526 16.055424651472098 2.9360059056974195 15.660000000000004 2.94 C 14.89784704523351 2.940000000000001 14.280000000000005 3.5578470452335056 14.280000000000005 4.32 C 14.289000000000005 5.059 14.901000000000005 5.671 15.660000000000004 5.7 C 16.312000000000005 5.671 17.037000000000003 5.0680000000000005 17.220000000000002 4.74 L 17.220000000000002 5.7 C 16.818839628268893 6.133719085512453 16.250629012827968 6.374115884352845 15.660000000000002 6.359999999999999 C 14.519000000000002 6.362 13.598000000000003 5.441000000000001 13.620000000000001 4.32 C 13.598 3.1670000000000003 14.519000000000002 2.245 15.66 2.22 C 16.263 2.245 16.807 2.507 17.16 2.9400000000000004 C 17.505 3.369 17.935 3.9350000000000005 18.36 4.140000000000001 C 18.654 4.329000000000001 19.011 4.446000000000001 19.38 4.44 C 19.875593552830026 4.448188911209041 20.35331156301753 4.254994216266421 20.703891189790795 3.9046030731634644 C 21.05447081656406 3.554211930060508 21.247922390252377 3.076597884989602 21.24 2.581 C 21.259999999999998 1.5550000000000004 20.424999999999997 0.7210000000000003 19.38 0.7210000000000003 C 18.496 0.7210000000000003 17.802999999999997 1.2240000000000002 17.279999999999998 2.282 L 17.4 1.02 z M 39.18 13.979 C 39.174 14.943 38.387 15.729999999999999 37.44 15.719 C 36.46305724180524 15.73404616919629 35.65806966590002 14.955891512487913 35.64 13.979 L 35.64 7.978999999999999 C 35.652 7.3839999999999995 35.95 7.065999999999999 36.06 6.959 L 33.72 6.959 C 33.824 7.0649999999999995 34.122 7.404999999999999 34.14 7.978999999999999 L 34.14 13.62 C 34.125 15.45 35.598 16.753 37.44 16.74 C 39.233 16.753 40.707 15.45 40.68 13.619999999999997 L 40.68 7.979 C 40.71 7.384 41.007 7.066 41.1 6.959 L 38.760000000000005 6.959 C 38.882000000000005 7.0649999999999995 39.179 7.404999999999999 39.18000000000001 7.978999999999999 L 39.18000000000001 13.979 z M 20.82 8.34 C 21.287 7.81 21.755 7.895 22.14 7.92 L 23.46 7.92 L 23.46 15.54 C 23.455000000000002 16.160999999999998 23.158 16.500999999999998 23.04 16.619999999999997 L 25.38 16.619999999999997 C 25.282999999999998 16.500999999999998 24.985 16.182 24.959999999999997 15.598999999999997 L 24.959999999999997 7.92 L 26.22 7.92 C 26.621 7.895 26.961 7.853 27.18 8.34 L 27.6 6.96 L 21.240000000000002 6.96 L 20.82 8.34 M 32.52 8.34 L 32.52 6.96 C 31.742000000000004 6.747 28.257000000000005 6.1739999999999995 27.6 8.879999999999999 C 27.429000000000002 9.85 27.853 11.104 29.1 11.759999999999998 C 29.915000000000003 12.144999999999998 30.977 12.739999999999998 31.32 12.959999999999997 C 31.87 13.291999999999998 31.97 13.805999999999997 31.8 14.459999999999997 C 31.636 15.183999999999997 29.872 16.755999999999997 27.6 14.759999999999998 L 28.080000000000002 16.439999999999998 C 29.490000000000002 16.990999999999996 31.764000000000003 16.778 32.82 15.599999999999998 C 33.846000000000004 14.439999999999998 33.676 12.718999999999998 32.58 11.999999999999998 C 31.874 11.517999999999999 30.084999999999997 10.529999999999998 29.759999999999998 10.379999999999999 C 29.488999999999997 10.232999999999999 28.491 9.084999999999999 29.58 8.04 C 30.653 7.009999999999999 32.187999999999995 7.618999999999999 32.519999999999996 8.34 z" stroke-linecap="round" />
</g>
</svg>