<?xml version="1.0" encoding="UTF-8" standalone="no" ?>
<!DOCTYPE svg PUBLIC "-//W3C//DTD SVG 1.1//EN" "http://www.w3.org/Graphics/SVG/1.1/DTD/svg11.dtd">
<svg xmlns="http://www.w3.org/2000/svg" xmlns:xlink="http://www.w3.org/1999/xlink" version="1.1" width="1080" height="300" viewBox="0 0 1080 300" xml:space="preserve">
<desc>Created with Fabric.js 5.2.4</desc>
<defs>
</defs>
<g transform="matrix(1 0 0 1 540 150)" id="1c507ba8-4382-4383-a0b1-561abf130728"  >
<rect style="stroke: none; stroke-width: 1; stroke-dasharray: none; stroke-linecap: butt; stroke-dashoffset: 0; stroke-linejoin: miter; stroke-miterlimit: 4; fill: rgb(255,255,255); fill-rule: nonzero; opacity: 1; visibility: hidden;" vector-effect="non-scaling-stroke"  x="-540" y="-150" rx="0" ry="0" width="1080" height="300" />
</g>
<g transform="matrix(Infinity NaN NaN Infinity 0 0)" id="c2b8f9bf-11c4-4b8e-bb8a-98fbc85f1334"  >
</g>
<g transform="matrix(0.63 0 0 0.63 540 150)" id="0d49cb9b-3963-4d56-82e3-3e7b98d6b375"  >
<path style="stroke: rgb(0,0,0); stroke-width: 0; stroke-dasharray: none; stroke-linecap: butt; stroke-dashoffset: 0; stroke-linejoin: miter; stroke-miterlimit: 4; fill: rgb(0,0,0); fill-rule: nonzero; opacity: 1;" vector-effect="non-scaling-stroke"  transform=" translate(-500, -200)" d="M 0 0 L 0 27.367 L 194.648 27.367 L 194.648 0 L 0 0 z M 222.226 0 L 222.226 27.367 L 499.609 27.367 C 499.609 27.367 471.276 0 433.75 0 L 222.226 0 z M 554.023 0 L 554.023 27.367 L 721.835 27.367 L 711.875 0 L 554.023 0 z M 842.148 0 L 832.187 27.367 L 998.476 27.367 L 998.476 0 L 842.148 0 z M 0 53.222 L 0 80.589 L 194.648 80.589 L 194.648 53.222 L 0 53.222 z M 222.226 53.261 L 222.226 80.59 L 531.796 80.59 C 531.796 80.59 528.181 59.527 521.874 53.261 L 222.226 53.261 z M 554.023 53.261 L 554.023 80.59 L 740.234 80.59 L 731.015 53.261 L 554.023 53.261 z M 822.226 53.261 L 813.007 80.59 L 998.4759999999999 80.59 L 998.4759999999999 53.261 L 822.2259999999999 53.261 z M 55.937 106.444 L 55.937 133.85 L 140.23399999999998 133.85 L 140.23399999999998 106.44399999999999 L 55.937 106.44399999999999 z M 278.164 106.444 L 278.164 133.85 L 362.461 133.85 L 362.461 106.44399999999999 L 278.164 106.44399999999999 z M 444.453 106.444 L 444.453 133.85 L 528.75 133.85 C 528.75 133.85 534.102 119.377 534.102 106.44399999999999 L 444.453 106.44399999999999 z M 609.961 106.444 L 609.961 133.85 L 759.414 133.85 L 749.453 106.44399999999999 L 609.961 106.44399999999999 z M 803.867 106.444 L 793.867 133.85 L 944.0619999999999 133.85 L 944.0619999999999 106.44399999999999 L 803.867 106.44399999999999 z M 55.93700000000001 159.70600000000002 L 55.93700000000001 187.073 L 140.234 187.073 L 140.234 159.70600000000002 L 55.937 159.70600000000002 z M 278.164 159.70600000000002 L 278.164 187.073 L 493.476 187.073 C 493.476 187.073 511.488 173.031 517.226 159.70600000000002 L 278.164 159.70600000000002 z M 609.961 159.70600000000002 L 609.961 187.073 L 694.258 187.073 L 694.258 171.839 L 699.61 187.073 L 854.024 187.073 L 859.766 171.839 L 859.766 187.073 L 944.063 187.073 L 944.063 159.70600000000002 L 785.82 159.70600000000002 L 777.422 182.88600000000002 L 768.984 159.70600000000002 L 609.961 159.70600000000002 z M 55.937 212.928 L 55.937 240.295 L 140.23399999999998 240.295 L 140.23399999999998 212.928 L 55.937 212.928 z M 278.164 212.928 L 278.164 240.295 L 517.226 240.295 C 511.487 227.01399999999998 493.476 212.928 493.476 212.928 L 278.164 212.928 z M 609.961 212.928 L 609.961 240.295 L 694.258 240.295 L 694.258 212.928 L 609.961 212.928 z M 709.57 212.928 L 719.7650000000001 240.295 L 835.546 240.295 L 845.234 212.928 L 709.57 212.928 z M 859.7650000000001 212.928 L 859.7650000000001 240.295 L 944.0620000000001 240.295 L 944.0620000000001 212.928 L 859.7650000000001 212.928 z M 55.937 266.15 L 55.937 293.51599999999996 L 140.23399999999998 293.51599999999996 L 140.23399999999998 266.15 L 55.937 266.15 z M 278.164 266.15 L 278.164 293.51599999999996 L 362.461 293.51599999999996 L 362.461 266.15 L 278.164 266.15 z M 444.453 266.15 L 444.453 293.51599999999996 L 534.101 293.51599999999996 C 534.101 280.60099999999994 528.749 266.15 528.749 266.15 L 444.45300000000003 266.15 z M 609.961 266.15 L 609.961 293.51599999999996 L 694.258 293.51599999999996 L 694.258 266.15 L 609.961 266.15 z M 728.711 266.15 L 738.594 293.51599999999996 L 816.211 293.51599999999996 L 826.172 266.15 L 728.711 266.15 z M 859.765 266.15 L 859.765 293.51599999999996 L 944.062 293.51599999999996 L 944.062 266.15 L 859.765 266.15 z M 1.523 319.372 L 1.523 346.778 L 196.171 346.778 L 196.171 319.372 L 1.523 319.372 z M 222.226 319.372 L 222.226 346.778 L 521.874 346.778 C 528.181 340.50300000000004 531.796 319.372 531.796 319.372 L 222.22600000000006 319.372 z M 555.547 319.372 L 555.547 346.778 L 694.258 346.778 L 694.258 319.372 L 555.547 319.372 z M 747.89 319.372 L 758.0459999999999 346.778 L 797.5379999999999 346.778 L 807.0689999999998 319.372 L 747.89 319.372 z M 859.765 319.372 L 859.765 346.778 L 1000 346.778 L 1000 319.372 L 859.765 319.372 z M 1.523 372.633 L 1.523 400 L 196.171 400 L 196.171 372.633 L 1.523 372.633 z M 222.226 372.633 L 222.226 399.96099999999996 L 433.75 399.96099999999996 C 471.276 399.96099999999996 499.609 372.633 499.609 372.633 L 222.226 372.633 z M 555.547 372.633 L 555.547 400 L 694.258 400 L 694.258 372.633 L 555.547 372.633 z M 767.148 372.633 L 776.914 399.923 L 778.5939999999999 399.961 L 788.516 372.63300000000004 L 767.1479999999999 372.63300000000004 z M 859.765 372.633 L 859.765 400 L 1000 400 L 1000 372.633 L 859.765 372.633 z" stroke-linecap="round" />
</g>
</svg>