<?xml version="1.0" encoding="UTF-8" standalone="no" ?>
<!DOCTYPE svg PUBLIC "-//W3C//DTD SVG 1.1//EN" "http://www.w3.org/Graphics/SVG/1.1/DTD/svg11.dtd">
<svg xmlns="http://www.w3.org/2000/svg" xmlns:xlink="http://www.w3.org/1999/xlink" version="1.1" width="1080" height="300" viewBox="0 0 1080 300" xml:space="preserve">
<desc>Created with Fabric.js 5.2.4</desc>
<defs>
</defs>
<rect x="0" y="0" width="100%" height="100%" fill="transparent"></rect>
<g transform="matrix(0 0 0 0 0 0)" id="7659bb84-7f5a-4074-9a19-69c5e19a4caf"  >
</g>
<g transform="matrix(1 0 0 1 540 150)" id="f9162a92-71b3-49d2-a35e-dbc886d1ee28"  >
<rect style="stroke: none; stroke-width: 1; stroke-dasharray: none; stroke-linecap: butt; stroke-dashoffset: 0; stroke-linejoin: miter; stroke-miterlimit: 4; fill: rgb(255,255,255); fill-rule: nonzero; opacity: 1; visibility: hidden;" vector-effect="non-scaling-stroke"  x="-540" y="-150" rx="0" ry="0" width="1080" height="300" />
</g>
<g transform="matrix(0.39 0 0 0.39 540 150)"  >
<g style="" vector-effect="non-scaling-stroke"   >
		<g transform="matrix(1 0 0 1 0 0)"  >
<rect style="stroke: none; stroke-width: 1; stroke-dasharray: none; stroke-linecap: butt; stroke-dashoffset: 0; stroke-linejoin: miter; stroke-miterlimit: 4; fill: none; fill-rule: nonzero; opacity: 1;" vector-effect="non-scaling-stroke"  x="-1250" y="-190.5" rx="0" ry="0" width="2500" height="381" />
</g>
		<g transform="matrix(1 0 0 1 -27.55 -4.25)"  >
<path style="stroke: none; stroke-width: 1; stroke-dasharray: none; stroke-linecap: butt; stroke-dashoffset: 0; stroke-linejoin: miter; stroke-miterlimit: 4; fill: rgb(0,0,0); fill-rule: nonzero; opacity: 1;" vector-effect="non-scaling-stroke"  transform=" translate(-1222.45, -186.25)" d="M 2339.3 366.1 L 2444.9 366.1 L 2335.9 6.5 L 2185.8 6.5 L 2076.8 366.1 L 2182.4 366.1 L 2201.7000000000003 299.5 L 2320 299.5 L 2339.3 366.1 M 2224.7 219.5 L 2260.6 95.3 L 2261.2 95.3 L 2297.1 219.5 L 2224.7 219.5 z M 527.1 372.5 C 635.5 372.5 687.9000000000001 353.4 695.4000000000001 255.6 C 697.2 232.29999999999998 697.5000000000001 208.39999999999998 697.5000000000001 186.3 C 697.5000000000001 164.20000000000002 697.2000000000002 140.3 695.4000000000001 117.00000000000001 C 688 19.1 635.6 0 527.1 0 C 418.6 0 366.3 19.1 358.9 116.9 C 357.09999999999997 140.20000000000002 356.7 164.10000000000002 356.7 186.2 C 356.7 208.39999999999998 357.09999999999997 232.29999999999998 358.9 255.5 C 366.3 353.4 418.7 372.5 527.1 372.5 M 458.9 186.2 C 458.9 166.5 459.4 154.79999999999998 459.79999999999995 146.1 C 462.59999999999997 90.6 484.49999999999994 84.1 527.0999999999999 84.1 C 569.6999999999999 84.1 591.5999999999999 90.6 594.3999999999999 146.1 C 594.7999999999998 154.79999999999998 595.2999999999998 166.4 595.2999999999998 186.2 C 595.2999999999998 206 594.7999999999998 217.7 594.3999999999999 226.29999999999998 C 591.6999999999998 281.79999999999995 569.7999999999998 288.29999999999995 527.0999999999999 288.29999999999995 C 484.4999999999999 288.29999999999995 462.5999999999999 281.79999999999995 459.7999999999999 226.29999999999995 C 459.4 217.7 458.9 206 458.9 186.2 L 458.9 186.2 z M 0 6.6 L 0 96.19999999999999 L 107.5 96.19999999999999 L 107.5 366.09999999999997 L 215 366.09999999999997 L 215 96.3 L 322.5 96.3 L 322.5 6.6 L 0 6.6 z M 1649.8 366.1 L 1649.8 6.5 L 1547.8 6.5 L 1547.8 366.1 L 1649.8 366.1 z M 1239.3 137.8 L 1239.3 6.5 L 1137.8 6.5 L 1137.8 366.1 L 1239.3 366.1 L 1239.3 227.4 L 1357.2 227.4 L 1357.2 366.1 L 1458.6000000000001 366.1 L 1458.6000000000001 6.5 L 1357.2 6.5 L 1357.2 137.8 L 1239.3 137.8 z M 1985.5 178.1 C 2030.7 166.5 2044 139.5 2044 100.5 C 2044 21.5 1994.3 6.400000000000006 1923.6 6.400000000000006 L 1740.3999999999999 6.400000000000006 L 1740.3999999999999 366 L 1932.6999999999998 366 C 2021.1999999999998 366 2051 327.9 2051 269.2 C 2050.9 228.4 2041.5 192.3 1985.5 178.1 M 1841.7 218.4 L 1912.1000000000001 218.4 C 1940.5000000000002 218.4 1946.5000000000002 230.9 1946.5000000000002 251.10000000000002 C 1946.5000000000002 271.40000000000003 1935.4000000000003 283.90000000000003 1912.1000000000001 283.90000000000003 L 1841.7 283.90000000000003 L 1841.7 218.4 z M 1841.7 88.7 L 1912.1000000000001 88.7 C 1930.5000000000002 88.7 1941.8000000000002 97.4 1941.8000000000002 118.4 C 1941.8000000000002 136.4 1930.6000000000001 147.4 1912.1000000000001 147.4 L 1841.7 147.4 L 1841.7 88.7 z M 756.6 248.1 L 853.3000000000001 248.1 C 853.4000000000001 265.5 855.6 277.2 864.1 283.6 C 873.7 290.90000000000003 882.3000000000001 293.3 910.9 293.3 C 938.4 293.3 968.5 293.3 968.5 259.40000000000003 C 968.5 232.70000000000005 951.7 226.60000000000002 920.6 224.90000000000003 C 843.5 220.80000000000004 815.7 218.60000000000002 787 197.30000000000004 C 767.4 182.80000000000004 757.3 154.50000000000006 757.3 116.20000000000005 C 757.3 51.10000000000005 780 28.30000000000004 812.8 12.400000000000048 C 846.5999999999999 -3.9999999999999503 979.3 -3.9999999999999503 1015 12.400000000000048 C 1059.9 33.10000000000005 1061.2 77.90000000000005 1061.2 119.40000000000005 L 964.7 119.40000000000005 C 964.5 98.20000000000005 959.7 92.20000000000005 955.9000000000001 88.30000000000004 C 945.9000000000001 79.40000000000003 931.6000000000001 77.50000000000004 911.0000000000001 77.50000000000004 C 886.1000000000001 77.50000000000004 857.2000000000002 78.60000000000004 857.2000000000002 108.90000000000003 C 857.2000000000002 132.00000000000003 867.2000000000002 141.70000000000005 893.4000000000002 143.40000000000003 C 929.4000000000002 145.70000000000005 1000.4000000000002 148.00000000000003 1025.7000000000003 162.90000000000003 C 1061.2000000000003 183.90000000000003 1070.4000000000003 212.30000000000004 1070.4000000000003 258.6 C 1070.4000000000003 325.6 1046.4000000000003 345.20000000000005 1013.1000000000004 359.90000000000003 C 974.6000000000004 376.90000000000003 846.1000000000004 376.90000000000003 804.3000000000004 358.6 C 757.6 338.2 756.6 297.6 756.6 248.1" stroke-linecap="round" />
</g>
</g>
</g>
</svg>