<?xml version="1.0" encoding="UTF-8" standalone="no" ?>
<!DOCTYPE svg PUBLIC "-//W3C//DTD SVG 1.1//EN" "http://www.w3.org/Graphics/SVG/1.1/DTD/svg11.dtd">
<svg xmlns="http://www.w3.org/2000/svg" xmlns:xlink="http://www.w3.org/1999/xlink" version="1.1" width="1080" height="300" viewBox="0 0 1080 300" xml:space="preserve">
<desc>Created with Fabric.js 5.2.4</desc>
<defs>
</defs>
<rect x="0" y="0" width="100%" height="100%" fill="transparent"></rect>
<g transform="matrix(0 0 0 0 0 0)" id="c2b8f9bf-11c4-4b8e-bb8a-98fbc85f1334"  >
</g>
<g transform="matrix(1 0 0 1 540 150)" id="1c507ba8-4382-4383-a0b1-561abf130728"  >
<rect style="stroke: none; stroke-width: 1; stroke-dasharray: none; stroke-linecap: butt; stroke-dashoffset: 0; stroke-linejoin: miter; stroke-miterlimit: 4; fill: rgb(255,255,255); fill-rule: nonzero; opacity: 1; visibility: hidden;" vector-effect="non-scaling-stroke"  x="-540" y="-150" rx="0" ry="0" width="1080" height="300" />
</g>
<g transform="matrix(0.36 0 0 0.36 540 150)"  >
<path style="stroke: rgb(0,0,0); stroke-width: 0; stroke-dasharray: none; stroke-linecap: butt; stroke-dashoffset: 0; stroke-linejoin: miter; stroke-miterlimit: 4; fill: rgb(0,0,0); fill-rule: nonzero; opacity: 1;" vector-effect="non-scaling-stroke"  transform=" translate(-1068.4, -268.45)" d="M 1942.8 535.6 L 2089 132.1 C 2089 132.1 1979.4 132.1 1869.7 154.6 L 1731.9 535.6 L 1942.8 535.6 z M 1917.5 23.9 L 1889.4 101.19999999999999 C 1999 78.69999999999999 2108.7000000000003 78.69999999999999 2108.7000000000003 78.69999999999999 L 2136.8 1.3999999999999915 C 2136.8 1.4 2027.1 1.4 1917.5 23.9 M 1155.5 440 C 1221.6 452.7 1289 458.3 1357.9 458.3 C 1429.6000000000001 458.3 1480.2 442.8 1485.8000000000002 393.6 C 1488.6000000000001 371.1 1466.1000000000001 354.20000000000005 1426.8000000000002 331.70000000000005 C 1381.8000000000002 306.40000000000003 1342.5000000000002 293.70000000000005 1303.1000000000001 267.00000000000006 C 1263.7 240.30000000000007 1246.9 199.50000000000006 1259.5000000000002 154.50000000000006 C 1275.0000000000002 102.50000000000006 1311.5000000000002 73.00000000000006 1366.3000000000002 44.90000000000006 C 1431.0000000000002 12.600000000000065 1481.6000000000001 -0.09999999999993747 1606.7000000000003 -0.09999999999993747 C 1685.4000000000003 -0.09999999999993747 1761.3000000000002 6.9000000000000625 1835.8000000000002 22.400000000000063 L 1809.1000000000001 95.50000000000006 C 1743.0000000000002 82.80000000000005 1675.6000000000001 77.20000000000006 1606.7 77.20000000000006 C 1535 77.20000000000006 1484.4 92.70000000000006 1478.8 141.90000000000006 C 1476 164.40000000000006 1498.5 181.30000000000007 1537.8 203.80000000000007 C 1582.8 229.10000000000008 1622.1 241.80000000000007 1661.5 268.50000000000006 C 1700.9 295.20000000000005 1717.7 336.00000000000006 1705.1 381.00000000000006 C 1689.6 433.00000000000006 1653.1 462.50000000000006 1598.3 490.6 C 1533.6 522.9 1483 535.6 1357.8999999999999 535.6 C 1279.1999999999998 535.6 1203.3 528.6 1128.8 513.1 L 1155.5 440 z M 837.8 535.6 L 960.0999999999999 199.60000000000002 C 1000.8999999999999 87.10000000000002 851.8999999999999 127.90000000000002 818.0999999999999 154.60000000000002 C 791.3999999999999 174.3 743.5999999999999 220.70000000000002 726.6999999999999 269.90000000000003 L 629.6999999999999 537 L 418.9 537 L 541.1999999999999 199.60000000000002 C 581.9999999999999 87.10000000000002 432.99999999999994 127.90000000000002 399.19999999999993 154.60000000000002 C 372.49999999999994 174.3 324.69999999999993 220.70000000000002 307.79999999999995 269.90000000000003 L 210.79999999999995 537 L 0 537 L 194 1.4 C 261.5 1.4 298 16.9 327.5 46.4 C 338.7 57.599999999999994 345.8 71.7 350 87.19999999999999 C 389.4 63.29999999999999 424.5 44.999999999999986 448.4 36.59999999999999 C 492 19.7 546.8 1.4 614.3 1.4 C 681.8 1.4 718.3 16.9 747.8 46.4 C 759 57.599999999999994 766.0999999999999 71.7 770.3 87.19999999999999 C 809.6999999999999 63.29999999999999 844.8 44.999999999999986 868.6999999999999 36.59999999999999 C 912.3 19.69999999999999 967.0999999999999 1.4999999999999858 1034.6 1.4999999999999858 C 1102.1 1.4999999999999858 1138.6 16.999999999999986 1168.1 46.499999999999986 C 1199 75.99999999999999 1197.6 130.79999999999998 1186.3999999999999 161.79999999999998 L 1048.6 535.6999999999999 L 837.8 535.6999999999999 z" stroke-linecap="round" />
</g>
</svg>