<?xml version="1.0" encoding="UTF-8" standalone="no" ?>
<!DOCTYPE svg PUBLIC "-//W3C//DTD SVG 1.1//EN" "http://www.w3.org/Graphics/SVG/1.1/DTD/svg11.dtd">
<svg xmlns="http://www.w3.org/2000/svg" xmlns:xlink="http://www.w3.org/1999/xlink" version="1.1" width="1080" height="300" viewBox="0 0 1080 300" xml:space="preserve">
<desc>Created with Fabric.js 5.2.4</desc>
<defs>
</defs>
<rect x="0" y="0" width="100%" height="100%" fill="transparent"></rect>
<g transform="matrix(1 0 0 1 540 150)" id="2a1d18e9-8612-472b-8e29-bda648b61e8c"  >
<rect style="stroke: none; stroke-width: 1; stroke-dasharray: none; stroke-linecap: butt; stroke-dashoffset: 0; stroke-linejoin: miter; stroke-miterlimit: 4; fill: rgb(255,255,255); fill-rule: nonzero; opacity: 1; visibility: hidden;" vector-effect="non-scaling-stroke"  x="-540" y="-150" rx="0" ry="0" width="1080" height="300" />
</g>
<g transform="matrix(Infinity NaN NaN Infinity 0 0)" id="33de16d7-d447-44cb-aa43-6b00c7584b30"  >
</g>
<g transform="matrix(0.81 0 0 0.81 540 150)"  >
<g style="" vector-effect="non-scaling-stroke"   >
		<g transform="matrix(3.78 0 0 3.78 486.79 0.09)"  >
<path style="stroke: none; stroke-width: 0.677; stroke-dasharray: none; stroke-linecap: butt; stroke-dashoffset: 0; stroke-linejoin: miter; stroke-miterlimit: 4; fill: rgb(0,0,0); fill-rule: nonzero; opacity: 1;" vector-effect="non-scaling-stroke"  transform=" translate(349.83, -329.88)" d="M -390.37 303.388 L -390.37 310.01099999999997 L -383.901 310.01099999999997 C -381.077 310.01099999999997 -379.221 311.79299999999995 -378.164 312.94399999999996 C -377.317 313.89199999999994 -358.69 335.01199999999994 -358.24399999999997 335.56699999999995 C -357.796 336.12299999999993 -357.796 336.12899999999996 -357.796 336.48199999999997 L -357.796 346.94699999999995 C -357.7972861098963 347.42683983241494 -357.84517764401687 347.90542026778814 -357.93899999999996 348.3759999999999 C -358.20697454943917 348.99083660275966 -358.73175128394934 349.45673594754425 -359.37399999999997 349.6499999999999 C -359.98533583385756 349.7267101809239 -360.6008701925861 349.76511845615653 -361.217 349.76499999999993 L -367.692 349.75699999999995 L -367.692 356.381 L -331.374 356.381 L -331.374 349.75699999999995 L -338.208 349.75699999999995 C -338.81993402540155 349.7601955844516 -339.43136734239727 349.7214380627185 -340.038 349.64099999999996 C -340.67925595213944 349.4494805516854 -341.2023809755992 348.9831373059821 -341.466 348.36799999999994 C -341.5612529823712 347.89754669603343 -341.61081670476847 347.41898886288647 -341.61400000000003 346.93899999999996 L -341.61400000000003 336.48 C -341.65435247610645 336.13625763812377 -341.567954281691 335.78959821608674 -341.37100000000004 335.505 L -321.22100000000006 312.517 C -319.37100000000004 310.457 -318.40900000000005 310.01 -315.98400000000004 310.01 L -309.29900000000004 310.01 L -309.29900000000004 303.38599999999997 L -339.23 303.38599999999997 L -339.23 309.996 L -334.713 309.996 C -334.21833612349815 309.9660638835828 -333.7516257660263 310.2272745990338 -333.518461535874 310.66456507864604 C -333.2852973057217 311.10185555825825 -333.32848507041575 311.6349450560151 -333.629 312.029 C -333.72400000000005 312.164 -346.16 326.788 -346.31600000000003 326.93 C -346.47200000000004 327.072 -346.572 327.038 -346.68800000000005 326.883 C -346.80300000000005 326.727 -359.09000000000003 312.029 -359.09000000000003 312.029 C -359.95700000000005 310.965 -359.28000000000003 309.997 -358.26300000000003 309.997 L -353.86100000000005 309.997 L -353.86100000000005 303.387 z" stroke-linecap="round" />
</g>
		<g transform="matrix(3.78 0 0 3.78 153.18 0.12)"  >
<path style="stroke: none; stroke-width: 0.677; stroke-dasharray: none; stroke-linecap: butt; stroke-dashoffset: 0; stroke-linejoin: miter; stroke-miterlimit: 4; fill: rgb(0,0,0); fill-rule: nonzero; opacity: 1;" vector-effect="non-scaling-stroke"  transform=" translate(438.1, -329.89)" d="M -479.445 303.388 L -479.445 310.01099999999997 L -473.64799999999997 310.01099999999997 C -469.462 310.01099999999997 -469.17699999999996 312.342 -469.17699999999996 314.37399999999997 L -469.17699999999996 345.376 C -469.17699999999996 347.231 -469.06899999999996 349.77799999999996 -471.73699999999997 349.77799999999996 L -478.89099999999996 349.77799999999996 L -478.89099999999996 356.395 L -448.34899999999993 356.395 L -448.34899999999993 349.77799999999996 L -455.7989999999999 349.77799999999996 C -458.7729999999999 349.77799999999996 -458.90899999999993 348.41799999999995 -458.9419999999999 345.525 L -458.9419999999999 318.96599999999995 L -416.9949999999999 356.39599999999996 L -406.3269999999999 356.39599999999996 L -406.8899999999999 314.12299999999993 C -406.83499999999987 311.03399999999993 -406.64599999999984 310.00499999999994 -403.4489999999999 310.00499999999994 L -396.7639999999999 310.00499999999994 L -396.7639999999999 303.3879999999999 L -427.9209999999999 303.3879999999999 L -427.9209999999999 310.00499999999994 L -421.0789999999999 310.00499999999994 C -417.9359999999999 310.00499999999994 -417.4089999999999 311.2169999999999 -417.3689999999999 314.12299999999993 L -416.9949999999999 336.24499999999995 L -453.4089999999999 303.3879999999999 z" stroke-linecap="round" />
</g>
		<g transform="matrix(3.78 0 0 3.78 -510.37 -0.99)"  >
<path style="stroke: none; stroke-width: 0.677; stroke-dasharray: none; stroke-linecap: butt; stroke-dashoffset: 0; stroke-linejoin: miter; stroke-miterlimit: 4; fill: rgb(0,0,0); fill-rule: nonzero; opacity: 1;" vector-effect="non-scaling-stroke"  transform=" translate(613.67, -329.6)" d="M -616.978 300.055 C -623.5409999999999 300.055 -630.9979999999999 301.288 -637.298 304.119 C -643.178 306.747 -647.966 310.96700000000004 -647.966 317.963 C -647.9749969654085 321.62746451703526 -646.5813619126511 325.1564561795117 -644.071 327.826 C -642.371 329.39700000000005 -639.628 332.06600000000003 -632.461 333.637 C -629.258 334.315 -622.41 335.405 -615.589 336.123 C -608.769 336.841 -602.157 337.478 -599.4490000000001 338.203 C -597.2940000000001 338.751 -593.671 339.49699999999996 -593.671 343.561 C -593.671 347.625 -597.484 348.84299999999996 -598.148 349.108 C -598.811 349.372 -603.3910000000001 351.472 -611.614 351.472 C -617.0619718483721 351.3206285360447 -622.4604334993888 350.3922628441876 -627.6460000000001 348.715 C -630.714 347.61699999999996 -633.931 346.17499999999995 -636.932 342.51 C -638.1431265788304 340.78453350118775 -638.8151442393731 338.73855119858274 -638.863 336.631 L -646.3130000000001 336.631 L -646.3130000000001 357.493 L -638.0360000000001 357.493 L -638.0360000000001 354.669 C -638.0383423347571 354.24258051018813 -637.8102449952723 353.84812958921736 -637.4394942771756 353.6374569216635 C -637.0687435590788 353.42678425410963 -636.6131290289312 353.4327277592267 -636.248 353.65299999999996 C -632.3486660562902 355.3498008720662 -628.2926808969071 356.6610462807355 -624.138 357.568 C -619.789 358.47499999999997 -616.9780000000001 359.133 -611.573 359.133 C -605.8695619399361 359.2412199461808 -600.1854028613302 358.43845653669484 -594.735 356.755 C -591.1156450610316 355.7628154032004 -587.7198086391459 354.08662185549235 -584.731 351.817 C -581.3230715013005 349.19928069590475 -579.3396738253541 345.1351293177381 -579.373 340.838 C -579.3441022441732 336.81061851793584 -580.8979652785944 332.93296355013376 -583.7 330.04 C -585.2583585878128 328.5280626019398 -587.0636883003691 327.2936202169959 -589.038 326.39000000000004 C -591.1603415069153 325.4311961519619 -593.3636695076526 324.66284240200855 -595.622 324.09400000000005 C -599.9159999999999 323.04400000000004 -609.5609999999999 321.7300000000001 -614.173 321.26900000000006 C -619.01 320.76900000000006 -627.403 320.07000000000005 -630.755 319.03400000000005 C -631.771 318.71500000000003 -633.844 317.73400000000004 -633.844 315.32900000000006 C -633.844 313.61600000000004 -632.8960000000001 312.16600000000005 -631.0260000000001 310.9940000000001 C -628.0530000000001 309.13200000000006 -622.051 307.97300000000007 -615.7930000000001 307.97300000000007 C -609.7348974935895 307.89956345325817 -603.7264255442101 309.07286975336643 -598.1410000000001 311.4200000000001 C -596.6405775165993 312.0740141195645 -595.2295588781944 312.91645844594717 -593.9420000000001 313.9270000000001 C -591.843006466831 315.71989330765996 -590.3894861615153 318.1513257758559 -589.8040000000001 320.8490000000001 L -583.118 320.8490000000001 L -583.118 302.69 L -590.5680000000001 302.69 L -590.5680000000001 304.796 C -590.5680000000001 305.474 -591.2460000000001 306.368 -592.6010000000001 305.63 C -595.9610000000001 303.882 -605.4020000000002 300.103 -616.9780000000001 300.055 z" stroke-linecap="round" />
</g>
		<g transform="matrix(3.78 0 0 3.78 -184.04 0.01)"  >
<path style="stroke: none; stroke-width: 0.677; stroke-dasharray: none; stroke-linecap: butt; stroke-dashoffset: 0; stroke-linejoin: miter; stroke-miterlimit: 4; fill: rgb(0,0,0); fill-rule: nonzero; opacity: 1;" vector-effect="non-scaling-stroke"  transform=" translate(527.33, -329.86)" d="M -527.31 300.06 C -539.048 300.06 -551.512 304.124 -558.5559999999999 310.524 C -563.9865260652404 315.4684098582757 -567.0742393876893 322.4777842491263 -567.0569999999999 329.822 C -567.1421026336892 337.1993637173376 -564.0447862968379 344.25577911299973 -558.5569999999999 349.187 C -550.9699999999999 356.007 -539.5899999999999 359.665 -527.31 359.665 C -515.01 359.665 -503.38699999999994 356.048 -495.98299999999995 349.187 C -490.6638541336644 344.1458481800479 -487.6351957084071 337.15038415272113 -487.59899999999993 329.822 C -487.52538414506466 322.4947515941047 -490.5741938720524 315.48256195127254 -495.98299999999995 310.539 C -503.929 303.332 -514.3259999999999 300.06 -527.31 300.06 z M -527.31 307.808 C -520.8889999999999 307.808 -514.7049999999999 310.118 -510.53999999999996 314.217 C -506.51 318.186 -504.40399999999994 323.794 -504.40399999999994 329.79499999999996 C -504.40399999999994 336.08099999999996 -506.31999999999994 341.17499999999995 -510.53899999999993 345.37399999999997 C -514.7589999999999 349.57399999999996 -520.8009999999999 351.82199999999995 -527.31 351.82199999999995 C -533.7719999999999 351.82199999999995 -539.943 349.52599999999995 -544.108 345.37399999999997 C -548.1319200414399 341.19895516381104 -550.3258015885601 335.59224902493537 -550.204 329.79499999999996 C -550.204 323.82099999999997 -548.125 318.193 -544.108 314.217 C -539.943 310.09799999999996 -533.731 307.808 -527.31 307.808 z" stroke-linecap="round" />
</g>
</g>
</g>
</svg>