<?xml version="1.0" encoding="UTF-8" standalone="no" ?>
<!DOCTYPE svg PUBLIC "-//W3C//DTD SVG 1.1//EN" "http://www.w3.org/Graphics/SVG/1.1/DTD/svg11.dtd">
<svg xmlns="http://www.w3.org/2000/svg" xmlns:xlink="http://www.w3.org/1999/xlink" version="1.1" width="1080" height="300" viewBox="0 0 1080 300" xml:space="preserve">
<desc>Created with Fabric.js 5.2.4</desc>
<defs>
</defs>
<rect x="0" y="0" width="100%" height="100%" fill="transparent"></rect>
<g transform="matrix(1 0 0 1 540 150)" id="f9162a92-71b3-49d2-a35e-dbc886d1ee28"  >
<rect style="stroke: none; stroke-width: 1; stroke-dasharray: none; stroke-linecap: butt; stroke-dashoffset: 0; stroke-linejoin: miter; stroke-miterlimit: 4; fill: rgb(255,255,255); fill-rule: nonzero; opacity: 1; visibility: hidden;" vector-effect="non-scaling-stroke"  x="-540" y="-150" rx="0" ry="0" width="1080" height="300" />
</g>
<g transform="matrix(0 0 0 0 0 0)" id="7659bb84-7f5a-4074-9a19-69c5e19a4caf"  >
</g>
<g transform="matrix(0.93 0 0 0.93 540 150)"  >
<path style="stroke: rgb(0,0,0); stroke-width: 0; stroke-dasharray: none; stroke-linecap: butt; stroke-dashoffset: 0; stroke-linejoin: miter; stroke-miterlimit: 4; fill: rgb(0,0,0); fill-rule: nonzero; opacity: 1;" vector-effect="non-scaling-stroke"  transform=" translate(-566.93, -113.21)" d="M 1098.426 166.63 L 1098.426 185.767 L 1095.216 185.767 L 1095.216 171.019 L 1095.013 171.019 L 1089.691 185.767 L 1086.928 185.767 L 1081.6460000000002 171.019 L 1081.6460000000002 185.767 L 1078.3950000000002 185.767 L 1078.3950000000002 166.63 L 1083.2310000000002 166.63 L 1088.553 181.62199999999999 L 1093.5900000000001 166.63 L 1098.4260000000002 166.63 M 1076.324 166.63 L 1076.324 169.392 L 1070.107 169.392 L 1070.107 185.765 L 1066.897 185.765 L 1066.897 169.392 L 1060.683 169.392 L 1060.683 166.63 L 1076.324 166.63 M 995.96 138.067 C 1000.793 122.424 1000.793 113.20200000000001 996.163 107.188 C 992.708 103.044 987.67 100.97200000000001 980.033 100.97200000000001 C 963.01 100.97200000000001 953.583 110.64200000000001 945.984 134.856 C 941.109 150.742 941.109 159.964 945.74 165.939 C 948.95 169.879 954.271 171.952 961.87 171.952 C 978.65 171.952 988.36 162.486 995.96 138.067 z M 1062.51 103.04400000000001 C 1069.172 111.37400000000001 1070.595 121.93800000000002 1066.654 134.858 C 1055.603 170.571 1013.917 191.048 952.159 191.048 C 915.309 191.048 890.241 183.898 879.148 170.083 C 872.485 161.796 871.347 150.987 875.248 138.067 C 886.298 102.35400000000001 927.984 81.87700000000001 989.741 81.87700000000001 C 1026.349 81.87700000000001 1051.702 89.23100000000001 1062.509 103.04400000000001 M 832.18 85.329 L 897.593 85.329 C 893.6529999999999 90.612 822.51 186.213 821.333 187.839 L 720.936 187.839 C 720.4490000000001 184.832 708.464 89.027 708.0160000000001 85.329 L 769.5310000000001 85.329 C 769.9760000000001 88.336 778.509 157.204 778.509 157.204 C 778.509 157.204 831.245 86.71100000000001 832.1800000000001 85.32900000000001 M 629.235 138.067 C 634.07 122.424 634.315 113.20200000000001 629.4780000000001 107.188 C 626.2280000000001 103.044 620.9480000000001 100.97200000000001 613.5920000000001 100.97200000000001 C 596.5290000000001 100.97200000000001 586.8590000000002 110.64200000000001 579.5030000000002 134.856 C 574.4250000000002 150.742 574.4250000000002 159.964 579.2590000000001 165.939 C 582.4690000000002 169.879 587.7920000000001 171.952 595.1450000000001 171.952 C 612.2110000000001 171.952 621.8810000000001 162.486 629.2350000000001 138.067 z M 696.03 103.04400000000001 C 702.733 111.37400000000001 704.116 121.93800000000002 699.971 134.858 C 688.921 170.571 647.194 191.048 585.721 191.048 C 548.87 191.048 523.761 183.898 512.669 170.083 C 506.006 161.796 504.625 150.987 508.526 138.067 C 519.821 102.35400000000001 561.506 81.87700000000001 623.019 81.87700000000001 C 659.869 81.87700000000001 684.979 89.23100000000001 696.03 103.04400000000001 M 503.486 98.008 C 506.005 101.21799999999999 507.387 104.426 506.69599999999997 109.05799999999999 L 481.14 188.043 L 413.411 188.043 L 437.384 114.34200000000001 C 438.277 111.13200000000002 437.14 108.36900000000001 435.31100000000004 106.29700000000001 C 432.06000000000006 102.35600000000001 425.15400000000005 99.83700000000002 401.427 101.46100000000001 C 401.427 101.46100000000001 373.353 186.906 372.86400000000003 188.043 L 305.17400000000004 188.043 C 305.826 186.214 336.94700000000006 91.10100000000001 337.394 90.16600000000001 C 360.92 86.022 392 82.12100000000001 424.26 82.12100000000001 C 468.01599999999996 82.12200000000001 494.71 87.40400000000001 503.486 98.00800000000001 M 256.337 119.664 C 257.719 113.20400000000001 255.647 108.369 253.32899999999998 105.606 C 250.81099999999998 102.356 245.24399999999997 98.211 233.74699999999999 98.211 C 217.414 98.211 205.184 106.053 201.039 119.176 L 192.994 149.364 L 256.337 119.664 z M 313.21799999999996 119.419 C 313.21799999999996 124.25399999999999 312.08099999999996 128.399 311.14599999999996 130.227 C 309.07399999999996 130.715 190.92399999999998 156.962 190.92399999999998 156.962 C 190.92399999999998 156.962 189.74399999999997 162.732 194.13299999999998 165.737 C 199.903 169.882 206.11899999999997 171.01999999999998 216.683 171.46699999999998 C 242.727 172.605 277.991 157.409 287.86699999999996 153.06099999999998 C 286.282 158.099 276.12399999999997 180.24299999999997 275.67699999999996 181.37999999999997 C 271.28799999999995 183.00499999999997 246.86999999999998 190.80599999999995 198.96699999999998 191.04999999999995 C 180.76399999999998 191.29399999999995 148.302 188.97799999999995 134.935 172.15699999999995 C 128.272 163.86999999999995 127.095 152.12699999999995 131.685 137.37899999999996 C 142.53300000000002 102.15199999999996 183.082 81.87899999999996 242.482 81.87899999999996 C 275.677 81.87899999999996 297.332 88.09499999999996 307.246 100.28399999999996 C 311.14599999999996 105.36199999999997 313.21799999999996 111.82199999999996 313.21799999999996 119.41899999999997 M 82.645 35.355 L 149.685 35.355 C 148.304 39.702999999999996 103.16499999999999 185.279 102.43299999999999 187.839 L 35.435 187.839 C 36.815000000000005 183.451 81.95400000000001 37.875 82.64500000000001 35.35499999999999" stroke-linecap="round" />
</g>
</svg>