<svg version="1.2" xmlns="http://www.w3.org/2000/svg" viewBox="0 0 1500 1000" width="1500" height="1000">
	<title>5136479-ai</title>
	<style>
		.s0 { fill: #79b5aa } 
		.s1 { fill: #afe2d8 } 
		.s2 { opacity: .3;mix-blend-mode: multiply;fill: #334e5b } 
		.s3 { fill: #433554 } 
		.s4 { fill: #6b5984 } 
		.s5 { fill: #b887d8 } 
		.s6 { opacity: .4;mix-blend-mode: multiply;fill: #b887d8 } 
		.s7 { fill: #892b5a } 
		.s8 { fill: #ffffff } 
		.s9 { fill: #9b86bc } 
		.s10 { fill: none;stroke: #6b5984;stroke-linecap: round;stroke-miterlimit:10;stroke-width: 2 } 
		.s11 { mix-blend-mode: multiply;fill: #433554 } 
		.s12 { opacity: .7;mix-blend-mode: multiply;fill: #433554 } 
		.s13 { fill: #fff48f } 
		.s14 { opacity: .3;mix-blend-mode: multiply;fill: #c97967 } 
		.s15 { fill: #c97967 } 
		.s16 { fill: #405f72 } 
		.s17 { opacity: .5;mix-blend-mode: multiply;fill: #405f72 } 
		.s18 { opacity: .3;mix-blend-mode: multiply;fill: #405f72 } 
		.s19 { fill: #e29d8a } 
		.s20 { opacity: .6;mix-blend-mode: multiply;fill: #e29d8a } 
		.s21 { opacity: .7;mix-blend-mode: multiply;fill: #e29d8a } 
		.s22 { opacity: .5;mix-blend-mode: multiply;fill: #e29d8a } 
		.s23 { fill: #000000 } 
		.s24 { opacity: .8;mix-blend-mode: multiply;fill: #000000 } 
		.s25 { fill: none;stroke: #c97967;stroke-miterlimit:10;stroke-width: 4 } 
		.s26 { fill: #99472b } 
		.s27 { opacity: .5;mix-blend-mode: multiply;fill: #99472b } 
		.s28 { fill: none;stroke: #30283a;stroke-miterlimit:10;stroke-width: 12 } 
		.s29 { fill: none;stroke: #433554;stroke-linecap: round;stroke-miterlimit:10;stroke-width: 20 } 
		.s30 { fill: none;stroke: #30283a;stroke-miterlimit:10;stroke-width: 14 } 
		.s31 { opacity: .5;mix-blend-mode: multiply;fill: #433554 } 
		.s32 { fill: #d0f7ef;stroke: #405f72;stroke-linecap: round;stroke-miterlimit:10;stroke-width: 8 } 
		.s33 { fill: none;stroke: #79b5aa;stroke-linecap: round;stroke-miterlimit:10;stroke-width: 4 } 
		.s34 { fill: none;stroke: #892b5a;stroke-linecap: round;stroke-miterlimit:10;stroke-width: 2 } 
		.s35 { fill: #334e5b } 
		.s36 { mix-blend-mode: multiply;fill: none;stroke: #c97967;stroke-linecap: round;stroke-miterlimit:10;stroke-width: 2 } 
		.s37 { fill: none;stroke: #000000;stroke-linecap: round;stroke-miterlimit:10;stroke-width: 2 } 
		.s38 { opacity: .4;mix-blend-mode: multiply;fill: #433554 } 
		.s39 { opacity: .7;mix-blend-mode: multiply;fill: #334e5b } 
		.s40 { opacity: .5;mix-blend-mode: multiply;fill: #6b5984 } 
		.s41 { opacity: .5;mix-blend-mode: multiply;fill: #9b86bc } 
		.s42 { fill: #ffe771 } 
		.s43 { mix-blend-mode: multiply;fill: #ffe771 } 
		.s44 { opacity: .3;mix-blend-mode: multiply;fill: #fcaf32 } 
		.s45 { opacity: .6;mix-blend-mode: multiply;fill: #ffe771 } 
		.s46 { mix-blend-mode: multiply;fill: none;stroke: #fcaf32;stroke-linecap: round;stroke-miterlimit:10;stroke-width: 4 } 
		.s47 { fill: none;stroke: #ffffff;stroke-linecap: round;stroke-miterlimit:10;stroke-width: 4 } 
		.s48 { fill: none;stroke: #6b5984;stroke-linecap: round;stroke-miterlimit:10;stroke-width: 4 } 
		.s49 { fill: none;stroke: #ffffff;stroke-linecap: round;stroke-miterlimit:10;stroke-width: 2 } 
		.s50 { fill: none;stroke: #405f72;stroke-linecap: round;stroke-miterlimit:10;stroke-width: 2 } 
		.s51 { fill: none;stroke: #b887d8;stroke-linecap: round;stroke-miterlimit:10;stroke-width: 4 } 
		.s52 { opacity: .5;mix-blend-mode: multiply;fill: #334e5b } 
		.s53 { opacity: .5;mix-blend-mode: multiply;fill: #892b5a } 
		.s54 { fill: none;stroke: #9b86bc;stroke-linecap: round;stroke-miterlimit:10;stroke-width: 6 } 
		.s55 { mix-blend-mode: multiply;fill: #b887d8 } 
		.s56 { mix-blend-mode: multiply;fill: #c97967 } 
		.s57 { fill: #30283a } 
		.s58 { fill: #afe2d8;stroke: #ffffff;stroke-miterlimit:10;stroke-width: 2 } 
		.s59 { mix-blend-mode: multiply;fill: #afe2d8 } 
		.s60 { fill: #e6fff9;stroke: #ffffff;stroke-miterlimit:10;stroke-width: 2 } 
		.s61 { fill: #d0f7ef;stroke: #ffffff;stroke-miterlimit:10;stroke-width: 2 } 
		.s62 { fill: none;stroke: #afe2d8;stroke-linecap: round;stroke-miterlimit:10;stroke-width: 2 } 
		.s63 { opacity: .6;fill: #afe2d8 } 
	</style>
	<g id="BACKGROUND">
		<path id="&lt;Path&gt;" class="s0" d="m0 25c0-13.8 11.2-25 25-25h1450c13.8 0 25 11.2 25 25v950c0 13.8-11.2 25-25 25h-1450c-13.8 0-25-11.2-25-25z"/>
		<path id="&lt;Path&gt;" class="s1" d="m0 766.4h1500v208.6c0 13.8-11.2 25-25 25h-1450c-13.8 0-25-11.2-25-25z"/>
		<path id="&lt;Path&gt;" class="s2" d="m1398.9 961.9h-1336.1c-15.1 0-19.7-20.5-6-27l168.2-78.9c31.8-14.9 66.5-22.7 101.7-22.7l863.5-0.2c68.1 0 134.3 21.9 188.9 62.6l33.5 24.9c17.7 13.2 8.4 41.3-13.7 41.3z"/>
	</g>
	<g id="OBJECTS">
		<g id="&lt;Group&gt;">
			<g id="&lt;Group&gt;">
				<g id="&lt;Group&gt;">
					<path id="&lt;Path&gt;" class="s3" d="m373.9 802.3h777.9l35.3-524.8c-233-27.6-649.4-12-847.1 20z"/>
					<path id="&lt;Path&gt;" class="s4" d="m362.6 315.1l29.6 466.1 741.7 1.4 33.5-488c-265.5-21.7-571.2-16.3-804.8 20.5z"/>
					<g id="&lt;Group&gt;">
						<path id="&lt;Path&gt;" class="s5" d="m393.2 344.7l20.2 436.5 690.5 1.6 27.1-456.9c-265.4-12.1-512-9.4-737.8 18.8z"/>
						<path id="&lt;Path&gt;" class="s6" d="m458 426.3c-19.1 15.3-34.7 34.9-44.9 57.1-14 30.2-11.3 58.5-9.8 90.9q2.3 50.2 4.6 100.4 2.5 53.3 5 106.5c0 0 690.4 1.6 690.4 1.5q5.2-87.8 10.5-175.6 4.1-70.1 8.3-140.1c2.2-38 9-74.2 5-112.6-6.1 56.8-9.6 124.1-49.5 168.4-34 37.9-85.7 60.5-136.9 56.3-58.8-4.9-110.2-40.5-155.8-78-45.5-37.5-90-79-145.4-99.4-48-17.7-103.2-17.6-149.5 4.4-11.4 5.4-22.2 12.2-32 20.2z"/>
						<path id="&lt;Path&gt;" class="s7" d="m392.2 336.1l2 41.4c220.4-25.5 500.6-28.3 734.9-14.9l2.9-47.5c-247.4-12.5-496.9-7.6-739.8 21z"/>
						<g id="&lt;Group&gt;">
							<path id="&lt;Path&gt;" class="s8" d="m434.1 354.5c0 7-5.7 12.7-12.7 12.7-7 0-12.7-5.7-12.7-12.7 0-7 5.7-12.7 12.7-12.7 7 0 12.7 5.7 12.7 12.7z"/>
							<path id="&lt;Path&gt;" class="s8" d="m479.8 350.6c0 7-5.7 12.7-12.7 12.7-7 0-12.7-5.7-12.7-12.7 0-7 5.7-12.7 12.7-12.7 7 0 12.7 5.7 12.7 12.7z"/>
							<path id="&lt;Path&gt;" class="s8" d="m526.7 344.3c0 7-5.7 12.7-12.7 12.7-7 0-12.7-5.7-12.7-12.7 0-7 5.7-12.7 12.7-12.7 7 0 12.7 5.7 12.7 12.7z"/>
						</g>
					</g>
				</g>
				<g id="&lt;Group&gt;">
					<path id="&lt;Path&gt;" class="s3" d="m373.9 802.3l-201.9 101.7h1154.8l-175-101.7z"/>
					<path id="&lt;Path&gt;" class="s4" d="m172 904v43.8h1154.8v-43.8z"/>
					<g id="&lt;Group&gt;">
						<path id="&lt;Path&gt;" class="s4" d="m245.4 887.1l134.1-70.6h768l129.9 70.6z"/>
						<path id="&lt;Path&gt;" class="s9" d="m365 866.3l-25 14.2h812.7l-20.7-14.2z"/>
						<g id="&lt;Group&gt;">
							<path id="&lt;Path&gt;" class="s9" d="m316 857.9h895.1l-63.6-35.1h-764.4z"/>
							<g id="&lt;Group&gt;">
								<g id="&lt;Group&gt;">
									<path id="&lt;Path&gt;" class="s10" d="m335.8 847.5h856.5"/>
									<path id="&lt;Path&gt;" class="s10" d="m349.5 840.3h829.8"/>
									<path id="&lt;Path&gt;" class="s10" d="m372.3 828.4h785.4"/>
									<path id="&lt;Path&gt;" class="s10" d="m1167.4 833.8h-805.3"/>
								</g>
								<g id="&lt;Group&gt;">
									<path id="&lt;Path&gt;" class="s10" d="m379.1 857.9l57.4-35.1"/>
									<path id="&lt;Path&gt;" class="s10" d="m450.6 857.9l49.9-35.1"/>
									<path id="&lt;Path&gt;" class="s10" d="m525.9 857.9l42.3-35.1"/>
									<path id="&lt;Path&gt;" class="s10" d="m611.5 857.9l28.3-35.1"/>
									<path id="&lt;Path&gt;" class="s10" d="m696.2 857.9v-35.1"/>
									<path id="&lt;Path&gt;" class="s10" d="m750 822.8l25.3 35.1"/>
									<path id="&lt;Path&gt;" class="s10" d="m818.8 822.8l39.3 35.1"/>
									<path id="&lt;Path&gt;" class="s10" d="m901.9 822.8l48 35.1"/>
									<path id="&lt;Path&gt;" class="s10" d="m986.6 822.8l53.6 35.1"/>
									<path id="&lt;Path&gt;" class="s10" d="m1074.1 822.8l57.9 35.1"/>
									<path id="&lt;Path&gt;" class="s10" d="m420.5 857.9l45.9-35.1"/>
									<path id="&lt;Path&gt;" class="s10" d="m490.4 857.9l42.3-35.1"/>
									<path id="&lt;Path&gt;" class="s10" d="m568.2 857.9l35.1-35.1"/>
									<path id="&lt;Path&gt;" class="s10" d="m654.8 857.9l10.4-35.1"/>
									<path id="&lt;Path&gt;" class="s10" d="m734.6 857.9l-11.3-35.1"/>
									<path id="&lt;Path&gt;" class="s10" d="m815.5 857.9l-28.7-35.1"/>
									<path id="&lt;Path&gt;" class="s10" d="m901.9 857.9l-37.2-35.1"/>
									<path id="&lt;Path&gt;" class="s10" d="m992.7 857.9l-44.7-35.1"/>
									<path id="&lt;Path&gt;" class="s10" d="m1086.4 857.9l-54.2-35.1"/>
									<path id="&lt;Path&gt;" class="s10" d="m1173 857.9l-59.3-35.1"/>
									<path id="&lt;Path&gt;" class="s10" d="m343.9 857.9l63.9-35.1"/>
								</g>
							</g>
						</g>
					</g>
				</g>
				<g id="&lt;Group&gt;">
					<path id="&lt;Path&gt;" class="s3" d="m184.2 913.4v24.5h621.2v-24.5z"/>
					<path id="&lt;Path&gt;" class="s11" d="m974.8 933.2h-110.1v-12.3h110.1z"/>
					<path id="&lt;Path&gt;" class="s12" d="m1036 933.2h-43.3v-12.3h43.3z"/>
					<path id="&lt;Path&gt;" class="s3" d="m1197.9 933.2h-128v-12.3h128z"/>
					<path id="&lt;Path&gt;" class="s11" d="m1244 927.1c0 5.9-4.8 10.8-10.8 10.8-6 0-10.8-4.9-10.8-10.8 0-6 4.8-10.9 10.8-10.9 6 0 10.8 4.9 10.8 10.9z"/>
					<path id="&lt;Path&gt;" class="s11" d="m1277 927.1c0 3.3-2.8 6.1-6.2 6.1-3.3 0-6.1-2.8-6.1-6.1 0-3.4 2.8-6.2 6.1-6.2 3.4 0 6.2 2.8 6.2 6.2z"/>
				</g>
			</g>
			<g id="&lt;Group&gt;">
				<g id="&lt;Group&gt;">
					<path id="&lt;Path&gt;" class="s13" d="m1059.8 781.7c0 0-6.5-132.4-21.1-197.3-8.9-39.4-21-79-45.1-111.3-6.4-8.6-13.9-16.7-23.6-21.2-8.1-3.8-17.1-4.8-26-5.5-46.4-4-93.7-2.6-140.3-1.6-75.1 1.5-150.1 8.5-224.2 21-37.4 6.3-74.6 14-110.7 25.6-12.1 3.9-24.8 8.8-32 19.2-6.1 8.9-7.1 20.3-7.2 31.2-0.3 34.4 6.4 68.4 13.5 102.1 10 47 32.4 137.2 32.4 137.2z"/>
					<path id="&lt;Path&gt;" class="s14" d="m510.3 776.8c0-2-0.8-4.8-1.5-8.7q-2.1-12.9-4.3-25.9-8.7-52.9-17.5-105.7c-5.1-30.9-10.2-61.8-17.4-92.3-2.2-9.1-4.6-18.4-9.2-26.5-2.2-3.8-4.9-7.4-8.7-9.7-5.4-3.1-11.3-2.6-14.9 2.6-6.1 8.9-7.1 20.3-7.2 31.2-0.3 34.4 6.4 68.4 13.5 102.1 10 47 32.4 137.2 32.4 137.2 9.2 0 18.4 0.5 27.5 0 5.8-0.3 7.3-1.5 7.3-4.3z"/>
				</g>
				<g id="&lt;Group&gt;">
					<path id="&lt;Path&gt;" class="s15" d="m923.1 711.1l90.3-15.1-5.3 86.6c-34.1-0.1-71.6-0.1-85-0.2z"/>
					<path id="&lt;Path&gt;" class="s16" d="m485.3 781.3c21.8-69.4 35.3-114.4 56.8-183.9 5.7-18.3 12.3-37.9 27.9-49 6.2-4.4 13.4-7.1 20.5-9.8q47.3-17.5 95.5-32.7c21.1-6.7 41.4-13.8 63.8-14.5 23.4-0.9 46.6 2.7 69.6 6.4 42.6 6.8 87.3 9.5 128.3 23 7.6 2.5 15.3 5.5 21.3 10.8 6.3 5.6 10.3 13.3 14.1 20.8 23.6 46.5 46 94.3 65.7 142.5-39.4 13-80.3 21.8-121.6 26.3 2.7 28.4 3 33.2 8.2 61.3-33.5 1.6-286.1 0.9-450.1-1.2z"/>
					<path id="&lt;Path&gt;" class="s17" d="m819.4 497.8c7 1.4 13.3 2.2 20.1 4.6-2.4 18.1-17.1 31.9-32.4 41.8-45.8 29.6-105.1 37.1-156.8 19.9 14 36.2 48.5 63.8 86.9 69.7-13.9 23.3-36 40.3-57.5 56.8q-12.7 9.8-25.3 19.5c54.9 15.9 117.2 3.9 162.3-31.3 11.2-8.8 21.4-18.9 32.3-28 2.1-1.8 4.4-3.6 7.2-3.9 6.1-0.8 10.6 5.7 12.7 11.5 6.6 18.1 6.5 39 17.9 54.6-1.7-33.9 3.9-67.8 11.4-100.9 6.8-29.4 15.8-59.7 36.6-81.5-18.5 57.1-18.6 119.9-0.4 177q14.3-11.2 28.7-22.4c3.3-2.6 6.8-5.5 7.3-9.6 0.3-2.9-0.8-5.6-1.9-8.3-7.1-18-8.7-38.2-4.8-57.2 0.9-4.9 21.9-49.2 22.9-47.6 25.4 40.9 43.9 87.8 62.2 132.4-39.4 13-80.3 21.8-121.6 26.3 2.7 28.4 3 33.2 8.2 61.3-33.5 1.6-286.1 0.9-450.1-1.2 21.8-69.4 35.3-114.4 56.8-183.9 5.7-18.3 12.3-37.9 27.9-49 6.2-4.4 13.4-7.1 20.5-9.8q47.3-17.5 95.5-32.7c21.1-6.7 41.4-13.8 63.8-14.5 23.4-0.9 46.6 2.7 69.6 6.4z"/>
					<path id="&lt;Path&gt;" class="s18" d="m615.1 536.2q0.1 0.5 0.2 1c3.8 43.8 3.8 87.8-0.1 131.5-1.9 21.6-4.7 43.5 0 64.6 4.6 21.2 18.7 41.7 39.7 47.2-6.6 6.6-30 2.1-38.5 2.1q-23.4-0.2-46.7-0.4c-7.5-0.1-83.3-4.3-84.4-0.9 21.8-69.4 35.3-114.4 56.8-183.9 5.7-18.3 12.3-37.9 27.9-49 6.2-4.4 13.4-7.1 20.5-9.8 7-2.6 22.8-13.1 24.6-2.4z"/>
				</g>
				<g id="&lt;Group&gt;">
					<path id="&lt;Path&gt;" class="s19" d="m1156.3 503.5c4.6-6.7 9.5-15.4 2.5-22.4-1.6-1.6-4.2-1.7-6.3-0.9-2.1 0.8-3.8 2.4-5.4 4 3.4-5.1 7-10.2 8.4-16.1 1-3.8 0.6-8.6-2.9-10.4-10.7-5.6-24.6 16.3-30.4 22.3q2.9-4.2 5.2-8.9c0.6-1.2 1.2-2.5 1.4-3.9 1.1-8.4-11.2-5.8-15.1-3-24.4 17.4-43.5 38.3-61.1 62.2-5.1 6.9-14.6 16.2-17.2 24.4 5-15.9 9.5-32.6 3.6-49.1-2.2-6.2-6.6-12.4-13.1-13.5-4.1 20-8.3 40.5-19.2 57.8-5.2 8.3-11.8 15.7-17.1 24-5.2 8.4-8.9 17.6-11.9 27.1-2.5 8.3-4.5 16.9-4 25.6 0.9 12.9 7.2 25 15.7 34.7 6.1 6.9 9 12 8.5 21.2-1.7 34.2-7.5 69.5-9.3 103.7 17.3 1 94.3 0.9 97.9 0.5-9-40.6-22.4-78.6-29.9-113.9-0.1-0.6-0.2-1.1 0-1.6 0.2-0.8 1.1-1.3 1.8-1.7 26.2-13.6 40.5-41.4 57.3-64.5 15.3-20.8 33.3-39.7 47.3-61.4 0.9-1.4 1.8-2.9 2-4.6 0.4-3.5-0.4-8.2-5.1-7.7-4.6 0.5-8.2 4.2-11.3 7.3-6.3 6.5-12.9 12.8-19.3 19.2-1.9 1.9-23.7 26-25.8 23.4-0.5-0.7-0.1-1.7 0.3-2.4 6.8-11.9 14.9-22.5 23.7-33 10.2-12.1 19.3-24.8 28.3-37.8q0.3-0.3 0.5-0.6z"/>
					<path id="&lt;Path&gt;" class="s20" d="m1156.8 503.5c3.5-5.1 11.2-19.9 0.7-23 0.6 5-2.9 9.6-6.2 13.5q-31.4 37.1-62.9 74.1c-0.7 0.9-1.6 1.8-2.7 1.8-2.7-0.1-1.9-4.4-0.2-6.5q24.4-31.2 48.8-62.4c6.8-8.7 15.9-17.3 19.4-27.9 1.7-5.3 3.4-14.9-5.4-10.7-4.4 2.1-8.8 12.1-11.7 16q-5.6 7.9-11.3 15.7c-16.2 22-32.6 42.6-51.7 62.5-1.3 1.4-2.7 2.8-4.5 3.6-1.7 0.7-4 0.6-5.3-0.8-1.4-1.5-1.2-3.8-0.6-5.7 4.7-12.7 19.3-25 27.8-35.4q16.1-19.8 32.3-39.5c2.9-3.6 11.2-16 2.4-16.1-3.5 0-9.1 7-11.3 9.5q-13.9 15.1-27.8 30.2c-17.8 19.2-35.7 38.7-48.2 61.7-5.5-9.8-0.4-18.6 1.8-28.4 2.5-11.2 3.3-22.9-0.6-34-1.8-4.8-6.3-7.2-8.1-11.4 6.5 15.2 3.5 32.7-2.1 48.2-4.7 12.8-10.3 25.4-16.8 37.3-6.6 11.9-15.5 23.2-17.1 37.2-1.7 14.3 5 28.4 13.3 40.3 4.2 6.1 8.9 11.9 11.3 18.9 1.7 4.9 2.3 10 2.7 15.1q2.2 23.3 3.6 46.6 0.7 12.1 1.3 24.2c0.2 4.6-1.5 21.6 2 24.3 7.7 1.2 51.3 0.6 56.8 0.4-9-37.4-22.1-76.3-29.4-113.9-0.1-0.6-0.2-1.1 0-1.6 0.3-0.8 1.1-1.3 1.8-1.7 26.2-13.6 40.5-41.4 57.4-64.5 15.2-20.8 33.2-39.7 47.2-61.4 0.9-1.4 1.8-2.9 2-4.6 0.5-4-1-8.4-5.6-8.1 2 3.1 0.8 6.2-1.2 8.9-13.9 19.5-30.6 36.9-49.5 51.6-1.5 1.1-3.6 2.3-5.1 1.1-0.7-0.5-1-1.5-1.1-2.4-2.9-15.2 16.1-33.7 25-44.3 10.2-12.1 19.3-24.8 28.4-37.8q0.2-0.3 0.4-0.6z"/>
					<g id="&lt;Group&gt;">
						<g id="&lt;Group&gt;" style="mix-blend-mode: multiply">
							<path id="&lt;Path&gt;" class="s19" d="m1034.6 556.7q-0.7 3-0.7 6.1 0 3.1 0.6 6.1c0.7 4 2 7.9 3.2 11.9 1.3 4 2.5 8 3.3 12.3 0.7 4.2 1 8.5 0.8 12.8-0.2 4.3-0.7 8.6-1.7 12.8-1.1 4.1-2.5 8.2-4.3 12.1-1.8 3.8-4.1 7.5-6.6 10.9-2.6 3.3-5.5 6.4-8.7 9.1 2.6-3.3 5-6.7 7.1-10.2 2.1-3.6 3.8-7.3 5.3-11.1 2.9-7.6 4.7-15.6 4.9-23.7 0.2-4.1 0-8.1-0.6-12.1-0.5-4-1.5-8-2.5-12.1-1-4-1.9-8.2-2.2-12.5-0.1-2.1 0-4.3 0.3-6.4 0.3-2.1 0.9-4.1 1.8-6z"/>
						</g>
						<g id="&lt;Group&gt;" style="mix-blend-mode: multiply">
							<path id="&lt;Path&gt;" class="s19" d="m1127.5 472.4c-4.9 7-10 13.7-15.3 20.3-5.2 6.7-10.6 13.1-16.1 19.6-5.5 6.4-11 12.8-16.7 19-5.7 6.2-11.5 12.4-17.6 18.3 4.8-7 9.9-13.7 15.2-20.3 5.2-6.7 10.6-13.1 16.1-19.6 5.5-6.4 11-12.8 16.8-19 5.6-6.2 11.5-12.4 17.6-18.3z"/>
						</g>
						<g id="&lt;Group&gt;" style="mix-blend-mode: multiply">
							<path id="&lt;Path&gt;" class="s19" d="m1149.8 481.7c-5.3 7.2-10.7 14.4-16.2 21.5-5.4 7.1-11 14.1-16.5 21.1-5.7 7-11.4 14-17.3 20.7-5.9 6.8-12 13.4-18.5 19.6 5.3-7.3 10.7-14.5 16.1-21.6 5.4-7.1 11-14.2 16.5-21.2 5.7-6.9 11.4-13.9 17.3-20.6 6-6.8 12.1-13.4 18.6-19.5z"/>
						</g>
					</g>
				</g>
				<g id="&lt;Group&gt;">
					<path id="&lt;Path&gt;" class="s19" d="m691.7 494.6c-1.6 4.9-4.2 9.5-8.4 13.6-4.8 4.6-10.7 7.7-16.6 10.6-0.6 0.3-1.2 0.6-1.4 1.3-0.3 0.8 0.3 1.7 0.9 2.3 11.3 13.1 27.6 21.2 44.5 24.5 17 3.3 34.6 1.9 51.4-1.9 22.7-5.2 45.9-16.2 56.7-36.8-8.4 0-18.5-6.7-23.3-13.2-5.1-6.9-7.7-15.3-9.7-23.7-5.6-22.5-8.1-44.3-5.8-67.4-5.8 6.5-20.2 8.1-28.3 9.5-11.1 2-22.4 2.9-33.6 3.8-10.2 0.9-20.8 1.6-30.6-1.5 1.7 0.5 3.1 22.2 3.5 24.8 1.2 9 2.2 18.1 2.7 27.2 0.4 9.3 0.7 18.6-2 26.9z"/>
					<path id="&lt;Path&gt;" class="s21" d="m691.8 494.6q-1 3.9-2.6 7.7c0.3-0.8 10.6-2.5 12-3 4.3-1.4 8.5-3.2 12.5-5.2 7.6-3.7 15.3-7.1 22.6-11.2 11.2-6.2 22.8-13.3 32.1-22.5 4-4 10.4-10 11.6-15.7 1.4-6.7-1.1-16-1.1-22.9 0.1-3.5-0.8-15.7 1.4-17.9-5.9 6.5-20.3 8.1-28.4 9.5-11.1 2-22.4 2.9-33.6 3.8-10.2 0.9-20.8 1.6-30.5-1.5 1.6 0.5 3.1 22.2 3.4 24.8 1.2 9 2.2 18.1 2.7 27.2 0.5 9.3 0.3 18.2-2.1 26.9z"/>
					<g id="&lt;Group&gt;">
						<path id="&lt;Path&gt;" class="s19" d="m831.6 339.9c2.4-35.4 3.4-70.4 3.4-106 0-23.2 1.1-45.9-7.7-67.9-7.6-18.8-21.3-35.2-38.7-45.8-8.4-5-17.4-8.8-26.6-12.3-37.1-14.4-81.4-7.9-114 14.9-15.3 10.6-27.9 24.4-36.3 40.5-5.5 10.3-9.2 21.5-11 33.4-3.5 24.8-0.3 51.1 2 76 2.6 26.6 6.5 53.1 11.9 79.3 2.2 10.5 4.6 21.2 9.6 30.7 11.8 22.6 39.5 33.8 62.6 40.7 13.6 4.1 30 8.8 44.3 7.1 30.6-3.6 59.8-21.4 82.7-41.2 4.7-4 9.2-8.3 12.1-13.7 3.4-6.6 4.1-14.2 4.7-21.5q0.5-7.1 1-14.2z"/>
						<path id="&lt;Path&gt;" class="s22" d="m624.2 382.8c11.8 22.6 39.5 33.8 62.6 40.7 13.6 4.1 30 8.8 44.3 7.1 30.6-3.5 59.8-21.4 82.7-41.2 4.7-4 9.2-8.3 12.1-13.7 3.4-6.6 4.1-14.2 4.7-21.5q0.5-7.1 1-14.2c2.4-35.4 3.4-70.4 3.4-106 0-23.2 1.1-45.9-7.7-67.9-7.6-18.8-21.3-35.2-38.7-45.8-8.4-5-17.4-8.7-26.6-12.3-16.1-6.3-73-20.3-74.6 9.8-0.3 5.5 1.7 10.8 4 15.9 7.6 17 17.7 33.3 31.8 45.6 4 3.5 8.8 6.9 14.2 6.6 5.3-0.4 10.3-6.4 7.7-11.1 5.8 4.6 12 9.4 19.3 10.1 7.3 0.6 15.7-4.8 15.1-12.2 27.1 55.9 38.8 120.1 29.1 181.6-1.6 10.1-3.6 20.3-8.9 28.9-5 8.3-12.6 14.6-20.3 20.4-14 10.5-30.2 20.4-47.6 19.1 5.2-3 10-6.8 14.1-11.1 1.7-1.8 3.4-3.8 3.5-6.3 0.3-3.3-2.5-6.2-5.6-7.4-3.2-1.1-6.6-0.8-10-0.6-18.4 1.4-37 1.5-55.2-2-20.9-4.1-49.4-15.3-61.7-34.1 4.1 6.2 3.8 14.8 7.3 21.6z"/>
						<g id="&lt;Group&gt;" style="mix-blend-mode: multiply">
							<path id="&lt;Path&gt;" class="s19" d="m700 229.8c2 7.8 3.2 15.9 3.9 24q0.5 6.1 0.6 12.2c0.1 4-0.1 8.1-0.3 12.2-0.1 4-0.5 8.1-1 12.1-0.4 4.1-1.3 8.1-1.5 11.9-0.2 3.7 0.2 7.7 3 9.7 1.4 1 3.2 1.7 5.1 2.4 1.9 0.6 3.8 1.2 5.8 1.9l0.4 0.2v0.4q0.3 4.2 0.5 8.4-1-4.1-1.8-8.3l0.4 0.6c-3.8-1-7.9-1.1-11.9-3.4-2.1-1.2-3.5-3.4-4.2-5.5-0.7-2.2-0.9-4.4-0.8-6.5 0.1-4.3 0.8-8.2 1.1-12.2 0.4-4 0.7-8 1-12 0.5-8 0.7-16 0.6-24 0-8-0.4-16-0.9-24.1z"/>
						</g>
						<g id="&lt;Group&gt;">
							<path id="&lt;Path&gt;" class="s23" d="m766.3 255.2c-0.3-6.4 2.2-12.7 8.2-13 2.7-0.1 5.3 1.4 7 3.5 1.6 2.1 2.4 4.8 2.7 7.4 0.3 4.1 0.4 9.6-2.8 12.7-7.8 7.5-14.7-3.6-15.1-10.6z"/>
							<path id="&lt;Path&gt;" class="s23" d="m642.6 265.8c-0.3-5.1 1-10.4 5.1-12.3 3.5-1.6 7.9 0.7 9.9 4 2.9 4.9 3.8 12.9 0.1 17.7-2 2.6-5.9 4-8.8 2.4-4.4-2.4-6-7-6.3-11.8z"/>
						</g>
						<g id="&lt;Group&gt;">
							<path id="&lt;Path&gt;" class="s22" d="m745.2 304.7q-0.3-0.6-0.5-1.3c-0.8-2.7 0.3-5.7 2.1-7.9 1.8-2.2 4.3-3.8 6.8-5 13-6.5 29.3-8.4 43.5-6.7 5.8 0.6 11.5 2.7 15.7 6.7 6.3 6.1 5.1 13.3-2.1 17.6-5.1 3-9.9 4.3-15.7 5.1-13.7 1.9-31.6 3.9-44.1-3.2-2.3-1.3-4.5-3-5.7-5.3z"/>
							<path id="&lt;Path&gt;" class="s22" d="m675.4 299.9c-7.8-2.6-16.6-2.8-24.6-1.9-10.6 1.2-21.5 4.4-29.1 11.9-7 6.8-1.8 13.4 5.9 16.1 11.6 4 24.3 4.7 36.2 1.9 5.9-1.5 11.4-2.5 16.5-6 5.2-3.5 9.6-9.4 5.7-15.7-1.3-1.9-3.4-3.1-5.5-4.2q-2.5-1.2-5.1-2.1z"/>
						</g>
						<g id="&lt;Group&gt;">
							<path id="&lt;Path&gt;" class="s24" d="m761.6 336.1c-14.1 0.2-28.3 0.3-42.2 2.4-13.9 2-27.7 4.2-40.7 9.9 5.7 6.3 12.5 11.6 20 15.5 18.7 9.9 40.2 8.5 53-9.6 3.9-5.3 7.8-12 10.1-18.2q-0.1 0-0.2 0z"/>
							<path id="&lt;Path&gt;" class="s8" d="m761.5 336.4c-6.4-1-13.6-0.1-20 0.1-7.4 0.3-14.8 0.9-22.1 2-13.2 1.9-28 4.2-40.6 9.9 1.9 3.1 7.4 3.5 10.6 3.8 17 1.5 34.1-0.9 50.7-4.6 7.6-1.6 17.2-4.1 21.7-11.2q-0.1 0-0.3 0z"/>
							<path id="&lt;Path&gt;" class="s25" d="m761.6 336.1c-14.1 0.2-28.3 0.3-42.2 2.4-13.9 2-27.7 4.2-40.7 9.9 5.7 6.3 12.5 11.6 20 15.5 18.7 9.9 40.2 8.5 53-9.6 3.9-5.3 7.8-12 10.1-18.2q-0.1 0-0.2 0z"/>
						</g>
						<g id="&lt;Group&gt;">
							<path id="&lt;Path&gt;" class="s26" d="m754.6 192.7c2.7-2.8 12.9-6.5 16-2.8 1.2 1.3 1.3 3.4 0.2 4.9 8.1-3 17.6-1.7 24.8 2.9 6 3.7 13.9 10.1 14.2 17.7 0 0.4 0 1-0.5 1.1-0.2 0.1-0.4 0.1-0.6 0-7.4-1.5-14.3-5.3-21.9-5.7-9.1-0.5-17.4-0.2-26.4 1.6-3.9 0.8-7.9 1.7-11.8 0.8-9.7-2.5-6.8-12.8-1.5-18 2.3-2.3 4.9-4.3 7.7-5.8 0.6-0.3 1.3-0.6 1.8-0.3q-0.7 1.9-2 3.6z"/>
							<path id="&lt;Path&gt;" class="s26" d="m663.2 201.1c-1.6-0.8-3.3-1.3-5-1.2-0.9 0.1-1.8 0.3-2.5 0.9-0.6 0.7-0.7 1.8 0 2.4-4.7-3.3-10.9-4.5-16.5-3-1.4 0.4-3 1.1-3.3 2.6 1.6 1.6 3.5 2.9 5.6 3.9-4.9-1.3-10.2-0.8-14.7 1.3-0.4 0.1-0.7 0.3-0.8 0.6-0.4 1 1.2 1.3 2.2 1-8.5 2.9-15.7 12.2-19 20.3-0.6 1.4-1 3.3 0.1 4.3 1.3 1.2 3.4 0.1 4.9-0.9 12.4-8.7 27.8-13.1 42.9-12.2 5.1 0.4 12.7 1.4 13.7-5 0.9-5.1-2.7-12.1-7.6-15z"/>
						</g>
						<path id="&lt;Path&gt;" class="s26" d="m826.1 194.2c-0.1-0.6-0.2-1.3-0.6-1.8-0.8-1.1-2.3-1.3-3.7-1.6-8.3-1.6-13.7-11.7-10.5-19.5-6.4 3.6-14.9 1.2-19.9-4-5.1-5.2-7.4-12.6-8.4-19.8 0 1.8-2.6 2.6-4.2 1.6-1.6-1-2.2-2.9-2.7-4.7-1.7-6.3-2.8-12.7-3.4-19.2 0.8 11.2 4 33-12.4 33.6-4.9 0.2-9.6-2.1-13.5-5.2-7.5-5.8-12.6-14.1-17.5-22.3 5.8 16.4 11.5 34.3 6 50.8-13.9-1-26.2-10.4-33.8-22.1-7.6-11.7-11.4-25.4-14.6-39-1.5 24.4 9.3 48.2 23.7 68-7.6 2.5-15.4-3.3-20.4-9.6-6.3-7.9-10.7-17.1-13-27 0.5 9.5 1.8 19 3.8 28.2-11.4-0.9-21.8-9.6-27.2-19.2-5.3-9.3-7.6-23.7-3.8-33.9-7.9 7.2-14.7 15.4-20.3 24.5-1.9 2.9-3.6 6-4.2 9.4-0.7 3.3-0.3 6.8-0.2 10.2 0.4 14.7-5.2 29.5-15.2 40.2-5 5.5-7.4 7.8-6.6 15 2 20.4 8.5 44.9-0.6 64.2-0.1 0.3-0.2 0.5-0.5 0.7-0.7 0.3-1.2-0.7-1.4-1.4-2.4-13.4-3.6-26.8-5.6-40.3-2.6-17.2-4.4-34.7-6.7-51.8-4.2-31.4 18.8-61.4 43.2-78.2 19.4-13.3 41.8-22.1 65-25.7 25.1-3.9 47.8-1.4 71.3 7.6 16.5 6.4 31.8 15.7 45 27.5 8.6 7.7 16.3 16.5 21.5 26.8 6 11.9 5.8 23.5 6.7 36.3 1 14.3-0.3 29.2-1.3 43.4-1 14-2 28-4.5 41.9-6.6-6.4-7.2-13.8-6.3-22.6 0.7-6.3 0.3-12.8 0.2-19.2-0.3-14-0.7-28-3.4-41.8z"/>
						<path id="&lt;Path&gt;" class="s27" d="m834.8 193c-1.4-10.2-6.6-19.6-12.7-28-6.1-8.4-13.4-16.6-15.4-26.8-3.2 3.4-8.8 4.2-12.8 1.9-6.7-3.7-7.2-13.2-12-19.1-6.8-8.4-19.8-7.9-28.8-13.8q0.5 6.4 1.1 12.7c0.1 1.7 0.2 3.8-1.1 4.9-1.1 1-2.7 1-4.1 0.9-11.6-1.1-22.3-8.7-27.1-19.3-2.4 10.7-2.1 21.9 1 32.4 0.5 1.7 0.9 3.6-0.2 4.9-1.5 1.7-4.4 0.5-6.3-0.9-12.6-9.4-21.5-23.8-24.4-39.3-9.3 9.3-14.7 22.5-14.4 35.7-4.6-3.8-7.3-9.7-7-15.7q-3.9 14.1-6.7 28.5c-7.1-11-9.4-25-6.4-37.8-25.8 14.1-44.8 40-50.7 68.9-1.4 7-3.4 15.7-10.4 17.2 1 29.9 20.3 61.4 6.5 90.7-0.1 0.3-0.2 0.5-0.5 0.7-0.7 0.3-1.2-0.7-1.4-1.4-2.4-13.4-3.6-26.8-5.6-40.3-2.6-17.2-4.4-34.7-6.7-51.8-4.2-31.4 18.8-61.4 43.2-78.2 19.4-13.3 41.8-22.1 65-25.7 25.1-3.9 47.8-1.4 71.3 7.6 16.5 6.4 31.8 15.7 45 27.5 8.6 7.7 16.3 16.5 21.5 26.8 6 11.9 5.8 23.5 6.7 36.3 1 14.3-0.3 29.2-1.3 43.4-1 14-2 28-4.5 41.9-6.6-6.4-7.2-13.8-6.3-22.6 1.7-14.6 2.9-29.2 4.8-43.8 0.7-5.4 1.3-10.7 0.9-16.1q-0.1-1.2-0.2-2.3z"/>
					</g>
					<g id="&lt;Group&gt;">
						<g id="&lt;Group&gt;">
							<path id="&lt;Path&gt;" class="s28" d="m598.7 327.6c19.3 58 86.1 76.3 141.3 68.1"/>
							<path id="&lt;Path&gt;" class="s29" d="m683.1 394.4c18.7 3.9 42.7 4.6 61.3-0.5"/>
						</g>
						<path id="&lt;Path&gt;" class="s30" d="m581 249.9c-5.8-28.5-5.6-59.2 5.3-86.4 20.1-50.4 76.4-70 126.2-73.1 24.9-1.6 50.3 3.9 72.9 14.1 26.9 12.2 46.9 36.1 56.1 64 6 17.8 8.1 36.7 9 55.5"/>
						<g id="&lt;Group&gt;">
							<path id="&lt;Path&gt;" class="s3" d="m563.7 249.8c-6.7 14-7.3 31.7-5.4 46.5 3.1 23.8 23.1 61.3 52 58 8.9-1 2.3-45.9 1.6-52.2-2.7-23.3-6.5-46.8-15.9-68.5-0.6-1.3-1.2-2.6-2.3-3.6-2.5-2.3-6.5-1.5-9.7-0.1-9.6 4.1-16.1 11.3-20.3 19.9z"/>
							<path id="&lt;Path&gt;" class="s31" d="m563.3 249.5c-3.1 5.6-4.5 15.6-4.9 18.7-1.4 9.3-1.3 18.8-0.1 28.1 1.3 9.5 4.6 18.9 9 27.4 2.3 4.4 5 9.9 8.6 13.4 1.8 1.7 3.2 3.7 4.9 5.5 0.5 0.5 1.1 1.1 1.8 0.9 0.5-0.1 0.8-0.6 1-1.1 3.1-5.8 3.7-12.6 3.9-19.2 0.6-17.5-1-35-4.9-52.1-1.8-7.8-4.1-15.7-9.1-22-1.4-1.7-3.1-3.3-5.2-3.4-2-0.2-3.7 1.4-5 3.8z"/>
							<path id="&lt;Path&gt;" class="s31" d="m577.4 233.3c4.1 0.9 6.4 5.6 7.9 9 9.5 22 13.4 46.7 14.4 70.5 0.4 8.1 0.6 16.1-0.7 24.1-0.3 1.5-2.2 15.5-5.6 13.7 5.6 3 10.4 4.5 16.9 3.7 8.9-1 2.3-45.9 1.6-52.2-2.7-23.3-6.5-46.8-15.9-68.5-0.6-1.3-1.2-2.6-2.3-3.6-4.1-3.6-12.7 0.3-16.3 3.3z"/>
						</g>
						<g id="&lt;Group&gt;">
							<path id="&lt;Path&gt;" class="s3" d="m873.4 220.5c8.6 13.3 11.4 31.3 11.2 46.6-0.3 24.5-16.4 65.1-46.5 65.3-9.3 0-7.9-46.4-8-52.9 0-24 1.1-48.4 8.2-71.6 0.4-1.3 0.9-2.8 1.9-3.9 2.3-2.6 6.6-2.3 10-1.3 10.4 3 17.9 9.5 23.2 17.8z"/>
							<path id="&lt;Path&gt;" class="s31" d="m873.4 220.5c8.6 13.3 11.4 31.3 11.2 46.6-0.2 10.3-2.7 20.7-6.5 30.2-2 5.2-4.6 10.3-7.7 14.9-5.5 8.3-7.4-3.1-8.5-7.6-4.1-16.7-4.6-34.1-2.7-51.1 0.9-8.3 2.5-16.6 4.6-24.8 1-4 4.2-16.8 9.6-8.2z"/>
							<path id="&lt;Path&gt;" class="s31" d="m854.3 213.2c-2 4.5-3.1 9.5-3.9 14.4-4.8 27.9-6.2 58.9-0.8 86.9 0.2 1.1 5.2 14.3 7.3 12.3-4.6 4.3-12.8 5.5-18.8 5.6-9.3 0-7.9-46.4-8-52.9 0-24 1.1-48.4 8.2-71.6 0.4-1.3 0.9-2.8 1.9-3.9 2.3-2.6 6.6-2.3 10-1.3 3.1 0.9 6.1 2 8.9 3.5-2.1 2.1-3.5 4.3-4.8 7z"/>
						</g>
					</g>
				</g>
				<g id="&lt;Group&gt;">
					<path id="&lt;Path&gt;" class="s19" d="m559.4 782.1c0 0 15.4-103.8 25-153.7q7.4-37.9 14.7-75.8c4.4-22.3 6.3-43.7 9.1-66.2 0.3-2.4 0.6-4.9 1.4-7.3 1-2.7 2.5-5.2 4-7.8 6.7-11.7 11.5-25.1 10.8-38.7-0.6-13.1-6.2-25.3-11.8-37.2-4.6-10.1-9.3-20.6-13.2-31-0.2-0.4-0.3-0.9-0.3-1.3 0.1-0.6 0.5-1.1 0.9-1.5 4.6-5.3 9-10.7 13-16.6 0.3 2 0.7 4.2 2 5.8 3.7 5 7.9 0.2 8.4-4.1 0.5-4.4 0.4-8.9-0.2-13.3-0.4-2.9-1.6-8.2-4.9-9.4-0.8-0.3-1.7-0.3-2.6-0.3 0.9-3.3 0-7-1.4-10.1-0.4-0.9-0.8-1.8-1.6-2.3-0.8-0.5-2-0.6-2.6 0.1 0.4-2.2-0.7-4.3-1.7-6.3-0.4-0.8-0.8-1.6-1.6-2-0.7-0.3-1.5-0.2-2.2-0.1-7.6 1.1-14.2 5.9-20.1 10.6 3.9-3 5.6-8 7.6-12.3 2.5-5.6 5.1-11.2 7.3-16.9 4.3-11.6 6.9-24 4.7-36.2-0.4-2.1-1.4-4.5-3.5-4.7-2.2-0.2-3.7 2.2-4.7 4.3q-12.2 27.8-26.4 54.7c-4.6 8.5-9 17.4-14.3 25.5-4.6 6.9-10.5 15-7.1 23.6 0.8 2.2 2.2 4.2 2.4 6.4 0.1 1.6-0.3 3.1-0.4 4.7-0.3 3.9 2 7.6 3.5 11.3 1.2 3.3 1.8 6.8 2.4 10.3q3.6 20.9 7.1 41.7c2.5 14.6 4.7 29.4 7.8 43.9 1.7 7.8-6.1 20.5-9 27.3q-7.2 17.1-14.5 34.1-14.8 34.9-29.6 69.8-29.4 68.9-58.7 137.9c-6 14-15.7 42.2-15.7 42.2z"/>
					<g id="&lt;Group&gt;">
						<path id="&lt;Path&gt;" class="s22" d="m570.1 321.8c2.3-3.7 10.7-6.9 14.2-9.6 4.2-3.1 5.6-6 7.8-10.9 2.5-5.6 5.1-11.2 7.3-16.9 4.3-11.6 6.9-24 4.7-36.2-0.4-2-1.1-3.8-3-4.1-2.2 5.4-3.4 11.5-4.9 17.1-1.9 6.6-3.7 13.2-6 19.6-5.1 14.4-12.3 27.9-20.1 41z"/>
						<path id="&lt;Path&gt;" class="s22" d="m559.4 782.1c0 0 15.4-103.8 25-153.7q7.4-37.9 14.7-75.8c4.4-22.3 6.3-43.7 9.1-66.2 0.3-2.4 0.6-4.9 1.4-7.3 1-2.7 2.5-5.2 4-7.8 6.7-11.7 11.5-25.1 10.8-38.7-0.6-13.1-6.2-25.3-11.8-37.2-4.6-10.1-9.3-20.6-13.2-31-0.2-0.4-0.3-0.9-0.3-1.3 0.1-0.6 0.5-1.1 0.9-1.5 4.6-5.3 9-10.7 13-16.6 0.3 2 0.7 4.2 2 5.8 3 4 6.8 1.3 8-2.5 1.1-3.2 0-9.6-1.3-12.5-1.1-2.3-3.7-4.1-6.1-3.2-1 0.3-1.8 1.1-2.6 1.8q-14.1 13.2-28.3 26.4c-1.8 1.7-3.8 3.7-3.9 6.2-0.1 1.4 0.5 2.8 1.1 4.2 9.3 22.4 14.6 46.4 15.6 70.6 0.5 13.8-2.3 29.6-12 40.2 5.1 5.2 5.2 13.3 4.5 20.6-1.3 13.2-4.4 26.2-7.5 39.1q-14.2 58.3-30.7 116c-5.8 20.6-12 41.3-22.3 60.1-15.3 28.1-38.3 47.3-65.6 63.1 31.2 2.8 64.1 1.4 95.5 1.2z"/>
					</g>
					<g id="&lt;Group&gt;">
						<g id="&lt;Group&gt;" style="mix-blend-mode: multiply">
							<path id="&lt;Path&gt;" class="s19" d="m613.1 311.8c-0.3-0.7-1.1-1-1.8-0.9-0.6 0-1.3 0.2-1.9 0.5-1.2 0.6-2.4 1.6-3.6 2.3q-3.6 2.3-7.2 4.7c-4.8 3.2-9.5 6.4-14.2 9.7-4.6 3.3-9.2 6.7-13.9 10q-3.4 2.6-6.8 5.2l-6.9 5.2c2-2.1 4.2-4 6.3-6q3.2-2.8 6.5-5.6c4.4-3.7 9-7.1 13.7-10.4 4.7-3.3 9.5-6.5 14.5-9.4q3.7-2.2 7.5-4.2c1.3-0.7 2.5-1.4 3.9-2 0.7-0.2 1.4-0.4 2.2-0.3 0.7 0 1.5 0.5 1.7 1.2z"/>
						</g>
						<g id="&lt;Group&gt;" style="mix-blend-mode: multiply">
							<path id="&lt;Path&gt;" class="s19" d="m620.2 325.2c-1.1-1.1-2.6-1.5-4-1.4-1.4 0-2.8 0.5-4 1.3-2.4 1.5-4.7 3.5-7 5.2l-14 11-13.9 10.9-6.9 5.6-7 5.5c2.1-2.2 4.2-4.2 6.3-6.3l6.6-5.9c4.5-4 9-7.7 13.7-11.4 4.7-3.7 9.4-7.2 14.3-10.6l3.6-2.5c1.3-0.8 2.5-1.7 3.9-2.4 1.3-0.6 2.9-1.1 4.4-1 1.6 0.1 3.1 0.8 4 2z"/>
						</g>
						<g id="&lt;Group&gt;" style="mix-blend-mode: multiply">
							<path id="&lt;Path&gt;" class="s19" d="m592.5 308.1c-6.5 4.8-13.2 9.4-19.9 13.9-3.4 2.2-6.7 4.5-10.2 6.6-1.7 1.1-3.5 2.1-5.1 3.2-1.7 1.1-3.2 2.4-3.9 4.4 0.2-2.1 1.8-3.8 3.3-5.2 1.6-1.3 3.2-2.5 4.8-3.7 3.3-2.4 6.6-4.7 10-7 6.7-4.4 13.7-8.7 21-12.2z"/>
						</g>
					</g>
				</g>
			</g>
			<g id="&lt;Group&gt;">
				<path id="&lt;Path&gt;" class="s8" d="m1106.2 337.5c0 52.9-42.9 95.7-95.7 95.7-52.9 0-95.7-42.8-95.7-95.7 0-52.8 42.8-95.6 95.7-95.6 52.8 0 95.7 42.8 95.7 95.6z"/>
				<path id="&lt;Path&gt;" class="s32" d="m1015.5 433.8c0 30.3-24.6 54.8-54.9 54.8-30.2 0-54.8-24.5-54.8-54.8 0-30.3 24.6-54.8 54.8-54.8 30.3 0 54.9 24.5 54.9 54.8z"/>
				<g id="&lt;Group&gt;">
					<path id="&lt;Path&gt;" class="s33" d="m963.2 394.3l-2.6 39.5 16.4 20.6"/>
					<path id="&lt;Path&gt;" class="s34" d="m960.6 433.8l34.6 19.3"/>
				</g>
				<path id="&lt;Path&gt;" class="s35" d="m967 433.8c0 3.5-2.8 6.4-6.4 6.4-3.5 0-6.3-2.9-6.3-6.4 0-3.5 2.8-6.3 6.3-6.3 3.6 0 6.4 2.8 6.4 6.3z"/>
				<path id="24/7
" class="s7" aria-label="24/7"  d="m970.5 342.2l-9.3 9.9h19.1v9.9h-31.6v-9.9l15.9-17q2.1-2.3 3.2-4.5 1-2.2 1-4.6 0-3.7-2.1-5.9-2-2.3-5.4-2.3-2.7 0-5.8 1.4-3.1 1.3-6.6 4v-11.5q3.7-1.6 7.4-2.3 3.7-0.8 7.3-0.8 7.8 0 12.1 4.1 4.3 4.2 4.3 11.6 0 4.3-1.8 8-1.8 3.7-7.7 9.9zm37 0.4v-21.9l-12.3 21.9zm-19.3-1.8l17.4-31.3h12.5v33.1h6.2v9.8h-6.2v9.6h-10.6v-9.6h-19.3zm38.8 27.9l15.3-59.2h6.5l-15.4 59.2zm25.8-49.2v-10h32.8v7.6l-17 44.9h-10.9l16-42.5z"/>
			</g>
		</g>
		<g id="&lt;Group&gt;">
			<g id="&lt;Group&gt;">
				<path id="&lt;Path&gt;" class="s19" d="m1246.4 674q0.4-0.9 0.6-1.8c0.6-2.5 0.6-5.1 0.5-7.7-0.1-4.3-0.8-8.6-1.1-12.9-0.4-4.1 0.6-8.2 1.9-12 1.5-4.8 3.8-9.4 7.4-12.9 2.8-2.6 6.1-4.4 9.7-5.7 4.4-1.7 9.1-2.6 13.9-2.4 10.1 0.5 19.8 6.7 24.6 15.7 2.4 4.7 4 8.7 3.5 14-0.6 6.3-2.5 12.5-5.5 18.1-1.1 2-2.4 4-3.2 6.1-1.1 2.7-1.4 5.7-0.9 8.6 0.1 0.7 0.2 1.4-0.1 2-0.3 0.3-0.6 0.5-1 0.7-2.2 0.8-4.6 0.9-6.8 0.2q-3 6.5-6.1 13.1c-0.3 0.6-0.6 1.2-1.1 1.7-0.5 0.4-1.2 0.6-1.8 0.7-3.1 0.5-6.2-0.6-9-2.2-4.2-2.3-7.9-5.6-10.6-9.5-9.5 8.4-14.7 21.3-13.7 34-0.3-4.2-4.4-9.3-6.5-12.8-1-1.6-11.2-16.6-9.9-17.6q4.6-3.9 8.8-8.3c2.6-2.7 5.1-5.7 6.4-9.1z"/>
				<path id="&lt;Path&gt;" class="s20" d="m1271.9 697.3c-4.2-2.3-7.9-5.6-10.6-9.5-3.1 2.7-5.7 5.9-7.8 9.4-1.1 1.8-2.2 3.8-2.9 5.7-0.3 1-1.6 3.3-1.6 4.1-0.1-7.8 1-15.6 3.5-23-1.1 0.2-2.4-0.1-3-1-0.7-0.9-0.4-2.4 0.6-2.9-2.1 1.2-4.6 1.5-6.9 1.1 1.2-2.4 2.3-4.8 3.2-7.2q0.4-0.9 0.6-1.8c0.6-2.5 0.6-5.1 0.5-7.7-0.1-4.3-0.8-8.6-1.1-12.9-0.4-4.1 0.6-8.2 1.9-12 1.5-4.8 3.8-9.4 7.4-12.9 2.8-2.6 6.1-4.4 9.7-5.7 4.4-1.7 9.1-2.6 13.9-2.4 10.1 0.5 19.8 6.7 24.6 15.7 1.8 3.6 3.5 7.4 3.6 11.5 0.1 3.3-0.3 8.7-2.3 11.3-1.9 2.7-5.5 4-8.5 2.4-1.8-1-3.1-2.6-4.4-4.2 0 1.5-2 2.1-3 3.1-0.8 0.7-1.1 1.7-1.5 2.7-1.7 3.5-5.3 6-9.2 6.3 0.9-3.9 0.7-7.9-0.5-11.7 0.1 2-0.2 4.1-0.9 6-1.4-0.8-3.3-0.1-4.3 1.1-1 1.3-1.3 3-1.3 4.6-2.2-2.3-2.9-6-1.5-9 1.3-2.9 4.5-4.8 7.8-4.7-0.1-2.8-3.9-4.3-6.4-3.1-2.6 1.2-3.9 4.1-4.4 6.9-1.2 6.7 1.2 14 6.2 18.6-2.2 1-4.7 2.3-5.5 4.6-0.4 1.2-0.3 2.4-0.1 3.6 1.2 7.2 7 13.5 14.1 15.3-3.5-0.9-6.4-0.4-9.9-2.3z"/>
				<g id="&lt;Group&gt;">
					<g id="&lt;Group&gt;">
						<path id="&lt;Path&gt;" class="s36" d="m1283.3 682.3c0.4 3 1.6 5.8 3.5 8.1"/>
						<path id="&lt;Path&gt;" class="s37" d="m1294.1 671q1.1-1.9 2.1-3.7"/>
						<g id="&lt;Group&gt;">
							<path id="&lt;Path&gt;" class="s3" d="m1301 663.3c-2.4-1-3.3-0.7-4.7-0.8q-1 0-2.3-0.1c-0.8 0-1.8-0.1-3-0.4 0.4-1.2 1.2-2 2.2-2.6 0.9-0.6 2-0.9 3.2-0.9 1.2 0 2.5 0.5 3.5 1.4 0.9 0.9 1.4 2.2 1.1 3.4z"/>
						</g>
					</g>
					<g id="&lt;Group&gt;">
						<path id="&lt;Path&gt;" class="s26" d="m1281 664.7c0.7-2.1 0.9-4.2 0.8-6.4-0.1-2.1-0.5-4.3-1.5-6-0.5-0.9-1.2-1.6-1.9-2.2-0.8-0.6-1.7-0.8-2.6-1-2 0-3.9 0.4-5.5 1.6-1.5 1.2-2.6 3-3.3 4.9-0.8 2-1.1 4.1-1.1 6.2 0 2.1 0.3 4.2 1.2 6.1 0.8 2 2.1 3.7 4 5-2.1-0.9-3.8-2.6-4.9-4.5-1.1-2-1.6-4.3-1.8-6.6-0.2-2.3 0.1-4.6 0.8-6.8 0.7-2.2 1.9-4.3 3.9-5.8 2-1.5 4.5-2.1 6.9-1.9 1.2 0.2 2.5 0.6 3.4 1.4 1 0.8 1.8 1.8 2.2 2.9 1 2.2 1.2 4.5 1.1 6.7-0.1 2.3-0.6 4.5-1.7 6.4z"/>
					</g>
					<g id="&lt;Group&gt;">
						<path id="&lt;Path&gt;" class="s26" d="m1270.9 658c-0.2-0.8 0.1-1.6 0.6-2.2 0.5-0.7 1.1-1.2 1.8-1.6 0.7-0.4 1.5-0.8 2.5-0.7 1 0 2 0.7 2.4 1.5 0.5 0.8 0.7 1.7 0.8 2.5q0.1 1.2 0 2.4c-0.1 1.6-0.5 3.2-1 4.7q-0.5 1.1-1.2 2.2c-0.4 0.6-0.7 1.4-1.8 2-2.3 1.1-4.5-1.1-4.4-2.9-0.1-1.9 0.9-3.5 2.3-4.5 1.5-0.9 3.5-0.8 4.5 0.4-1.3-0.8-2.9-0.5-3.9 0.4-1 0.9-1.5 2.3-1.4 3.5 0.1 0.6 0.4 1.1 0.8 1.3 0.4 0.3 1 0.3 1.2 0.1 0.3-0.1 0.7-0.7 1.1-1.3q0.5-1 0.9-1.9c0.6-1.4 0.9-2.7 1-4.2 0.2-1.3 0.2-2.9-0.3-4q-0.3-0.8-1.1-0.9c-0.6-0.2-1.3 0-1.9 0.2-1.3 0.5-2.7 1.4-2.9 3z"/>
					</g>
				</g>
				<path id="&lt;Path&gt;" class="s3" d="m1274.3 613.4c-7.6 1.1-14.9 4.2-20.3 9.6-6.6 6.5-9.8 15.8-10.1 25-0.1 4.5 0.5 8.6 1.2 13.1 0.6 3.6 1.1 8.6-2.1 11.3-0.5 0.3-1 0.8-0.8 1.4 0.1 0.2 0.3 0.4 0.5 0.5 3 2.5 8 2.1 10.7-0.8-0.5 0.4-1 0.9-1.3 1.5-0.2 0.6 0 1.5 0.6 1.8 0.4 0.1 0.8 0 1.2-0.1 2.4-0.5 4.7-1.6 6.7-3 1.6-1.2 3.1-2.6 3.7-4.4 1.3-3.5-0.5-7.4 0.1-11.1 0.5-2.5 2.1-4.6 3.8-6.5 1.2-1.4 2.6-2.8 4.4-3.4 3.9-1.4 7.6 1.4 8.9 4.9 0.8 2.3 0.9 5 0.6 7.4 0 0.6-1.1 7-1.7 6.8 0.9 0.2 1.8-0.4 2.3-1.1 3.5-4.9 5-12.4 5.5-18.3-0.6 2.5 1.8 5 4.3 5.3 2.6 0.3 5.1-1.1 7-2.8-1.3 1.6-2.4 4.1-1.1 5.8 0.8 1 2.2 1.3 3.4 1.2 1.2-0.2 2.3-0.8 3.4-1.4-1.3 1.9-0.7 4.6 0.9 6.1 1.6 1.6 4.1 1.9 6.3 1.3 2.1-0.6 3.9-2.2 5.2-4 3.6-5.1 3.1-12.8-1.2-17.3-1.7-1.7-3.7-3.1-4.9-5.1-0.8-1.2-1.1-2.7-1.6-4-4.7-13.9-19.3-21.2-33.3-20q-1.2 0.1-2.3 0.3z"/>
				<path id="&lt;Path&gt;" class="s38" d="m1274.3 613.9c-1.8 0.1-3.4 0.3-4 0.5-6.1 1.5-11.9 4.4-16.3 8.8-6.6 6.5-9.8 15.8-10.1 25-0.1 4.5 0.5 8.7 1.2 13.1 0.6 3.6 1.1 8.6-2.1 11.3-0.5 0.4-1 0.9-0.8 1.4 0.1 0.2 0.3 0.4 0.5 0.5 3 2.5 8 2.1 10.7-0.8-0.5 0.4-1 0.9-1.3 1.5-0.2 0.7 0 1.5 0.6 1.8 0.4 0.1 0.8 0.1 1.2 0 2.4-0.6 4.7-1.7 6.7-3.1 1.6-1.1 3.1-2.6 3.7-4.4 1.3-3.4-0.5-7.4 0.1-11 0.5-2.5 2.1-4.7 3.8-6.6 1.2-1.4 2.6-2.7 4.4-3.4 3.9-1.4 7.6 1.4 8.9 4.9 0.8 2.3 0.9 5 0.6 7.4 0 0.6-1.1 7-1.7 6.9 0.9 0.2 1.8-0.4 2.3-1.2 3.5-4.9 5-12.4 5.5-18.3-0.6 2.6 1.8 5 4.3 5.3 2.6 0.3 5.1-1.1 7-2.8-1.3 1.7-2.4 4.2-1.1 5.8 0.8 1 2.2 1.4 3.4 1.2 1.2-0.2 2.3-0.7 3.4-1.3-1.3 1.8-0.7 4.5 0.9 6.1 1.6 1.5 4.1 1.9 6.3 1.2 2.1-0.6 3.9-2.1 5.2-4 3.1-4.4 2.5-8.6 0.9-13.3-0.4 2.4-1.2 4.9-2.9 6.6-1.7 1.8-4.6 2.5-6.6 1.1-2-1.4-2.3-4.3-2.7-6.8-0.5-2.5-2-5.4-4.5-5.4-1.5 0.1-2.9 1.2-4.4 0.8-2.1-0.6-1.9-3.8-3.2-5.7-1.2-1.8-3.8-2.2-5.8-1.4-2.1 0.7-3.7 2.2-5.2 3.7 1-1.9 2.1-4.2 1.3-6.2-1.3-3.1-5.6-3.1-8.8-2.1-4.9 1.5-9.6 4.1-13.4 7.5q9-10.2 17.9-20.5c3.3-3.7-1.8-4.2-5.9-4.1z"/>
				<path id="&lt;Path&gt;" class="s3" d="m1256.9 614.7c-2.5-3.4-6.5-5.4-10.6-6.2-9.2-1.7-18.7 2.4-25.4 8.9-8.7 8.4-13.3 20.9-12 33 0.6 5.8 2.6 11.7 6.7 15.9 4 4.3 10.2 6.7 15.9 5.2-0.8 0.8-0.2 2.3 0.8 2.7 1.1 0.5 2.2 0.3 3.3 0 6.7-2.1 12.2-7.7 14.1-14.5 2.1-7.7-0.8-17 3.8-24 4.3-6.7 9.2-13.3 3.4-21z"/>
				<path id="&lt;Path&gt;" class="s38" d="m1249.8 613.2c0.6-2.5-0.9-4.2-3.5-4.7-9.2-1.7-18.7 2.4-25.4 8.9-8.7 8.4-13.3 20.9-12 33 0.6 5.8 2.6 11.7 6.7 15.9 4 4.3 10.2 6.7 15.9 5.2-0.8 0.8-0.2 2.3 0.8 2.7 1.1 0.5 2.2 0.3 3.3 0 6.1-1.9 8.3-5.8 12.2-10.2-2 2.2-5 3.4-7.9 3.2-0.5 0-1-0.1-1.3-0.4-0.6-0.5-0.6-1.3-0.5-2q0.2-3.5 0.4-7.1-3.4 3-6.9 6c-0.6 0.5-1.3 1.1-2.2 1.2-1.7 0.2-3-1.6-3.6-3.3-3-8.3 0.3-17.6 4.8-25.1 4.1-6.7 9.1-12.7 15-17.8 1.4-1.3 3-2.6 3.8-4.3q0.3-0.7 0.4-1.2z"/>
			</g>
			<g id="&lt;Group&gt;">
				<path id="&lt;Path&gt;" class="s3" d="m1318 929.8q0 0.9-0.1 1.9c0 0.3 0 0.7 0.2 0.9 0.2 0.3 0.5 0.3 0.8 0.3 15.3 1 30.7 0.6 46-1.2 0.8-1.1 0.2-2.8-0.9-3.7-1.2-0.9-2.6-1.1-4-1.4-7.4-1.4-14.6-3.4-21.5-6.2-2.3-0.9-4.9-1.5-5.9-3.9-1-2.3-0.1-5.2-1.2-7.5-0.9 0.4-12.8 3.3-12.7 2.1-1 6.2-0.3 12.5-0.7 18.7z"/>
				<g id="&lt;Group&gt;">
					<path id="&lt;Path&gt;" class="s35" d="m1294.7 892.4q-0.1 8.1-0.3 16.1c0 2.2 15.1 2.2 16.8 1.9 0.9-3.6 0.1-7.1 0.4-10.8 0.5-5.3 1.2-10.7 2-16.1q2.4-16.4 6.1-32.7c1.9-8.4 6.9-23.8 1.4-31.9-1.1-1.5-3.3-2-5.2-2.1-9.6-0.4-18.9 6.9-20.8 16.3-0.7 3-0.6 6.1-0.6 9.2 0.3 16.8 0.3 33.4 0.2 50.1z"/>
					<path id="&lt;Path&gt;" class="s39" d="m1294.7 892.4q-0.1 8.1-0.3 16.1c0 2.2 15.1 2.2 16.8 1.9 0.9-3.6 0.1-7.1 0.4-10.8 0.5-5.3 1.2-10.7 2-16.1q2.4-16.4 6.1-32.7c1.9-8.4 6.9-23.8 1.4-31.9-1.1-1.5-3.3-2-5.2-2.1-9.6-0.4-18.9 6.9-20.8 16.3-0.7 3-0.6 6.1-0.6 9.2 0.1 6.1-1.4 14.8 2 20.2 1.4 2.1 3.4 3.8 4.8 5.9 3.8 6 1.7 13.9 3.5 20.8 0-0.6-9.1-5-10.2-5.5 0.6 2.9 0.1 5.7 0.1 8.7z"/>
					<path id="&lt;Path&gt;" class="s16" d="m1313.8 869.8q0.1 1.1 0.3 2.2c0.6 3.6 4.4 47.7 2.5 47.5 6.9 0.6 13.9-0.4 20.3-2.9-1.2-0.9-1.3-2.7-1.3-4.3 0.4-15.7 1.7-31.4 3.9-47 2.1-14.5 3.9-28.9 6.7-43.4 1.5-7.7 3.1-16.8-0.2-24.4-1.5-3.5-4.9-5.9-8.1-7.8-3-1.7-6.4-2.9-8.9-5.3-2.8-2.6-4.1-5.1-8-6.7-9.5-4-19.1-1.4-28.3 1.9q-28.6 10.2-57.1 20.5c-0.5 4.9 0.3 9.8 0.5 14.7 0.1 4.1-0.2 10.8-3.7 13.7-3.3 2.9-10.6 3.6-14.8 4.4-5.3 1-10.8 1.5-16.2 1.6-1.4 0-15.7-0.4-15.7-1.2q-0.2 7.6 0.3 15.1c1.1 14.5 11 22.9 25.4 23.4 12.4 0.5 24.8-2.2 36.4-6.4 11.7-4.2 22.8-9.8 33.8-15.5q9.6-4.8 19.1-9.7c5.2-2.6 10.5-4.6 15.5-7.5-4.5 11.8-4.2 24.8-2.4 37.1z"/>
					<path id="&lt;Path&gt;" class="s17" d="m1316.6 919.4q4.5 0.4 9.1-0.2c1.4-0.1 3-0.2 4.4-0.7 0.5-0.2 1.6-1.1 2.1-1-1.9-0.5-3.4-2.2-4.2-4-0.7-1.9-0.9-3.9-1.1-5.9-1-12.2-0.8-24.5 0-36.7 0.4-6.2 0.8-12.4 1.6-18.6 0.7-5 1.8-9.4 1.2-14.7-0.4-4-1.8-8.2-4.9-10.7q2.3-2.7 4.6-5.3-7.1 3.2-14.1 6.3c-20.7 9.4-41.4 18.7-62.8 26-1.9 0.7-3.9 1.3-6 1.3-2.1 0-4.3-0.9-5.4-2.6-0.3-0.5-0.6-1.2-0.4-1.8 0.2-0.5 0.6-0.8 1-1.2 17.8-14.8 38.9-25 59.8-34.9 9.3-4.5 18.5-8.9 27.9-12.9 5.1-2.2 10.5-4.4 16-4.3-1-3.9-4.1-5.9-7.5-7.9-3-1.7-6.4-2.9-8.9-5.3-2.8-2.7-4.1-5.1-8-6.7-9.5-4-19.1-1.4-28.3 1.9q-28.6 10.2-57.1 20.4c-0.5 4.9 0.3 9.8 0.5 14.8 0.1 4-0.2 10.8-3.7 13.7-3.3 2.8-10.6 3.5-14.8 4.3-5.3 1-10.8 1.6-16.2 1.6-1.4 0-15.7-0.3-15.7-1.1q-0.2 7.5 0.3 15.1c1.1 14.5 11 22.9 25.4 23.4 12.4 0.5 24.8-2.2 36.4-6.4 11.7-4.2 22.8-9.9 33.8-15.5q9.6-4.9 19.1-9.8c5.2-2.6 10.5-4.6 15.5-7.4-4.5 11.7-4.2 24.8-2.4 37.1q0.1 1.1 0.3 2.2c0.6 3.5 4.4 47.6 2.5 47.5z"/>
					<path id="&lt;Path&gt;" class="s17" d="m1285.8 813.5c4.7-1.4 9.4-2.7 14.1-4.2 8.8-2.7 17.4-5.7 26-8.9q6.4-2.3 12.8-4.8c5.4-2 3.2-3.7-0.8-6-3-1.7-6.4-2.9-8.9-5.3-2.8-2.7-4.1-5.1-8-6.7-9.5-4-19.1-1.4-28.3 1.9q-28.6 10.2-57.1 20.4c-0.5 4.9 0.3 9.8 0.5 14.8 0.2 7.7-1.4 16.1-8.3 20.7-4.5 3-10.1 4.1-15.5 4.7-8.8 0.9-17.8 0.6-26.5-0.9 14.2 10.6 34.4 11.5 50.3 3.7 8.5-4.2 15.7-10.5 23.1-16.3 3.8-2.9 7.7-5.7 11.9-8 4.6-2.5 9.7-3.6 14.7-5.1z"/>
				</g>
			</g>
			<g id="&lt;Group&gt;">
				<path id="&lt;Path&gt;" class="s4" d="m1342.8 785.6l-53.5 22-21.4-25 44.2-17.9z"/>
				<path id="&lt;Path&gt;" class="s40" d="m1329.7 780.3q0 0.4-0.1 0.7c-0.4 1.4-1.8 2.2-3 3q0.8 0.2 1.6 0.4c0.2 0 0.3 0.1 0.4 0.2 0.1 0.2-0.1 0.4-0.2 0.5-4 4.9-9.5 8.6-15.5 10.6-6.1 1.9-13 2.2-17.9 6.2-1.7 1.4-3.1 4-4.9 5-1.2 0.6-1.6-0.2-2.3-1.1q-2.1-2.4-4.2-4.9-7.9-9.2-15.7-18.3 6.9-2.8 13.8-5.6 6.1-2.5 12.2-4.9c2.6-1.1 5.5-2.5 8.3-3-0.1 0.7-0.9 1.3-1.3 1.8 1.2 0.1 2.4 0.1 3.6 0.1 0.5 0 1 0.1 1.2 0.6-2.2 1.6-4.8 2.4-7.4 3.1-1.5 0.3-2.9 0.6-4.4 0.9-0.9 0.2-2.8 1.2-3.7 1q1.4 0.3 2.8 0.8c0.2 0.1 0.5 0.2 0.6 0.4 0.1 0.4-0.2 0.7-0.6 1-0.6 0.4-3 1.7-2.9 2.6 0.2 0.9 2.3 0.6 3 0.5 0.6-0.1 1.2-0.3 1.8-0.3 0.6 0.1 1.2 0.6 1.1 1.2 4.8-1.6 9.3-3.9 13.3-6.8 1.4-1 2.8-2 4.5-2 0.3 0 0.8 0.1 1 0.4 0.1 0.4 0 0.8-0.3 1.1-1.1 1.9-3 3.1-4.8 4.3 5.1-2.3 10.9-3.5 16.6-3.5 0.7 0.1 1.7 0.2 2 0.9 0.4 0.9-0.4 1.7-1.2 2.3 0.8 0.4 2-0.2 2.5 0.5q0.1 0.2 0.1 0.3z"/>
				<path id="&lt;Path&gt;" class="s3" d="m1312.1 764.7l9.2-64.9 34.3 12.7-12.8 73.1z"/>
				<path id="&lt;Path&gt;" class="s3" d="m1289.3 807.6v6.7l53.5-21.1v-7.6z"/>
				<path id="&lt;Path&gt;" class="s5" d="m1289.3 814.3l-21.6-25.7 0.2-6 21.4 25z"/>
				<path id="&lt;Path&gt;" class="s9" d="m1316 762.6l7.6-57.7 27.6 10.4-11.2 63.5z"/>
				<path id="&lt;Path&gt;" class="s41" d="m1316 762.6c-1.7-1.2 2.5-11.6 3.2-13.1 2.1-4.5 5.4-8.5 9.9-10.7 3.8-1.8 8.2-2.4 11.6-4.9 3.9-2.9 5.8-8.2 4.9-13-0.9-4.8-4.4-9-8.8-11 4.5 2.1 9.6 3.6 14.4 5.4l-11.2 63.5c0 0-23.8-16.1-24-16.2z"/>
			</g>
			<g id="&lt;Group&gt;">
				<g id="&lt;Group&gt;">
					<path id="&lt;Path&gt;" class="s19" d="m1272.7 772.7c2.5-1.5 4.8-2.9 8-3.4 5.5-0.8 10.9-0.9 16.5-0.6 0.2 0.1 0.4 0.1 0.6 0.3 0.1 0.2 0 0.5-0.2 0.6-0.2 0.2-0.4 0.2-0.7 0.3-1 0.2-2.5 0.1-3.2 1q3.2 0.2 6.3 0.4 0 0.6 0.2 1c-3.5 0.6-7.1 1-10.5 1.8q-2.6 0.5-5.1 1.5c-1 0.4-3.3 2-4.4 1.9q2.5 0.1 4.9 0.2c0.5 0 1 0.1 1.4 0.3 0.4 0.3 0.6 0.8 0.3 1.2-0.1 0.2-0.3 0.3-0.5 0.4q-2.5 1.2-5 2.4c-1.3 0.6-2.6 1.2-3.9 1.5-1.5 0.4-3 0.4-4.5 0.4-4.7 0.1-9.2 0.4-13.9-0.2-0.3 0-0.6-0.1-0.8-0.3-0.1-0.2-0.2-0.4-0.2-0.6q-0.5-1.8-0.9-3.6c4.5-1.1 8.9-2.8 13.1-5.1q1.3-0.7 2.5-1.4z"/>
					<path id="&lt;Path&gt;" class="s20" d="m1293.7 770.9q3.2 0.2 6.3 0.4 0 0.6 0.2 1c-3.5 0.6-7.1 1-10.5 1.8q-2.6 0.5-5.1 1.5c-1 0.4-3.3 2-4.4 1.9q2.5 0.1 4.9 0.2c0.5 0 1 0.1 1.4 0.3 0.4 0.3 0.6 0.8 0.3 1.2-0.1 0.2-0.3 0.3-0.5 0.4q-2.5 1.2-5 2.4c-1.3 0.6-2.6 1.2-3.9 1.5-1.5 0.4-3 0.4-4.5 0.4-4.7 0.1-9.2 0.4-13.9-0.2-0.3 0-0.6-0.1-0.8-0.3-0.1-0.2-0.2-0.4-0.2-0.6q-0.5-1.8-0.9-3.6 3.2-0.8 6.3-2c1.6-0.6 3.2-1.3 4.9-2.1q0.1 0 0.2 0 0.1 0 0.1 0.2c0.6 0.7 0.5 1.7 0.9 2.5 0.4 0.7 1.1 1.3 1.9 1.7 1.1 0.5 2.2 0.7 3.4 0.8 3.3 0.2 7 0.1 9.5-2q-4.1-0.7-8.2-1.8c4.6-2.3 9.6-3.7 14.7-4 2.9-0.2 6-0.1 8.7-1.3q-6.5-0.2-12.9-0.3c3.4-1.9 7.4-1.9 11.2-1.9 0.5 0.9-1.2 0.9-1.6 1-0.8 0.1-1.9 0.1-2.5 0.9z"/>
					<path id="&lt;Path&gt;" class="s42" d="m1266.9 775.9c0.2 3.5 1 7.1 2.1 10.5 0.6 1.7-28.1 9.1-30.9 9.4q-0.5-8.1-0.2-16.1 7.7-0.1 15.3-1.1c4.5-0.6 9.4-1.1 13.7-2.7z"/>
					<path id="&lt;Path&gt;" class="s43" d="m1267.1 775.7c0.3 3.6 1 7.1 2.1 10.5 0.6 1.8-28 9.1-30.9 9.4q-0.4-8-0.1-16.1 7.6-0.1 15.2-1.1c4.6-0.6 9.4-1.1 13.7-2.7z"/>
				</g>
				<path id="&lt;Path&gt;" class="s13" d="m1244.8 802.2c0.4 6.3 1.4 12.4 3.4 18.3 0.3 0.9 0.6 1.8 0.4 2.7-0.2 0.4-0.5 0.8-0.7 1.2-11.7 16.3-30.2 19.2-48.9 17.2-5.5-0.6-11.3-1.7-15.6-5.4-0.6-0.5-1.2-1.1-1.5-1.9-0.7-2 1-4.8 1.6-6.8 0.7-2.7 0.9-5.1 0.8-8-1.2-23.4-3.2-47.3 2.2-70.2 4.9-20.9 16.5-44 34.7-56.4 4.8-3.2 10-5.7 15.5-7.6 5.7 6.9 11 14.1 12.8 22.8 3 14.4-0.3 30.7-1.4 45.2-1.3 15.5-4.3 32.7-3.3 48.9z"/>
				<path id="&lt;Path&gt;" class="s44" d="m1244.8 802.2c0.4 6.3 1.4 12.4 3.4 18.3 0.3 0.9 0.6 1.8 0.4 2.7-0.2 0.4-0.5 0.8-0.7 1.2-11.7 16.3-30.2 19.2-48.9 17.2-5.5-0.6-11.3-1.7-15.6-5.4-2.5-2.1-1-3.8-0.9-6.5 1 1.7 2.8 2.5 4.7 2.2 1.9-0.3 3.5-1.5 4.9-2.9 5.5-5.4 8.1-13 9.5-20.6 3.2-16.9 0.7-34.3 1.7-51.4 1.1-18.5 6.8-37.4 19.8-50.5 4.3-4.4 10.1-8.3 16.3-8.9 7.4-0.6 8.8 4 10.1 10.5 3 14.4-0.3 30.7-1.4 45.2-1.3 15.5-4.3 32.7-3.3 48.9z"/>
				<g id="&lt;Group&gt;">
					<path id="&lt;Path&gt;" class="s19" d="m1299.3 783.5c0.5-1 0.9-2.1 1.7-3 0.9-0.9 2.1-1.5 3.2-2q3.4-1.5 6.9-3.1c-0.6 1.9-1.9 3.6-3.7 4.5 6.1-0.3 11.5-4.9 17.5-4.3-0.8 1-1.8 1.8-3 2.4 1.5-0.2 2.9-0.1 4.3 0.2q-1.1 1.4-2.5 2.3c0.9-0.2 1.9 0 2.7 0.6q-1.6 1.4-3.1 2.8 1 0.2 2 0.5c0.1 0.3-0.2 0.6-0.5 0.8-5 3.4-10.6 7-16.6 8.1-3 0.6-6.1 0.5-9.1 0.9-4.4 0.6-7.2 2.8-11.2 4-0.1 0-0.3 0.1-0.5 0-0.1-0.1-0.2-0.2-0.2-0.3q-1.5-4-2.5-8c3.2-0.9 6.5-1.6 9.6-2.8 1.3-0.6 3-1.2 4.1-2.3 0.4-0.4 0.7-0.8 0.9-1.3z"/>
					<path id="&lt;Path&gt;" class="s20" d="m1295.8 786.6c-0.6 2 0.5 4.5 2.5 5.3 1.4 0.6 3.1 0.3 4.7 0 7.4-1.4 15-3.2 20.8-7.9-1.1-0.2-2.3 0.2-3.4 0.6q-4 1.4-8.2 2.5c2.5-1.8 5.3-3 8.1-4.2q2.6-1.1 5.1-2.2c-1.1-0.9-2.7-0.4-4.1 0.2q-3.6 1.3-7.2 2.7c-0.7 0.3-1.4 0.6-2.2 0.5q6.6-3.1 13.4-5.8c-1.6-0.6-3.4-0.4-5 0.2-1.4 0.5-2.6 1.5-4 2.1-1.3 0.6-2.7 1.1-4 1.7q4.5-3.2 9.6-5.5c0.5-0.3 1.1-0.6 1-1.2q1-0.2 1.9-0.1c-0.6 1.1-1.8 1.9-2.9 2.5 1.5-0.2 2.9-0.1 4.3 0.2q-1.1 1.4-2.5 2.3c0.9-0.2 1.9 0 2.7 0.6q-1.6 1.4-3.1 2.8 1 0.2 2 0.5c0.1 0.3-0.2 0.6-0.5 0.8-5 3.4-10.6 7-16.6 8.1-3 0.6-6.1 0.5-9.1 0.9-4.4 0.6-7.2 2.8-11.2 4-0.1 0-0.3 0.1-0.5 0-0.1-0.1-0.2-0.2-0.2-0.3q-1.5-4-2.5-8c3.2-0.9 6.5-1.6 9.6-2.8q0.5-0.2 1.1-0.5"/>
					<path id="&lt;Path&gt;" class="s20" d="m1304.9 780c1.2-0.7 2.3-1.4 3.4-2.3 0.8-0.6 1.8-2.1 2.8-2.2-0.3 1.4-1.2 2.6-2.3 3.5-0.5 0.5-1 0.7-1.6 0.9-0.6 0.1-1.9-0.2-2.3 0.1z"/>
					<path id="&lt;Path&gt;" class="s13" d="m1223 823.2c-5.9-1.3-5.9-5.5-6.8-10.8q-1-5.6-1.7-11.2-1.6-11.2-2.3-22.4c-1-15.3-0.6-30.8 2.8-45.7 1.4-6.1 3.4-12.3 7.4-17 4.1-4.8 10.6-7.9 16.6-6.5 2.7 0.7 4 2.8 5 5.4 1.1 2.6 1.1 5.5 1.2 8.2 0.2 24.4-1.2 48.8-2.4 73.1q12.4-2.4 24.8-4.5c7.6-1.3 16-2.5 23.3-5 0.2 0 0.4-0.1 0.7 0 0.3 0.1 0.5 0.5 0.6 0.9q0.9 3 1.8 6.1c0.2 0.6 0.4 1.4 0.1 2-0.2 0.6-0.8 0.9-1.3 1.2-16.7 9.6-33.6 18.4-52.3 23.5-5.5 1.5-11.6 3.9-17.2 2.8q-0.2-0.1-0.3-0.1z"/>
					<path id="&lt;Path&gt;" class="s45" d="m1227.1 802.8c1.1-4.7 3.9-8.9 4.5-13.7 0.7-6-2.1-11.7-4-17.4-4.2-12.9-3.6-27.4 1.6-39.9 1.7-4.3 2.4-8.5 0.7-12.9-0.9-2.3-2.7-4.6-5.1-4.7 0.7 0 3.5-2.5 4.5-2.9 1.9-0.9 4-1.3 6.1-1.3 4-0.1 7.1 1.1 8.6 5 1.1 2.6 1.1 5.5 1.2 8.2 0.2 24.4-1.2 48.8-2.4 73.1q12.4-2.4 24.8-4.5c7.6-1.3 16-2.5 23.3-5 0.2 0 0.4-0.1 0.7 0 0.3 0.1 0.5 0.5 0.6 0.9q0.9 3 1.8 6.1c0.2 0.6 0.4 1.4 0.1 2-0.2 0.6-0.8 0.9-1.3 1.2-8.7 5-16.3 9.6-25.9 12.8 4.5-4.4 8.6-9.2 12.2-14.4-1.1-1.8-3.7-2-5.9-1.9-8.4 0.2-16.8 1.1-25.1 2.6-6.5 1.2-16 2-21 6.7z"/>
					<g id="&lt;Group&gt;" style="mix-blend-mode: multiply">
						<path id="&lt;Path&gt;" class="s42" d="m1258.2 793.5c-5.5 1.7-11.1 2.6-16.5 3.9-2.7 0.6-5.3 1.4-7.9 2.5-2.5 1.1-5.1 2.3-7.6 3.6 2.1-1.9 4.4-3.6 7-5 1.2-0.7 2.5-1.3 3.9-1.8 1.4-0.5 2.8-0.9 4.2-1.2 5.5-1.3 11.2-1.8 16.9-2z"/>
					</g>
				</g>
			</g>
			<g id="&lt;Group&gt;">
				<path id="&lt;Path&gt;" class="s3" d="m1278.6 876l48.2 28h-48.2l10.7-11.8z"/>
				<path id="&lt;Path&gt;" class="s4" d="m1278.6 904l33.5 23.1v20.7h14.7v-43.8z"/>
			</g>
			<g id="&lt;Group&gt;">
				<path id="&lt;Path&gt;" class="s42" d="m1463.3 559.9c0 23.6-38.8 42.7-86.6 42.7q-2.2 0-4.5 0c-3.4 17-12.1 30.4-25.4 40.7 8.5-12.3 13.8-25.8 13.2-41.5-39.9-3.8-69.9-21.1-69.9-41.9 0-23.6 38.8-42.7 86.6-42.7 47.8 0 86.6 19.1 86.6 42.7z"/>
				<g id="&lt;Group&gt;">
					<path id="&lt;Path&gt;" class="s46" d="m1345.2 539.8h60"/>
					<path id="&lt;Path&gt;" class="s46" d="m1316.5 552.5h116"/>
					<path id="&lt;Path&gt;" class="s46" d="m1329.9 565.9h90.6"/>
					<path id="&lt;Path&gt;" class="s46" d="m1356.2 580.2h39.1"/>
				</g>
			</g>
		</g>
		<g id="&lt;Group&gt;">
			<path id="&lt;Path&gt;" class="s8" d="m1441.2 506.1h-199c-6.8 22.3-25.2 42.8-47.1 62.8 13.5-22 25.7-43.7 24.9-62.8h-20.2v-127.1h241.4z"/>
			<path id="&lt;Path&gt;" class="s42" d="m1441.2 409.9h-241.4v-30.9h241.4z"/>
			<g id="&lt;Group&gt;">
				<path id="&lt;Path&gt;" class="s7" d="m1441.2 409.9h-32.5v-30.9h32.5z"/>
				<g id="&lt;Group&gt;">
					<path id="&lt;Path&gt;" class="s47" d="m1415.8 402.8l19.7-18.8"/>
					<path id="&lt;Path&gt;" class="s47" d="m1415.8 384l19.7 18.8"/>
				</g>
			</g>
			<g id="&lt;Group&gt;">
				<path id="&lt;Path&gt;" class="s7" d="m1220 393.4c0 2.6-2.1 4.7-4.7 4.7-2.6 0-4.7-2.1-4.7-4.7 0-2.6 2.1-4.7 4.7-4.7 2.6 0 4.7 2.1 4.7 4.7z"/>
				<path id="&lt;Path&gt;" class="s7" d="m1241 393.4c0 2.6-2.2 4.7-4.8 4.7-2.5 0-4.7-2.1-4.7-4.7 0-2.6 2.2-4.7 4.7-4.7 2.6 0 4.8 2.1 4.8 4.7z"/>
				<path id="&lt;Path&gt;" class="s7" d="m1261.4 393.4c0 2.6-2.1 4.7-4.7 4.7-2.6 0-4.7-2.1-4.7-4.7 0-2.6 2.1-4.7 4.7-4.7 2.6 0 4.7 2.1 4.7 4.7z"/>
			</g>
			<g id="&lt;Group&gt;">
				<path id="&lt;Path&gt;" class="s48" d="m1251.8 431.1h130.3"/>
				<path id="&lt;Path&gt;" class="s48" d="m1214.6 445.6h210.4"/>
				<path id="&lt;Path&gt;" class="s48" d="m1231.5 461.2h173.7"/>
				<path id="&lt;Path&gt;" class="s48" d="m1244.5 476.7h148.2"/>
			</g>
		</g>
		<g id="&lt;Group&gt;">
			<path id="&lt;Path&gt;" class="s8" d="m1463.3 352.6h-229.2v-288.6h229.2z"/>
			<path id="&lt;Path&gt;" class="s5" d="m1234.1 64v26.8h229.2v-26.8z"/>
			<g id="&lt;Group&gt;">
				<path id="&lt;Path&gt;" class="s8" d="m1455.1 77.4c0 3.8-3.1 6.8-6.9 6.8-3.7 0-6.8-3-6.8-6.8 0-3.8 3.1-6.8 6.8-6.8 3.8 0 6.9 3 6.9 6.8z"/>
				<path id="&lt;Path&gt;" class="s8" d="m1434.4 77.4c0 3.8-3.1 6.8-6.9 6.8-3.7 0-6.8-3-6.8-6.8 0-3.8 3.1-6.8 6.8-6.8 3.8 0 6.9 3 6.9 6.8z"/>
				<path id="&lt;Path&gt;" class="s8" d="m1414.1 77.4c0 3.8-3 6.8-6.8 6.8-3.8 0-6.8-3-6.8-6.8 0-3.8 3-6.8 6.8-6.8 3.8 0 6.8 3 6.8 6.8z"/>
			</g>
			<g id="&lt;Group&gt;">
				<path id="&lt;Path&gt;" class="s7" d="m1260.9 90.8h-26.8v-26.8h26.8z"/>
				<g id="&lt;Group&gt;">
					<path id="&lt;Path&gt;" class="s49" d="m1240.7 84.2l15.1-13.6"/>
					<path id="&lt;Path&gt;" class="s49" d="m1240.7 70.6l14.4 14.3"/>
				</g>
			</g>
			<g id="&lt;Group&gt;">
				<path id="&lt;Path&gt;" class="s1" d="m1448.2 338.8h-197.8v-134.6h197.8z"/>
				<path id="&lt;Path&gt;" class="s0" d="m1448.2 338.8h-12.7v-134.6h12.7z"/>
				<path id="&lt;Path&gt;" class="s1" d="m1441.9 325.9c-2.1 0-3.8-1.7-3.8-3.8v-20.7c0-2.1 1.7-3.8 3.8-3.8 2.1 0 3.8 1.7 3.8 3.8v20.7c0 2.1-1.7 3.8-3.8 3.8z"/>
				<g id="&lt;Group&gt;">
					<g id="&lt;Group&gt;">
						<path id="&lt;Path&gt;" class="s16" d="m1264.7 240.3c0 0 1.3-14.1 7.1-14.1 5.8 0 7.9 14.1 7.9 14.1z"/>
						<path id="&lt;Path&gt;" class="s16" d="m1278.9 222.2c0 3.9-3.2 7.1-7.1 7.1-3.9 0-7.1-3.2-7.1-7.1 0-3.9 3.2-7.1 7.1-7.1 3.9 0 7.1 3.2 7.1 7.1z"/>
					</g>
					<g id="&lt;Group&gt;">
						<path id="&lt;Path&gt;" class="s7" d="m1406.3 273.4c0 0 1.3-14.1 7.1-14.1 5.9 0 7.9 14.1 7.9 14.1z"/>
						<path id="&lt;Path&gt;" class="s7" d="m1420.5 255.3c0 3.9-3.2 7-7.1 7-3.9 0-7.1-3.1-7.1-7 0-4 3.2-7.1 7.1-7.1 3.9 0 7.1 3.1 7.1 7.1z"/>
					</g>
					<g id="&lt;Group&gt;">
						<path id="&lt;Path&gt;" class="s16" d="m1264.3 324.9c0 0 1.3-14.1 7.1-14.1 5.9 0 7.9 14.1 7.9 14.1z"/>
						<path id="&lt;Path&gt;" class="s16" d="m1278.5 306.8c0 3.9-3.2 7.1-7.1 7.1-3.9 0-7.1-3.2-7.1-7.1 0-3.9 3.2-7.1 7.1-7.1 3.9 0 7.1 3.2 7.1 7.1z"/>
					</g>
					<g id="&lt;Group&gt;">
						<path id="&lt;Path&gt;" class="s50" d="m1291.5 215.8h117.2"/>
						<path id="&lt;Path&gt;" class="s50" d="m1291.5 224.8h117.2"/>
						<path id="&lt;Path&gt;" class="s50" d="m1291.5 234.5h98.9"/>
					</g>
					<g id="&lt;Group&gt;">
						<path id="&lt;Path&gt;" class="s34" d="m1392.8 255.3h-92.3"/>
						<path id="&lt;Path&gt;" class="s34" d="m1392.8 264.8h-80.4"/>
						<path id="&lt;Path&gt;" class="s34" d="m1393.2 275.1h-68.8"/>
					</g>
					<g id="&lt;Group&gt;">
						<path id="&lt;Path&gt;" class="s50" d="m1291.5 299.7h117.2"/>
						<path id="&lt;Path&gt;" class="s50" d="m1292.1 308.9h117.1"/>
						<path id="&lt;Path&gt;" class="s50" d="m1291.9 317.9h92.2"/>
					</g>
				</g>
			</g>
			<g id="&lt;Group&gt;">
				<g id="&lt;Group&gt;">
					<path id="&lt;Path&gt;" class="s51" d="m1319.4 113.1h126.3"/>
					<path id="&lt;Path&gt;" class="s51" d="m1329 122.2h109.1"/>
					<path id="&lt;Path&gt;" class="s51" d="m1339.9 133.9h87.6"/>
					<path id="&lt;Path&gt;" class="s51" d="m1340.6 145.2h87.6"/>
					<path id="&lt;Path&gt;" class="s51" d="m1341 157.5h87.6"/>
					<path id="&lt;Path&gt;" class="s51" d="m1319.4 169.5h122"/>
					<path id="&lt;Path&gt;" class="s51" d="m1319.4 180.8h122.5"/>
				</g>
				<g id="&lt;Group&gt;">
					<path id="&lt;Path&gt;" class="s16" d="m1305.7 185.4h-55.3v-77.2h55.3z"/>
					<g id="&lt;Group&gt;">
						<path id="&lt;Path&gt;" class="s19" d="m1293 128.4c0 8.2-6.3 14.9-14.1 14.9-7.9 0-14.2-6.7-14.2-14.9 0-8.3 6.3-15 14.2-15 7.8 0 14.1 6.7 14.1 15z"/>
						<path id="&lt;Path&gt;" class="s42" d="m1279.5 146.8c-26.1 0-22.1 38.6-22.1 38.6h42.6c0 0 5.7-38.6-20.5-38.6z"/>
						<path id="&lt;Path&gt;" class="s8" d="m1279.5 146.8c-5.6 0-9.8 1.8-13 4.6-5.8 5.1 7.9 12.1 13.2 1.6 5.8 9.1 18.5 4.4 13.4-0.9-3.1-3.2-7.5-5.3-13.6-5.3z"/>
					</g>
				</g>
			</g>
		</g>
		<g id="&lt;Group&gt;">
			<path id="&lt;Path&gt;" class="s8" d="m1191.3 188.3h-67.8c-1.3 25.4-11.4 44.2-28.9 57.4 7.7-16.5 13.1-34.2 9.2-57.4h-209.1c-12.9 0-23.3-10.4-23.3-23.3v-111.6c0-12.8 10.4-23.3 23.3-23.3h296.6c12.9 0 23.3 10.5 23.3 23.3v111.6c0 12.9-10.4 23.3-23.3 23.3z"/>
			<g id="&lt;Group&gt;">
				<path id="&lt;Path&gt;" class="s48" d="m1004.2 153.9h168.8"/>
				<path id="&lt;Path&gt;" class="s48" d="m1029.9 132.2h122.8"/>
				<path id="&lt;Path&gt;" class="s48" d="m1004.2 110.1h182.9"/>
				<path id="&lt;Path&gt;" class="s48" d="m1004.2 87.5h182.9"/>
				<path id="&lt;Path&gt;" class="s48" d="m1004.2 64h182.9"/>
			</g>
			<path id="&lt;Path&gt;" class="s5" d="m975.1 170h-77.6c-7.1 0-12.9-5.8-12.9-12.9v-97.2c0-7.1 5.8-12.8 12.9-12.8h77.6c7.1 0 12.9 5.7 12.9 12.8v97.2c0 7.1-5.8 12.9-12.9 12.9z"/>
			<path id="&lt;Path&gt;" class="s52" d="m975.2 170h-77.6c-7.1 0-12.9-5.8-12.9-12.9q0-11.8 0-23.6 0-11.1 0-22.2c0-7.3-0.9-15.3 0.2-22.5 0.5-3.3 2.3-5.8 4.8-8 12.2-10.7 29.9-13.3 45.8-10.4 6.6 1.2 13.1 3.2 18.6 7 11.7 7.9 17.5 22.2 19.9 36.2 1.1 6.4 1.8 13 4.9 18.7 1.1 1.9 2.6 3.8 4.8 4.3 2.1 0.4 4.8-1.2 4.5-3.4 0.3 2.2-0.1 16.1-0.1 23.9 0 7.1-5.7 12.9-12.9 12.9z"/>
			<g id="&lt;Group&gt;">
				<path id="&lt;Path&gt;" class="s7" d="m895.9 170l9.8-39.1c2.4-9.6 11.1-16.4 21-16.4h19.3c9.9 0 18.5 6.8 21 16.3l9.9 39.2z"/>
				<path id="&lt;Path&gt;" class="s53" d="m895.9 170l9.8-39.1c2.4-9.6 11.1-16.4 21-16.4q5.2 0 10.5 0c1.8 0 5-0.6 6.7 0.1 2.1 0.8 4.6 2 6.2 3.7 0.4 0.4 0.7 0.8 0.8 1.4 0.1 1-0.7 1.8-1.5 2.4-7.8 5.8-16.9 5-25.3 1.4-1.8 6.8 6 11 6.4 17.4 0.2 3.9-2.4 7.2-4.6 10.3q-3.4 4.9-6 10.2c4.6 0.6 9.1-1.7 13-4.2 4-2.6 8-5.4 12.6-6-2.1 5.2-5.1 10-8.7 14.2 3 0.2 5.9-1.4 8.1-3.4 4.7-4.3 7.5-10.3 9.1-16.4 1.6-6.2 2.1-12.5 3.2-18.8 1 11.6 2.9 23.8 9.7 33.6q1.6 2.2 3.5 4.2c1 1 4 2.5 4.6 3.7 1 2.1-2.2 1.7-4.1 1.7q-2.7 0-5.4 0-15.4 0-30.9 0-19.4 0-38.7 0z"/>
				<path id="&lt;Path&gt;" class="s19" d="m956.3 81.6c0 4.9-1.3 9.9-4.1 14-1.2 1.9-2.7 3.6-4.5 5-0.6 0.5-4.8 2.7-4.8 2.8q-0.5 3.1-0.6 6.2c-0.2 4.5 0.5 8.6 5 10.4-3.3 1.9-7.1 3.2-11 3.3-3.9 0.1-7.9-1.2-10.7-3.9 2-0.8 3.7-2.3 4.8-4.2 1.5-2.8 1.3-6.1 1.2-9.3-0.2-4.3-6.2-5.8-8.7-8.9-3.3-4.4-5-9.9-5-15.4 0-12.6 8.6-22.9 19.2-22.9 10.6 0 19.2 10.3 19.2 22.9z"/>
				<path id="&lt;Path&gt;" class="s21" d="m951.5 72.3c-3.1-0.1-6.2-0.8-9-1.9q0.1 0.7 0.3 1.4c-1.5 0.1-3.2-0.2-4.7-0.6-0.8-0.2-3.8-1.1-4.1-2q0.8 2 1.9 3.9c-2.3 0.2-4.6-0.3-6.6-1.5q0.4 1.4 0.7 2.9c-1.2-0.2-2.4-0.8-3.2-1.8q-0.8 3.9-1.1 7.9-0.8-1-1.7-1.9c-0.1 4.2 0.2 8.5 1.1 12.6 0.4 2.1 1.1 4.3 2.5 5.8 1.7 1.8 4.1 2.3 6.2 3.4 2.3 1.2 5 1.3 7.6 1.1 1.7-0.1 3.4-0.4 5.1-0.7-2.6 1.6-4.5 3.6-6.2 6.1-2.3 3.4-5.6 6.3-9.3 8.1 0.4-3.1 0.7-6.1 0.6-9.2-0.2-4.3-6.2-5.8-8.7-8.9-3.3-4.4-5-9.9-5-15.4 0-12.6 8.6-22.9 19.2-22.9 3.5 0 6.9 1.2 9.8 3.2 1 0.7 7.7 7.8 6.3 8.1-1.1 0.3-2.1 0.3-3.2 0.1q0.7 1.1 1.5 2.2z"/>
				<path id="&lt;Path&gt;" class="s13" d="m913.3 71.2c-1.1 5.6-1.2 12-1.2 17.3-0.1 7.6 0.8 15.1-0.5 22.6 2.2-0.1 4.2-2 4.4-4.2 0.3 1.4 0.4 2.8 0.3 4.2 1.5-0.3 3-1.4 3.6-2.8q-0.1 1.8-0.3 3.5c1.9-0.2 3.6-1.6 4.1-3.4 1.5 2.3 7.9 6.2 8.2 1 0.2-2.6 0.2-5.7-1.8-7.5-0.9-0.8-2.1-1.2-3.2-1.8-2.1-1.3-3.4-3.5-4-5.8-0.7-2.2-0.4-4.3-0.7-6.5-0.3-1.9-0.9-3.7-1-5.6-0.4-4.1-0.1-8.3 1.6-12.1q1.1 2.5 2.2 5c0.6-3.4 0.9-7.1 2.2-10.3 0.8 2.5 2.7 4.7 5.2 5.8 0.1-1.7-0.3-3.4-1.2-4.9 2.5 2.3 5.8 3.6 9.1 3.6-0.5-1.2-1.2-2.2-2.1-3 2.3 2.3 5.8 3.5 9.1 3.1q-1.3-1.2-2.7-2.3 3.3 1 6.5 2.1c0.6 0.2 1.3 0.4 1.6 0.9 0.4 0.5 0.5 1.1 0.5 1.8 0.5 7.5-0.1 15.1-1.7 22.6-0.4 1.6-0.5 3-1.8 4.2-1.3 1.1-2.9 2-4.4 2.8-0.7 0.4-1.4 0.8-2 1.3-1 0.8-1.1 1.7-1.2 2.8q-0.3 2.7-0.4 5.4c0 0.3 0 0.5 0.2 0.7 0.1 0.2 0.4 0.3 0.7 0.4 1.6 0.5 3.5 0.9 4.7-0.3 0.9-0.9 0.8-2.4 1.5-3.6 0.4 2.3 2.8 3.9 5.1 3.6 0.2-0.1 0.4-0.1 0.6-0.3 0.3-0.2 0.4-0.6 0.4-1q0.3-1.6 0.6-3.2c-0.2 1.2 5.1 5.3 6 5.7-0.5-2.2-1.4-4.4-2.2-6.6 1.5 1.6 3.3 3 5.2 4-2.1-6.8-2.1-14-1.6-21 0.6-7.1 0.7-13.2-0.8-20.2-4.6-21.4-40.9-22-47.8-1.9q-0.6 1.9-1 3.9z"/>
				<path id="&lt;Path&gt;" class="s22" d="m951.7 68.9c0.8 1 1.4 1.6 1.5 3 0.5 7.5-0.1 15.1-1.7 22.6-0.4 1.6-0.5 3-1.8 4.2-1.3 1.1-2.9 2-4.4 2.8-0.7 0.4-1.4 0.8-2 1.3-1 0.8-1.1 1.7-1.2 2.8q-0.3 2.7-0.4 5.4c0 0.3 0 0.5 0.2 0.7 0.1 0.2 0.4 0.3 0.7 0.4 1.6 0.5 3.5 0.9 4.7-0.3 0.9-0.9 0.8-2.4 1.5-3.6 0.4 2.3 2.8 3.9 5.1 3.6 0.2-0.1 0.4-0.1 0.6-0.3 0.3-0.2 0.4-0.6 0.4-1q0.3-1.6 0.6-3.2c-0.2 1 1.8 2.4 2.4 3 0.9 0.8 3.1 1.8 3.7 2.8-2.3-4.1-3.7-8.7-4.1-13.4-0.6-6.7 0.7-13.4 0.1-20.1-0.2-2.7-0.8-5.3-2.1-7.7-0.8-1.4-2.1-2.8-3.8-3z"/>
				<path id="&lt;Path&gt;" class="s22" d="m920.9 74c-3 7.3-3.2 15.8-0.9 23.4 0.7 2.4 1.6 4.7 2 7.2 0.3 2.6-0.2 5-1.7 7.1 0.8 0 4-2.3 3.4-3.3 1.5 2.3 7.9 6.2 8.2 1 0.2-2.6 0.2-5.7-1.8-7.5-0.9-0.8-2.1-1.2-3.2-1.8-2.1-1.3-3.4-3.5-4-5.8-0.7-2.2-0.4-4.3-0.7-6.5-0.3-1.9-0.9-3.7-1-5.6-0.5-4.4 0.2-8.3 1.8-12.4q-1.3 2-2.1 4.2z"/>
				<g id="&lt;Group&gt;">
					<path id="&lt;Path&gt;" class="s34" d="m931.9 90c3.5 4.2 9.6 4.6 12.7-0.1"/>
					<path id="&lt;Path&gt;" class="s37" d="m929.2 78.6q0 1.5-0.1 3c0 0.2 0 0.4 0.2 0.5 0.1 0.1 0.4-0.1 0.3-0.2"/>
					<path id="&lt;Path&gt;" class="s37" d="m944.4 78c0.3 1.2 0.4 2.4 0.2 3.7"/>
				</g>
				<g id="&lt;Group&gt;">
					<g id="&lt;Group&gt;" style="opacity: .7;mix-blend-mode: multiply">
						<path id="&lt;Path&gt;" class="s7" d="m913.8 120.6c1.4 7.4 2 15 2.3 22.5 0.1 7.6 0 15.1-1 22.6-0.6-7.5-0.8-15-1-22.5-0.2-7.6-0.4-15.1-0.3-22.6z"/>
					</g>
					<g id="&lt;Group&gt;" style="opacity: .7;mix-blend-mode: multiply">
						<path id="&lt;Path&gt;" class="s7" d="m958.6 120.9c-0.7 7.4-1.5 14.7-1.7 22-0.3 7.3 0 14.7 0.6 22.1-2.2-7.2-2.8-14.7-2.6-22.2 0.3-7.4 1.4-14.8 3.7-21.9z"/>
					</g>
				</g>
			</g>
		</g>
		<g id="&lt;Group&gt;">
			<path id="&lt;Path&gt;" class="s8" d="m522.4 193.8h-30.9c-9.8 19.6-2.4 40 10.1 60.8-17.7-16.1-29.8-36-34.8-60.8h-209c-15.3 0-27.7-12.4-27.7-27.7v-70.5c0-15.3 12.4-27.7 27.7-27.7h264.6c15.3 0 27.7 12.4 27.7 27.7v70.5c0 15.3-12.4 27.7-27.7 27.7z"/>
			<path id="ONLINE HELP
" class="s7" aria-label="ONLINE HELP"  d="m270 115.9q-4.1 0-6.4 3.1-2.2 3-2.2 8.5 0 5.5 2.2 8.6 2.3 3 6.4 3 4.2 0 6.5-3 2.2-3.1 2.2-8.6 0-5.5-2.2-8.5-2.3-3.1-6.5-3.1zm0-6.5q8.5 0 13.3 4.8 4.7 4.8 4.7 13.3 0 8.5-4.7 13.4-4.8 4.8-13.3 4.8-8.4 0-13.2-4.8-4.8-4.9-4.8-13.4 0-8.5 4.8-13.3 4.8-4.8 13.2-4.8zm24.9 35.6v-35h10l12.8 24v-24h8.5v35h-10.1l-12.7-24v24zm40.2 0v-35h9v28.2h15.9v6.8zm30.5 0v-35h9.1v35zm17.8 0v-35h10.1l12.7 24v-24h8.6v35h-10.1l-12.7-24v24zm40.1 0v-35h24.4v6.8h-15.3v6.5h14.4v6.9h-14.4v8h15.8v6.8zm49.5 0v-35h9v13.3h13.4v-13.3h9v35h-9v-14.8h-13.4v14.8zm40.2 0v-35h24.4v6.8h-15.4v6.5h14.4v6.9h-14.4v8h15.9v6.8zm32.8 0v-35h9v28.2h15.8v6.8zm30.6 0v-35h15q6.7 0 10.2 3 3.6 2.9 3.6 8.4 0 5.5-3.6 8.5-3.5 3-10.2 3h-6v12.1zm14.1-28.5h-5v9.8h5q2.6 0 4-1.2 1.4-1.3 1.4-3.7 0-2.3-1.4-3.6-1.4-1.3-4-1.3z"/>
		</g>
		<g id="&lt;Group&gt;">
			<path id="&lt;Path&gt;" class="s8" d="m309.7 823h-215.2c-16 0-29-12.9-29-28.9v-37.3c0-16 13-29 29-29h215.2c16 0 29 13 29 29v37.3c0 16-13 28.9-29 28.9z"/>
			<g id="&lt;Group&gt;">
				<path id="&lt;Path&gt;" class="s54" d="m93 752.9h221"/>
				<path id="&lt;Path&gt;" class="s54" d="m93.7 769.1h221"/>
				<path id="&lt;Path&gt;" class="s54" d="m111.4 784.6h177.2"/>
				<path id="&lt;Path&gt;" class="s54" d="m84.6 802.3h232.2"/>
			</g>
		</g>
		<g id="&lt;Group&gt;">
			<path id="&lt;Path&gt;" class="s8" d="m199.2 714.1c-82.8 0-149.9-67.1-149.9-149.9v-17.1c0-82.8 67.1-149.9 149.9-149.9 53.6 0 100.6 28 127.1 70.3l121.1-45.5-109.3 68.6c7.1 17.4 11.1 36.5 11.1 56.5v17.1c0 82.8-67.2 149.9-150 149.9z"/>
			<path id="&lt;Path&gt;" class="s42" d="m172.7 390.5c0 27.2-33 49.4-74.7 51-0.5 17 1.1 26.4 20.8 37-27.5-1.4-32.2-14.3-35.3-37.3-39.3-3-69.8-24.6-69.8-50.7 0-28.3 35.6-51.2 79.5-51.2 43.9 0 79.5 22.9 79.5 51.2z"/>
			<path id="&lt;Path&gt;" class="s43" d="m172 400.1c-4 3.8-5.5 10.9-9.4 15.4-4.6 5.3-10.4 9.7-16.5 13.2-14.5 8.3-31.5 12.2-48.1 12.8-0.5 17 1 26.4 20.8 37-27.5-1.4-32.2-14.3-35.3-37.3-24.7-1.9-64.7-12.4-59.8-44.8 1.7-11.3 10.7-20.1 20.3-26.4 9.9-6.5 21.2-11.2 32.9-12.6 11.8-1.3 24.2 0.9 34.1 7.4 12.6 8.2 20.2 22.2 31.7 31.9 4.2 3.4 8.9 6.3 14.2 7.3 5.3 1 11.2-0.1 15.1-3.9z"/>
			<g id="&lt;Group&gt;">
				<path id="&lt;Path&gt;" class="s7" d="m266.9 641q0.1-0.7 0.1-1.5c-0.3 2.4 3.7 8.1 4.7 10.4q2.8 6.1 5.6 12.3c3.5 7.7 6.5 16.1 10.6 23.5 3.7-1.5 34.6-28.3 32.4-33.2q-10.8-23.1-21.5-46.3c-3.6-7.7-7.5-15.7-14.2-20.9-13.1-10-32.6-7.7-48-9.1-5-0.5-9.9-1.1-14.8-2-2.3-0.4-11-4-12.8-3.1-7.4 3.3-16.5 5.1-24.5 5.8-9.2 0.9-18.6-0.6-27.6 2.2-5.3 1.7-10 4.7-14.5 7.8-25 17.4-45.7 40.4-70.7 57.8 6.8 10.3 14.9 19.9 23.8 28.5 19.8-9.1 38.4-20.5 55.6-33.9-0.4 11.2-0.6 22.5-1.3 33.7-0.1 2.7-3.4 31.7-4.1 31.5 7.7 2.2 15.5 4.5 23.3 6.5 7.4 1.8 15.2 2.6 22.7 3.2 25.3 1.8 51.9-3.9 74.4-15.7 0.1-0.1 0.3-0.2 0.4-0.3 0.1-0.2 0.1-0.5 0.1-0.7-1.6-9.9-1.6-20-1.2-30 0.3-8.9 0.4-17.6 1.5-26.5z"/>
				<path id="&lt;Path&gt;" class="s55" d="m266.9 641q0.1-0.7 0.1-1.5c-0.3 2.4 3.7 8.1 4.7 10.4q2.8 6.1 5.6 12.3c3.5 7.7 6.5 16.1 10.6 23.5 7.6-3.1 12-11.5 18.3-16.1-5.3 0.3-8.8-4.7-11.1-8.9-13.3-23.8-26.3-49.6-24.3-76.8-12.1 24-11.1 53.3-17 78.9-2.1 8.9-5 17.7-10.3 25.1-5.3 7.4-13.2 13.2-22.2 14.5-9 1.2-18.9-3-23-11.1q6.7-1.7 13.4-3.3c-7.4-2.7-14.9-5.4-21.5-9.7-6.5-4.3-12.2-10.4-14.5-17.9 13.5 5.6 28.6 6.6 42.5 1.8-19.8-20.2-34.5-45.5-42.1-72.8 10.8 9.4 22.7 13.8 37.2 11.1 14.3-2.6 24.2-12.7 34.1-22.4-3.8-1.1-6.9-1.6-10.8-1.9-5-0.5-9.9-1.1-14.8-2-2.3-0.4-11-4-12.8-3.1-7.4 3.3-16.5 5.1-24.5 5.8-9.2 0.9-18.6-0.6-27.6 2.2-5.3 1.7-10 4.7-14.5 7.8-25 17.4-45.7 40.4-70.7 57.8 6.8 10.3 14.9 19.9 23.8 28.5 19.8-9.1 38.4-20.5 55.6-33.9-0.4 11.2-0.6 22.5-1.3 33.7-0.1 2.7-3.4 31.7-4.1 31.5 7.7 2.2 15.5 4.5 23.3 6.5 7.4 1.8 15.2 2.6 22.7 3.2 25.3 1.8 51.9-3.9 74.4-15.7 0.1-0.1 0.3-0.2 0.4-0.3 0.1-0.2 0.1-0.5 0.1-0.7-1.6-9.9-1.6-20-1.2-30 0.3-8.9 0.4-17.6 1.5-26.5z"/>
				<path id="&lt;Path&gt;" class="s19" d="m197.6 568.7c-0.4 2.2-1 4.2-2 5.8-2.9 5.3-10.6 6-15.9 6.3 6.4 8.9 17.9 13.5 28.9 12.9 11-0.7 21.3-6.1 29.2-13.8-3.1-0.6-6.5-1.3-8.7-3.6-1.7-1.6-2.5-3.9-3.1-6.1-1.7-6.4-1.9-13.1-0.7-19.6-0.7 3.6-25.4 0.8-27.8 0.5 0.5 4.9 1.1 11.8 0.1 17.6z"/>
				<path id="&lt;Path&gt;" class="s21" d="m197.6 568.7c-0.7 4.1-2.6 6.5-5.2 9.7 6.5-0.4 13-1.9 18.9-4.4 4.2-1.8 8.4-4.2 11.1-7.9 3.4-4.5 1.9-10.2 2.9-15.5-0.7 3.6-25.4 0.8-27.8 0.5 0.5 4.9 1.1 11.8 0.1 17.6z"/>
				<g id="&lt;Group&gt;">
					<path id="&lt;Path&gt;" class="s19" d="m177.9 449.4c-9.2 10.2-8.8 24.9-7.4 39.5q1.3 13.9 2.6 27.8c0.9 9.2 1.7 19.7 7.4 27.3 6.9 9.3 18.5 13.5 29.9 13.5 8.9 0.1 17.9-2.9 24.4-8.9 8.6-7.9 12.1-19.8 14.3-31.3 0.5 2.5 3 4.4 5.5 3.9 2.4-0.4 4.4-2.1 6.1-4 6.8-7.6 8.4-20 6.1-29.7-0.6-2.6-1.8-5.4-4.3-6.4-2.1-0.9-4.6 0-6.3 1.5-1.6 1.6-2.5 3.8-3.1 6 0.8-6.9 0.9-13.9 0.1-20.8-0.7-6.1-1.3-13.8-5.2-18.7-7.9-10-21.9-12.7-34.6-12.4-9 0.2-18.1 1.5-26 5.6-3.9 2-7 4.4-9.5 7.1z"/>
					<path id="&lt;Path&gt;" class="s20" d="m177.9 449.4c-9.2 10.2-8.8 24.9-7.4 39.5q1.3 13.9 2.6 27.8c0.6 5.8 1.1 11.6 2.6 17.2 1.8 6.4 4.5 9.8 9.6 13.7-6.3-11.5-7.6-24.9-8.6-37.9-0.8-9.5-1.5-19.1-0.7-28.6 2.9 3.4 7 5.6 11.4 6.3 0.7 0.2 1.8 0.1 2.1-0.6 0.1-0.4 0-0.8-0.1-1.2q-0.9-3.8-2-7.5c5.7 4.6 12.4 7.9 19.5 9.7 3.2 0.8 6.6 1.3 9.8 0.5q-2.3-4.5-4.5-8.9c7.7 3.1 16.6 3.4 24.4 0.6q-2.6-2.5-5.3-5 6.5 0.2 12.9 0.3c-0.1 1.9-1.1 3.6-1.8 5.4-0.7 1.8-1.2 3.8-0.5 5.5 0.7 1.8 3 3 4.6 1.9-1.9 2.7-1.9 6.4-0.9 9.5 1 3.1 2.9 5.9 4.7 8.6-0.5-5.2 1.2-10.5 4.7-14.4q-1 5.1-1 10.2c1.5-1.3 4.2-0.6 5.2 1.1 1.1 1.8 0.5 4.2-0.8 5.7-0.9 1-2.1 1.7-2.3 3 2.6-0.8 4.6-3 5.8-5.5 1.2-2.4 1.6-5.2 2.1-7.9 0.6-3.7 0.9-8.2-2-10.5 2.3-0.3 4.8 1.3 5.3 3.6-0.9-3.6-0.5-8.7-4.8-10.4-2.1-0.9-4.6 0-6.3 1.5-1.6 1.6-2.5 3.8-3.1 6 0.8-6.9 0.9-13.9 0.1-20.8-0.7-6.1-1.3-13.8-5.2-18.7-7.9-10-21.9-12.7-34.6-12.4-9 0.2-18.1 1.5-26 5.6-3.9 2-7 4.4-9.5 7.1z"/>
					<g id="&lt;Group&gt;">
						<g id="&lt;Group&gt;" style="mix-blend-mode: multiply">
							<path id="&lt;Path&gt;" class="s15" d="m254.2 502.6c0.8-0.6 1.6-1.2 2.6-1.4 1-0.3 2.4 0.3 2.9 1.3 0.9 2 0.7 4.3-0.3 6.2-0.5 0.9-1.1 1.8-2 2.5-0.4 0.3-1 0.8-2 0.7-0.4 0-0.9-0.3-1.2-0.6-0.2-0.2-0.4-0.5-0.6-0.8-0.8-2.1-0.9-4.2-0.8-6.2 0.3-4 1.5-7.9 3.5-11.4 0.5-0.9 1-1.7 1.6-2.5 0.3-0.4 0.7-0.8 1.2-1.2 0.4-0.4 1.2-0.6 1.8-0.3 0.3 0.1 0.6 0.4 0.8 0.7q0.1 0.2 0.2 0.5v0.4 1.4c0.1 1 0.1 2 0 3-0.1-1-0.3-1.9-0.5-2.9l-0.3-1.4-0.1-0.4q0-0.1 0-0.2-0.2-0.1-0.4-0.2c-0.6-0.1-1.1 0.5-1.6 1.3q-0.7 1.3-1.3 2.5c-1.7 3.4-2.7 7.1-2.9 10.8-0.2 1.9 0 3.8 0.6 5.3 0.1 0.4 0.2 0.4 0.2 0.4 0.1 0.1 0.4-0.1 0.7-0.3 0.7-0.5 1.3-1.1 1.8-1.9 0.9-1.4 1.3-3.4 0.7-5-0.3-0.8-1-1.3-1.9-1.2-0.9 0-1.8 0.4-2.7 0.9z"/>
						</g>
						<g id="&lt;Group&gt;" style="mix-blend-mode: multiply">
							<path id="&lt;Path&gt;" class="s15" d="m205.6 490c0.8 1.4 1.1 3.1 1 4.8-0.1 1.7-0.5 3.3-1.1 4.9-0.6 1.5-1.6 3-2.5 4.3-1 1.3-1.9 2.6-2.7 4-0.8 1.2-1.6 2.7-1.7 3.9-0.1 0.7 0 1 0.5 1.5 0.5 0.4 1.1 0.7 1.8 1.1q2.2 0.8 4.5 1.8c0.2 0.1 0.4 0.2 0.7 0.5 0.2 0.2 0.3 0.5 0.3 0.7l0.1 1.3q0 1.2 0.1 2.4-0.4-1.2-0.7-2.4l-0.3-1.1c-0.1-0.4-0.2-0.4-0.5-0.5-1.6-0.4-3.1-0.8-4.7-1.3-0.8-0.2-1.7-0.6-2.4-1.2-0.4-0.3-0.8-0.8-1-1.3-0.2-0.5-0.3-1.1-0.3-1.6 0.2-2 1.1-3.4 1.9-4.9 0.9-1.4 1.9-2.7 2.9-4 1-1.3 1.8-2.5 2.6-3.9 1.4-2.7 2.4-5.8 1.5-9z"/>
						</g>
						<g id="&lt;Group&gt;">
							<path id="&lt;Path&gt;" class="s23" d="m229.5 490.7c0.6-0.6 1.3-1.1 2.1-1.1 2.3-0.2 3.3 2.6 3.5 4.4 0.3 2.2-0.4 7-3.6 6.6-1-0.1-1.9-0.8-2.4-1.7-1.2-2.1-1.3-5.5 0-7.6q0.2-0.3 0.4-0.6z"/>
							<path id="&lt;Path&gt;" class="s23" d="m185.9 493.4c0.5-0.6 1.2-1.1 2-1.1 2.3-0.2 3.3 2.6 3.5 4.4 0.3 2.2-0.4 7-3.5 6.7-1-0.2-1.9-0.9-2.5-1.8-1.2-2.1-1.2-5.5 0-7.6q0.2-0.3 0.5-0.6z"/>
						</g>
						<g id="&lt;Group&gt;">
							<path id="&lt;Path&gt;" class="s22" d="m242.6 512.8c0.9-0.3 1.8-0.7 2.5-1.4 0.7-0.6 1.1-1.7 0.7-2.6-0.3-0.8-1.1-1.3-1.9-1.6-5.9-2.5-12.7-2.1-18.7 0-1.4 0.5-2.8 1.1-3.4 2.4-1.1 1.8 0 3 1.7 3.6 3.8 1.5 7.3 1.4 11.2 1.1 2.7-0.2 5.3-0.7 7.9-1.5z"/>
							<path id="&lt;Path&gt;" class="s22" d="m189.4 516.8c1.8-0.4 3.5-0.9 4.7-1.9 1.9-1.7-0.1-4-2-4.8-2.8-1.3-6.1-1.1-9.1-0.6-2 0.3-12.1 2-8 6 1.6 1.5 4.5 1.5 6.5 1.7 1.6 0.1 3.1 0.3 4.7 0.1 1-0.2 2.1-0.3 3.2-0.5z"/>
						</g>
						<g id="&lt;Group&gt;">
							<path id="&lt;Path&gt;" class="s56" d="m198 528.5c0-0.2 0-0.5 0.2-0.7 0.2-0.1 0.4-0.2 0.7-0.2 2.1-0.2 24.9-2.4 25-1.7 0.3 5.1-1.6 10.4-5.5 13.7-4 3.3-10.9 4.3-15 0.7-3.3-2.9-5.3-7.4-5.4-11.8z"/>
							<path id="&lt;Path&gt;" class="s8" d="m198.2 528.5c-0.1-0.5 0-0.6 0.8-0.9 0.5-0.2 1.4-0.1 2-0.2q0.9-0.1 1.8-0.2c4.7-0.4 9.3-0.8 14-1.2 1.9-0.1 3.9-0.3 5.8-0.3 0.3 0 1-0.1 1.2 0.1 1.3 1.3-1.7 3.9-2.6 4.5-5.1 3.5-12.4 2.7-18.2 2.3-1-0.1-2-0.2-3-0.6-1.6-0.7-1.8-1.9-1.8-3.5z"/>
						</g>
						<g id="&lt;Group&gt;">
							<g id="&lt;Group&gt;">
								<path id="&lt;Path&gt;" class="s57" d="m176.2 485.7c0.2-2.7 1.8-4.9 3.8-6.5 2-1.6 4.4-2.5 6.8-2.9 2.4-0.3 4.9-0.1 7.2 0.7 2.2 0.8 4.4 2.1 5.9 4.3-2.5 1-4.5 1.5-6.4 1.9-2 0.5-3.8 0.8-5.6 1-1.7 0.3-3.5 0.5-5.3 0.7-1.9 0.2-3.8 0.4-6.4 0.8z"/>
							</g>
							<g id="&lt;Group&gt;">
								<path id="&lt;Path&gt;" class="s57" d="m219.7 480.7c1.1-2.5 3-4.1 5.2-5.3 2.2-1.1 4.6-1.6 7.1-1.5 2.4 0 4.8 0.6 6.9 1.8q1.6 0.9 2.9 2.2c0.9 1 1.7 2 2.1 3.4-2.7 0.2-4.6 0.4-6.6 0.5-1.9 0.1-3.7 0.1-5.5 0.1-1.8-0.1-3.6-0.2-5.5-0.3-1.9-0.2-3.9-0.4-6.6-0.9z"/>
							</g>
						</g>
					</g>
				</g>
				<path id="&lt;Path&gt;" class="s3" d="m162.9 492.9q0.2 0.5 0.5 1c2.7 5 7.6 9 8.5 14.6 1.5-9.1 0.7-18.6-2.4-27.3q1.2 1.3 2.6 2.2c0-0.1 0.6-8.3 0.6-9q0.5-5.7 1-11.4c0.4 4.8 2.3 10.5 7 11.7 0.4 0.1 0.9 0.2 1.4 0 0.8-0.5 0.6-1.8 0.3-2.7q-3.1-9-6.2-18.1c5.4 8.1 12.2 15.2 20.2 20.8 3.2 2.3 7.1 4.4 11 3.8-3.3-6.4-7.7-12.3-12.9-17.3 7.4 7.3 17.5 11.9 27.9 12.4 2.8 0.2 5.8 0.1 8.3-1.2q-3.6-3.2-7.2-6.4c5.1 3.1 10.9 6.3 16.7 4.9-4.8-2.6-9.3-5.7-13.3-9.3 4.4 2.5 9.1 4.5 14 5.8 2.4 0.6 5.5 0.9 7-1.1-1.1 5-1.8 10.1-1.8 15.2 0 1.5 0.1 3.1 1 4.4 0.9 1.2 3 1.6 3.9 0.5-1.9 2.6-3 5.7-3.2 8.9 1 0.3 2.1 0.1 2.9-0.4-0.2 0.7 0 1.5 0.5 1.9q1.4-3.9 2.7-7.9c0.8-2.3 1.7-4.7 3.4-6.4 1.7-1.8 4.5-2.6 6.6-1.4 1.1-3.5 0.4-7.5-1.9-10.5 6.2-1.2 11.5-6.1 13.4-12.1q-4.2 0.7-8.3 1.8c3.1-2.8 6.4-6.6 5.3-10.7 0-0.3-0.2-0.7-0.5-0.9-0.7-0.7-1.8-0.2-2.6 0.2-3.5 1.5-7.8 1.5-11.2-0.1 2.5-0.5 4.9-1.5 7.1-2.9 0.7-0.4 1.4-1.1 1.4-1.9 0-0.8-0.6-1.4-1.2-1.9-11.9-9.4-25.8-16.7-40.7-19.1-9.2-1.5-18.8-0.9-27.7 1.9-4.4 1.4-8.7 3.3-12.5 5.9-0.7 0.4-1.9 1.7-2.7 1.8-0.9 0.2-2.1-0.7-3.1-0.7-2.3-0.1-4.6 1.3-6.4 2.6-7.4 5.8-12.1 14.7-13.7 24-1.7 9.3-0.5 18.9 2 28 0.6 2.2 1.3 4.4 2.3 6.4z"/>
				<path id="&lt;Path&gt;" class="s38" d="m162.9 492.9q0.2 0.5 0.5 1c2.7 5 7.6 9 8.5 14.6 1.5-9.1 0.7-18.6-2.4-27.3q1.2 1.3 2.6 2.2c0-0.1 0.6-8.3 0.6-9q0.5-5.7 1-11.4c0.4 4.8 2.3 10.5 7 11.7 0.4 0.1 0.9 0.2 1.4 0 0.8-0.5 0.6-1.8 0.3-2.7q-3.1-9-6.2-18.1c5.4 8.1 12.2 15.2 20.2 20.8 3.2 2.3 7.1 4.4 11 3.8-3.3-6.4-7.7-12.3-12.9-17.3 7.4 7.3 17.5 11.9 27.9 12.4 2.8 0.2 5.8 0.1 8.3-1.2q-3.6-3.2-7.2-6.4c5.1 3.1 10.9 6.3 16.7 4.9-4.8-2.6-9.3-5.7-13.3-9.3 4.4 2.5 9.1 4.5 14 5.8 2.4 0.6 5.5 0.9 7-1.1-1.1 5-1.8 10.1-1.8 15.2 0 1.5 0.1 3.1 1 4.4 0.9 1.2 3 1.6 3.9 0.5-1.9 2.6-3 5.7-3.2 8.9 1 0.3 2.1 0.1 2.9-0.4-0.2 0.7 0 1.5 0.5 1.9q1.4-3.9 2.7-7.9c0.8-2.3 1.7-4.7 3.4-6.4 1.7-1.8 4.5-2.6 6.6-1.4 1.1-3.5 0.4-7.5-1.9-10.5 6.2-1.2 11.5-6.1 13.4-12.1q-4.2 0.7-8.3 1.8c1.9-1.7 4-3.8 4.9-6.2 0.7-1.9 0-3.5 0.3-5.4-1.6 4.6-6.5 7.3-11.2 7.4-4.8 0.2-9.4-1.8-13.5-4.2-4.2-2.5-8.1-5.4-12.5-7.4 0.8 4.5 3.1 8.6 6.5 11.6-7.5 0.3-14.8-2-21.7-5-6.8-2.9-13.5-6.5-20.6-8.7 1.2 3.8 2.9 7.4 4.9 10.8-6.2-1.1-12.1-3.3-17.5-6.7 0.6 3.1 2 6 4 8.4-4.8-3.2-8.7-7.5-11.6-12.5-0.3-0.6-0.7-1.2-1.4-1.3-0.4 0-0.7 0.2-1 0.4-2.7 1.6-4.8 4.1-5.9 7q1.2-5.8 2.3-11.7c-8.9 0-13.3 14.8-14.5 21.7-1.7 9.3-0.5 18.9 2 28 0.6 2.2 1.3 4.4 2.3 6.4z"/>
				<g id="&lt;Group&gt;">
					<g id="&lt;Group&gt;">
						<path id="&lt;Path&gt;" class="s35" d="m178.4 544.8c0.5-1.7-0.4-3.7-0.9-6.3q-2.4-11.8-4.3-23.7-3.6-23-5.1-46.3c-0.2-2.4-0.5-5.2-2.5-6.5-0.9-0.6-1.9-0.8-2.9-0.9-3.1-0.1-7.9 2.2-9.1 5.2-0.4 1.2-0.5 2.4-0.5 3.6-0.1 10.1 1.4 19.8 2.3 29.7q1.6 18.4 4.8 36.7c0.8 4.9 2.4 10.6 7 12.4 3 1.2 7.1 0.3 9.5-1.7 0.9-0.7 1.4-1.4 1.7-2.2z"/>
						<path id="&lt;Path&gt;" class="s17" d="m174.6 548.1c-3.5-1.3-4.7-5-5.3-8.3q-3.6-17.8-5.5-35.9c-1.2-11.3-3.6-21.9-3.2-33.4 0-3.3 0.3-6.7 2-9.6-1.4 0-3.2 0.9-4.5 1.5-1.9 0.8-3.7 1.9-4.5 3.9-0.4 1.2-0.5 2.4-0.5 3.6-0.1 10.1 1.4 19.8 2.3 29.7q1.6 18.4 4.8 36.7c0.8 4.9 2.4 10.6 7 12.4 1.5 0.6 7.2 2 7.4-0.6z"/>
					</g>
					<g id="&lt;Group&gt;">
						<g id="&lt;Group&gt;">
							<path id="&lt;Path&gt;" class="s19" d="m134.1 536c1.4-5.2 2.2-10.6 2.7-15.9 0.4-4.7-0.9-12.9 2.7-16.4 0.4-0.4 0.9-0.8 1-1.3 0.1-0.3 0.1-0.7 0-1.1-0.2-2.3-0.5-3.9 1.7-5.4 5.4-3.6 12-5.7 18-8.1 1.2-0.5 3.9-1.9 5-0.8 0.6 0.5 0.7 1.4 0.9 2.2 0.3 1.5 0.6 3.2-0.1 4.7 0.9-2.1 3.1 2.1 3.3 2.5 0.6 1.7 1.4 4.3 0.8 6.1-0.4 1.2-1.7 2.3-2.9 1.9 0.9 0.7 1.2 1.9 1.4 3q0.6 2.6 1.1 5.1c0 0.2 0.1 0.4 0 0.6-0.1 0.2-0.2 0.4-0.4 0.5-2.8 2.3-5.8 3.5-9.2 5 1.8-0.8 5.9-0.5 7 1.2 1.6 2.6 1.2 6.3-0.1 8.9-0.4 0.9-0.9 1.7-1.6 2.1-0.8 0.5-1.9 0.6-2.6 0-0.9-0.8-0.7-2.3-0.5-3.4-2.1 0.7-3.8 4-4.3 6.1-0.5 2.5-0.2 5-0.3 7.5-0.3 4.8-2.8 12.2-7.8 14.1-1.7 0.6-3.6 0.9-5 2.1-6.5 5.4-8.1 13.9-13.7 19.7q-6-6.2-12-12.4c4.6-6.9 9.2-13.9 12.5-21.5q1.4-3.3 2.4-7z"/>
							<path id="&lt;Path&gt;" class="s20" d="m148.1 522.9c-0.3-1 0.5-1.9 1.2-2.6 4.2-3.6 9.2-6.2 14.5-7.5 1.2-0.3 2.4-0.6 3.2-1.4 1.5-1.4 1.2-3.9 0.7-6-0.1-0.5-0.2-1-0.6-1.4-0.6-0.4-1.5-0.3-2.2 0-7.6 2.2-14.9 5.5-21.6 9.7-0.6-1.8 1-3.6 2.6-4.7 4.2-3 9-5.1 14.1-6.3 1.6-0.4 3.2-0.6 4.7-1.3 1.5-0.7 2.9-1.9 3.3-3.5 0.4-1.6-0.4-3.6-2-4-1.2-0.3-2.3 0.2-3.4 0.7-6.2 2.6-12.7 4.7-19.2 6.3 3.3-2.9 7.3-5.1 11.5-6.4 2.1-0.8 4.4-1.3 6.3-2.6 1.8-1.3 3.2-3.7 2.4-5.8 0.1 0.2 1.4 0.5 1.7 0.8 0.5 0.5 0.6 1.6 0.8 2.2 0.3 1.6 0.6 3.3-0.1 4.8 0.9-2.1 3.1 2.1 3.3 2.4 0.6 1.8 1.4 4.4 0.8 6.2-0.4 1.2-1.7 2.2-2.9 1.9 0.9 0.7 1.2 1.9 1.4 3q0.6 2.5 1.1 5.1c0 0.2 0.1 0.4 0 0.6-0.1 0.2-0.2 0.3-0.4 0.5-5.7 4.8-14.3 6.6-21.2 9.3z"/>
							<path id="&lt;Path&gt;" class="s20" d="m150.7 539.1c0.5-1.7 1-3.4 1.5-5.2 0.4-1.3 0.8-2.6 1.6-3.7 0.7-0.9 1.6-1.6 2.6-2.3 1.6-1.2 3.2-2.4 4.9-3.2 4.4-1.9 8.2-1.1 5.7 4-0.4 0.9-0.9 1.7-1.6 2.1-0.8 0.5-1.9 0.6-2.6 0-0.9-0.8-0.7-2.3-0.5-3.4-2.1 0.7-3.8 4-4.3 6.1-0.5 2.5-0.2 5-0.3 7.5-0.3 4.8-2.8 12.2-7.8 14.1-1.7 0.6-3.6 0.9-5 2.1-6.5 5.4-8.1 13.9-13.7 19.7q-6-6.2-12-12.4 1.7-2.6 3.4-5.2c0.7-1.2 2-4.4 3.2-5 1.8-1 5 2.8 7.7 2.7 2.2-0.1 4.2-0.9 6.1-1.8 3.3-1.7 6.4-4 8.2-7.2 1.3-2.9 2.1-5.9 2.9-8.9z"/>
							<g id="&lt;Group&gt;">
								<g id="&lt;Group&gt;" style="mix-blend-mode: multiply">
									<path id="&lt;Path&gt;" class="s15" d="m166.7 493.2c-4.2 1.9-8.3 3.3-12.5 4.9-4.2 1.5-8.3 3-12.7 4.3 3.7-2.7 7.8-4.6 12-6.2 4.3-1.5 8.7-2.7 13.2-3z"/>
								</g>
								<g id="&lt;Group&gt;" style="mix-blend-mode: multiply">
									<path id="&lt;Path&gt;" class="s15" d="m167.9 504.2c-2.4 0.5-4.5 1.3-6.6 2.2l-6.4 2.8c-4.3 1.9-8.6 3.9-13.1 5.2 3.8-2.8 8-5 12.3-7 2.2-0.9 4.3-1.8 6.6-2.5 2.3-0.7 4.8-1.1 7.2-0.7z"/>
								</g>
								<g id="&lt;Group&gt;" style="mix-blend-mode: multiply">
									<path id="&lt;Path&gt;" class="s15" d="m167.6 514.8c-3 2.2-6.3 3.7-9.7 5.2-3.3 1.3-6.7 2.6-10.3 3.6 2.9-2.4 6.2-4.1 9.6-5.5 3.4-1.4 6.8-2.5 10.4-3.3z"/>
								</g>
								<g id="&lt;Group&gt;" style="mix-blend-mode: multiply">
									<path id="&lt;Path&gt;" class="s15" d="m166.7 525.7c-1.7 0.8-3.3 1.1-4.6 1.7-1.3 0.6-2.3 1.6-3.6 3-0.1-0.9 0.1-1.9 0.6-2.7 0.4-0.9 1.2-1.6 2.1-2.1 0.9-0.4 1.9-0.6 2.8-0.5q1.4 0 2.7 0.6z"/>
								</g>
							</g>
						</g>
						<path id="&lt;Path&gt;" class="s7" d="m97.3 665.9c12.2-20.1 19.3-36.4 26.6-55 4-10.2 7.8-20.6 11.5-30.9 1.7-4.9 4.8-9.3 1-13.6-3.2-3.7-8-6.8-12.1-9.4-0.5-0.3-1.2-0.7-1.8-0.6-0.7 0.1-1.1 0.7-1.6 1.2-9.7 12-19.9 23.7-30 35.5-5 6-10 11.9-14.8 18-2.3 2.8-14 14.4-12.6 17.6 7.4 17.1 18.4 29.9 30.7 43.5 1.4-1.9 1.9-4.2 3.1-6.3z"/>
						<path id="&lt;Path&gt;" class="s55" d="m82.7 659.8c-2.7-7-4.3-14.4-4.5-21.9 3.1 4.4 8.2 7.3 13.6 7.5-3.2-7.3-2.9-15.9-0.5-23.5 2.4-7.7 6.6-14.6 11-21.3q10.1-15.4 21.6-29.7c2.4-3 4.9-5.9 8.1-8 0.2-0.1-7.2-5.6-7.7-5.9-0.5-0.3-1.2-0.7-1.8-0.6-0.7 0.1-1.1 0.7-1.6 1.2-9.7 12-19.9 23.7-30 35.5-5 6-10 11.9-14.8 18-2.3 2.8-14 14.4-12.6 17.6 4.7 10.8 11.2 22.3 19.2 31.1z"/>
					</g>
				</g>
			</g>
			<path id="?
" class="s8" aria-label="?"  d="m70.9 389v-1.6h13.4v1.7q0 2.9-1.2 5.1-1.2 2.2-5.3 5.7l-2.4 2.1q-2.1 1.8-3 3.4-1 1.6-1 3.2 0 2.5 1.8 3.9 1.8 1.4 5 1.4 3 0 6.5-1.2 3.5-1.2 7.3-3.5v11.1q-4.4 1.4-8.2 2.1-3.8 0.7-7.2 0.7-9.1 0-13.9-3.4-4.7-3.6-4.7-10.2 0-3.5 1.4-6.2 1.5-2.8 5-5.9l2.4-2q2.5-2.1 3.3-3.5 0.8-1.3 0.8-2.9zm13.4-19.4v12.5h-13.4v-12.5zm39 20.1v1.6h-13.4v-1.7q0-2.9 1.2-5.1 1.2-2.3 5.2-5.7l2.4-2.1q2.1-1.8 3.1-3.4 1-1.6 1-3.3 0-2.4-1.8-3.8-1.8-1.4-5-1.4-3 0-6.5 1.2-3.5 1.2-7.3 3.5v-11.1q4.5-1.4 8.2-2.1 3.7-0.7 7.2-0.7 9.1 0 13.8 3.5 4.8 3.5 4.8 10.2 0 3.4-1.5 6.2-1.4 2.7-4.9 5.8l-2.4 2q-2.5 2.2-3.3 3.5-0.8 1.3-0.8 2.9zm-13.4 19.3v-12.5h13.4v12.5z"/>
		</g>
		<g id="&lt;Group&gt;">
			<path id="&lt;Path&gt;" class="s58" d="m252.8 216.3l-78.4 63.7 7.8 97.5 137.6 3.9 7.8-102.7z"/>
			<path id="&lt;Path&gt;" class="s59" d="m252.8 217.7l-78.4 63.7 7.8 97.5 137.6 3.9-31.1-136.3-9.4-6.4-42.9 0.7 22.5-18z"/>
			<path id="&lt;Path&gt;" class="s60" d="m174.4 280l145.4 101.4-137.6-3.9z"/>
			<path id="&lt;Path&gt;" class="s61" d="m327.6 278.7l-80.5 52 72.7 50.7z"/>
			<path id="&lt;Path&gt;" class="s62" d="m182.2 377.5l64.9-46.8"/>
			<path id="&lt;Path&gt;" class="s8" d="m247.1 330.7l65.5-42.4 1.6-47.5-120.9 1.7 3.9 53.4z"/>
			<path id="&lt;Path&gt;" class="s63" d="m247.1 329.2l65.3-42.5-1-5.6 2.2-20.2c-13.4 3.5-18 13-14.4 28.1l-50.9 33.3-52-38.4 0.8 10.8z"/>
			<path id="&lt;Path&gt;" class="s7" d="m339.2 277.1c0.3 9.3-6.9 17.2-16.3 17.6-9.3 0.4-17.2-6.9-17.5-16.3-0.4-9.3 6.9-17.2 16.2-17.5 9.3-0.4 17.2 6.9 17.6 16.2z"/>
		</g>
		<g id="&lt;Group&gt;">
			<path id="&lt;Path&gt;" class="s8" d="m173.3 146.8c0 11.8-3.7 22.8-9.9 32.2 1.2 13.7 16.4 18.9 35.6 21.5-17.2 7.4-37.3 6.4-51.1-5.5-11.2 8.1-25.3 12.9-40.5 12.9-36.4 0-65.9-27.4-65.9-61.1 0-33.7 29.5-61 65.9-61 36.4 0 65.9 27.3 65.9 61z"/>
			<path id="&lt;Path&gt;" class="s7" d="m162.9 100.2c0 13.4-10.8 24.2-24.2 24.2-13.3 0-24.1-10.8-24.1-24.2 0-13.3 10.8-24.1 24.1-24.1 13.4 0 24.2 10.8 24.2 24.1z"/>
			<g id="&lt;Group&gt;">
				<g id="&lt;Group&gt;">
					<g id="&lt;Group&gt;">
						<path id="&lt;Path&gt;" class="s3" d="m86 156.6c6.5 0 6.5-10 0-10-6.4 0-6.4 10 0 10z"/>
					</g>
				</g>
				<g id="&lt;Group&gt;">
					<g id="&lt;Group&gt;">
						<path id="&lt;Path&gt;" class="s3" d="m110 156.6c6.4 0 6.4-10 0-10-6.5 0-6.5 10 0 10z"/>
					</g>
				</g>
				<g id="&lt;Group&gt;">
					<g id="&lt;Group&gt;">
						<path id="&lt;Path&gt;" class="s3" d="m134 155.6c6.5 0 6.5-10 0-10-6.4 0-6.4 10 0 10z"/>
					</g>
				</g>
			</g>
		</g>
	</g>
</svg>